<svg width="16" height="16" viewBox="0 0 16 16" fill="none" xmlns="http://www.w3.org/2000/svg">
<path d="M12.4011 13.14L0.779078 1.544L2.15708 0.165999L13.7791 11.814V2.974H15.6251V13.79L14.4031 15.012H3.61308V13.14H12.4011Z" fill="black"/>
<path d="M12.4011 13.14V13.34H12.8847L12.5423 12.9984L12.4011 13.14ZM0.779078 1.544L0.637657 1.40258L0.496077 1.54416L0.637815 1.68558L0.779078 1.544ZM2.15708 0.165999L2.29866 0.0247359L2.15724 -0.117002L2.01566 0.0245781L2.15708 0.165999ZM13.7791 11.814L13.6375 11.9553L13.9791 12.2976V11.814H13.7791ZM13.7791 2.974V2.774H13.5791V2.974H13.7791ZM15.6251 2.974H15.8251V2.774H15.6251V2.974ZM15.6251 13.79L15.7665 13.9314L15.8251 13.8728V13.79H15.6251ZM14.4031 15.012V15.212H14.4859L14.5445 15.1534L14.4031 15.012ZM3.61308 15.012H3.41308V15.212H3.61308V15.012ZM3.61308 13.14V12.94H3.41308V13.14H3.61308ZM12.5423 12.9984L0.920341 1.40242L0.637815 1.68558L12.2598 13.2816L12.5423 12.9984ZM0.9205 1.68542L2.2985 0.307421L2.01566 0.0245781L0.637657 1.40258L0.9205 1.68542ZM2.0155 0.307262L13.6375 11.9553L13.9207 11.6727L2.29866 0.0247359L2.0155 0.307262ZM13.9791 11.814V2.974H13.5791V11.814H13.9791ZM13.7791 3.174H15.6251V2.774H13.7791V3.174ZM15.4251 2.974V13.79H15.8251V2.974H15.4251ZM15.4837 13.6486L14.2617 14.8706L14.5445 15.1534L15.7665 13.9314L15.4837 13.6486ZM14.4031 14.812H3.61308V15.212H14.4031V14.812ZM3.81308 15.012V13.14H3.41308V15.012H3.81308ZM3.61308 13.34H12.4011V12.94H3.61308V13.34Z" fill="black"/>
</svg>
