<svg width="55" height="51" viewBox="0 0 55 51" fill="none" xmlns="http://www.w3.org/2000/svg">
<rect x="0.9" y="0.9" width="52.2" height="49.2" rx="9.1" stroke="white" stroke-width="1.8"/>
<rect x="42" y="14" width="13" height="31" fill="black"/>
<g clip-path="url(#clip0_1357_9)">
<path d="M26.1247 29.3059H24.2394C24.1297 29.3064 24.0248 29.2648 23.951 29.1916C23.8772 29.1184 23.8413 29.0203 23.8523 28.9219L24.0187 27.2114C24.0349 27.0295 24.2036 26.8896 24.4059 26.8902H26.2912C26.4009 26.8897 26.5058 26.9312 26.5796 27.0045C26.6534 27.0777 26.6893 27.1757 26.6783 27.2742L26.5119 28.9847C26.4957 29.1665 26.327 29.3065 26.1247 29.3059ZM26.4269 25.9569H24.5065C24.2944 25.9569 24.1224 25.7903 24.1224 25.5848L24.6448 19.8059C24.6682 19.618 24.8335 19.4771 25.0289 19.4784H26.9493C27.1614 19.4784 27.3333 19.645 27.3333 19.8506L26.7956 25.6331C26.7712 25.814 26.6151 25.9511 26.4269 25.9569ZM37.7185 19.2179C37.9229 19.4567 38.0228 19.7676 37.9956 20.0807L37.245 28.6658C37.221 28.9467 37.0964 29.2094 36.8943 29.4058L30.7562 35.3677C30.5371 35.5798 30.2439 35.698 29.9389 35.6974H23.4045L17.6522 41L18.0977 35.6939H15.1724C14.8439 35.6941 14.5303 35.5564 14.3082 35.3144C14.0861 35.0723 13.9759 34.7481 14.0044 34.4208L15.7897 14.0521C15.851 13.4535 16.3559 12.9987 16.9577 13H31.854C32.1967 12.9999 32.5223 13.1498 32.7449 13.4103L37.7185 19.2179ZM33.1693 27.0281L33.6463 21.729C33.6649 21.4148 33.5561 21.1064 33.3447 20.8732L30.5387 17.6328C30.3164 17.3768 29.9939 17.2296 29.6548 17.2295H20.816C20.2142 17.2281 19.7092 17.683 19.648 18.2816L18.5957 30.2054C18.5715 30.5317 18.6832 30.8534 18.9044 31.0945C19.1256 31.3356 19.4366 31.4745 19.7637 31.4785H28.4553C28.7568 31.4792 29.047 31.3636 29.2655 31.1558L32.8186 27.7715C33.0215 27.5742 33.1461 27.3101 33.1693 27.0281Z" fill="white"/>
</g>
<defs>
<clipPath id="clip0_1357_9">
<rect width="24" height="28" fill="white" transform="translate(14 13)"/>
</clipPath>
</defs>
</svg>
