<svg width="56" height="51" viewBox="0 0 56 51" fill="none" xmlns="http://www.w3.org/2000/svg">
<rect x="0.9" y="0.9" width="52.2" height="49.2" rx="9.1" stroke="white" stroke-width="1.8"/>
<rect x="43" y="14" width="13" height="31" fill="black"/>
<path d="M19.2014 14.7617H15.1214C14.7454 14.7617 14.4414 15.0657 14.4414 15.4417V37.8817C14.4414 38.2578 14.7454 38.5617 15.1214 38.5617H19.2014C19.5774 38.5617 19.8814 38.2578 19.8814 37.8817V15.4417C19.8814 15.0657 19.5774 14.7617 19.2014 14.7617ZM30.0814 14.7617C27.7369 14.7617 25.4884 15.6931 23.8306 17.3509C22.1728 19.0087 21.2414 21.2572 21.2414 23.6017C21.2414 25.9462 22.1728 28.1947 23.8306 29.8525C25.4884 31.5104 27.7369 32.4417 30.0814 32.4417C32.4259 32.4417 34.6744 31.5104 36.3322 29.8525C37.9901 28.1947 38.9214 25.9462 38.9214 23.6017C38.9214 21.2572 37.9901 19.0087 36.3322 17.3509C34.6744 15.6931 32.4259 14.7617 30.0814 14.7617Z" fill="white"/>
</svg>
