<svg width="58" height="51" viewBox="0 0 58 51" fill="none" xmlns="http://www.w3.org/2000/svg">
<rect x="0.9" y="0.9" width="52.2" height="49.2" rx="9.1" stroke="white" stroke-width="1.8"/>
<path d="M37.8043 14.3292C37.3731 13.9484 36.6957 13.894 35.9954 14.1867H35.9942C35.2576 14.4945 15.1441 23.478 14.3253 23.845C14.1763 23.8989 12.8757 24.4042 13.0097 25.5298C13.1293 26.5447 14.1746 26.965 14.3023 27.0135L19.4158 28.8367C19.755 30.0126 21.0056 34.3511 21.2822 35.2779C21.4547 35.8557 21.7359 36.6149 22.2287 36.7712C22.6611 36.9448 23.0912 36.7861 23.3695 36.5586L26.4958 33.5392L31.5425 37.6375L31.6627 37.7124C32.0054 37.8705 32.3337 37.9495 32.6471 37.9495C32.8892 37.9495 33.1215 37.9022 33.3435 37.8076C34.0996 37.4843 34.402 36.7341 34.4337 36.649L38.2034 16.2458C38.4334 15.1561 38.1137 14.6017 37.8043 14.3292ZM23.9255 29.5659L22.2005 34.3559L20.4755 28.3685L33.7005 18.1899L23.9255 29.5659Z" fill="white"/>
<rect x="45" y="14" width="13" height="31" fill="black"/>
</svg>
