<svg width="61" height="51" viewBox="0 0 61 51" fill="none" xmlns="http://www.w3.org/2000/svg">
<rect x="0.9" y="0.9" width="52.2" height="49.2" rx="9.1" stroke="white" stroke-width="1.8"/>
<rect x="48" y="14" width="13" height="31" fill="black"/>
<g clip-path="url(#clip0_1357_7)">
<path d="M26.9961 29.3872V27.0781H31.4335C31.4335 27.3046 31.4335 27.5038 31.4335 27.7031C31.4335 30.1913 31.4221 32.681 31.4421 35.1693C31.4464 35.7139 31.5006 36.2715 31.632 36.7975C32.0134 38.324 33.273 39.0665 34.8055 38.7196C36.2623 38.3899 37.5448 37.1229 37.6419 35.5606C37.7676 33.531 37.6733 31.4885 37.6733 29.3901H35.4296V27.0781H40.1927V38.3469H41.9993V40.5686H38.3631C38.2589 39.9107 38.1518 39.2385 38.0318 38.4845C37.919 38.6279 37.8361 38.7196 37.769 38.8228C36.6207 40.57 34.884 41.2982 32.8474 40.8868C30.8537 40.4826 29.5297 39.141 29.1541 37.0971C29.0584 36.5768 29.0213 36.0407 29.017 35.5118C29.0013 33.6757 29.0113 31.8382 29.0113 30.0021V29.3872H26.9961Z" fill="white"/>
<path d="M39.3455 20.0909C39.9625 20.5625 40.5438 21.0083 41.1579 21.4784C40.0053 23.0106 38.5286 23.9265 36.6691 24.2232C32.8372 24.8338 29.2324 22.3054 28.5012 18.4885C27.5729 13.6496 31.7518 9.32523 36.6148 10.0878C38.0044 10.3056 39.3141 10.7256 40.4109 11.6429C40.578 11.782 40.7166 12.0557 40.7237 12.2707C40.7566 13.2611 40.738 14.253 40.738 15.2735H38.4172C38.4172 14.6285 38.4415 13.9821 38.4029 13.3385C38.3915 13.145 38.2501 12.8784 38.0887 12.7881C35.8878 11.5555 33.0457 12.2478 31.7346 14.3118C30.2979 16.5736 30.8092 19.6581 32.8686 21.1487C34.7053 22.4774 37.3317 22.2022 38.9585 20.5095C39.0756 20.3876 39.1884 20.2601 39.3455 20.0909Z" fill="white"/>
<path d="M27.8352 10.3489V12.6666C27.2639 12.6666 26.7183 12.6953 26.1771 12.6566C25.7672 12.6279 25.5815 12.7684 25.4387 13.1597C24.1576 16.6484 22.8451 20.1242 21.5654 23.6129C21.4183 24.0142 21.2412 24.192 20.8042 24.149C20.2657 24.0959 19.5959 24.2866 19.216 24.0286C18.8575 23.7849 18.7904 23.0969 18.6133 22.5995C17.4993 19.4878 16.3767 16.3789 15.2913 13.2571C15.1242 12.777 14.8957 12.6236 14.4158 12.658C13.8588 12.6981 13.2961 12.6666 12.7148 12.6666V10.3489C13.8788 10.3489 15.0214 10.3833 16.1597 10.3346C16.7452 10.3088 17.0066 10.475 17.198 11.0613C18.162 14.0067 19.1874 16.9322 20.1915 19.8648C20.2443 20.0167 20.3029 20.1672 20.4028 20.4381C20.7656 19.3918 21.0912 18.4601 21.4126 17.5256C22.1795 15.291 22.9508 13.0565 23.7034 10.8162C23.8162 10.4779 23.9562 10.3274 24.3433 10.3374C25.4872 10.369 26.6327 10.3489 27.8366 10.3489H27.8352Z" fill="white"/>
<path d="M15.8826 38.37V29.1753H13.7031V27.0941H17.892C17.9435 27.8982 17.9963 28.7123 18.0577 29.6655C18.8075 28.5632 19.6516 27.7548 20.8099 27.3177C21.9738 26.8791 23.1692 27.0797 24.3875 27.0195V31.1432H22.1267V29.1423C21.2854 29.1294 20.5613 29.3831 19.9372 29.8934C18.8846 30.7548 18.3205 31.8713 18.3105 33.2445C18.3005 34.771 18.3076 36.2989 18.3076 37.8254C18.3076 37.9931 18.3076 38.1622 18.3076 38.3887H24.0633V40.5688H13.7031V38.3686H15.8826V38.37Z" fill="white"/>
<path d="M11.3023 40.6335H9V38.3086H11.3023V40.6335Z" fill="white"/>
</g>
<defs>
<clipPath id="clip0_1357_7">
<rect width="33" height="31" fill="white" transform="translate(9 10)"/>
</clipPath>
</defs>
</svg>
