<svg width="166" height="52" viewBox="0 0 166 52" fill="none" xmlns="http://www.w3.org/2000/svg">
<path d="M20.636 3.412L15.126 2.948C15.242 4.166 15.126 6.138 14.894 7.762C14.488 10.778 12.98 18.086 11.588 23.422C9.384 31.6 5.324 43.374 1.844 49.406L6.89 51.088C9.964 44.766 13.85 32.76 15.938 24.524C17.562 18.724 18.78 12.17 19.65 7.994C19.882 6.892 20.288 4.688 20.636 3.412ZM7.818 13.098C5.672 13.098 3.584 12.982 0.858 12.634L0.974 17.158C3.12 17.332 5.15 17.39 7.702 17.39C13.966 17.39 22.724 16.404 29.916 14.78V10.256C22.724 12.054 14.198 13.098 7.818 13.098ZM26.146 21.044V25.394C29.684 24.988 33.28 24.756 36.876 24.756C40.298 24.756 43.662 25.104 46.678 25.452L46.794 21.044C43.662 20.696 40.124 20.58 36.76 20.58C33.048 20.58 29.162 20.754 26.146 21.044ZM27.306 35.138L23.014 34.732C22.492 37.168 22.144 39.372 22.144 41.576C22.144 47.318 27.132 50.102 36.238 50.102C40.472 50.102 44.358 49.754 47.49 49.29L47.664 44.65C44.068 45.346 40.124 45.752 36.296 45.752C28.06 45.752 26.494 43.084 26.494 40.358C26.494 38.85 26.842 37.052 27.306 35.138ZM84.4201 3.006H79.4901C79.6641 3.76 79.7221 5.5 79.7221 6.486C79.7221 10.546 79.7221 16.636 79.7221 21.856C79.7221 26.96 80.3021 38.096 80.3021 42.562C80.3021 46.622 77.4601 47.608 74.0961 47.608C68.3541 47.608 66.0921 45.636 66.0921 42.91C66.0921 40.242 69.0501 38.096 74.6181 38.096C84.9421 38.096 93.5261 43.896 98.7461 48.71L101.414 44.592C96.9481 40.938 87.3781 34.326 75.1401 34.326C66.7881 34.326 61.7421 37.864 61.7421 43.142C61.7421 48.768 66.3241 51.726 74.6761 51.726C82.2161 51.726 84.8841 47.608 84.8841 43.548C84.8841 39.662 84.0141 29.512 84.0141 21.856C84.0141 16.984 84.0141 9.212 84.1301 6.892C84.1881 5.152 84.3041 3.992 84.4201 3.006ZM62.2641 9.27L62.3221 13.562C65.9761 14.026 73.1101 14.548 77.1121 14.548C84.8841 14.548 93.1781 13.794 99.7321 13.04V8.806C92.1921 10.024 84.4201 10.546 77.0541 10.546C73.2261 10.546 65.9761 9.966 62.2641 9.27ZM61.9741 21.624L62.0321 25.974C66.1501 26.438 72.5301 26.728 76.5321 26.728C85.2321 26.728 92.3081 26.322 100.196 25.336V20.986C92.6561 22.088 84.9421 22.668 76.5321 22.668C72.7041 22.668 66.0921 22.262 61.9741 21.624ZM121.772 8.922V13.678C126.354 14.026 131.342 14.316 137.142 14.316C142.478 14.316 148.858 13.91 152.802 13.62V8.864C148.568 9.27 142.71 9.676 137.142 9.676C131.342 9.676 125.948 9.444 121.772 8.922ZM124.15 32.296L119.394 31.89C118.872 34.21 118.234 36.936 118.234 39.952C118.234 47.202 125.02 51.088 136.852 51.088C145.088 51.088 152.454 50.218 156.63 49.058L156.572 44.128C152.164 45.52 144.74 46.39 136.736 46.39C127.398 46.39 122.932 43.374 122.932 38.908C122.932 36.762 123.396 34.616 124.15 32.296ZM154.426 2.484L151.294 3.818C152.86 5.964 154.832 9.502 155.992 11.88L159.182 10.488C157.964 8.11 155.876 4.572 154.426 2.484ZM160.806 0.163996L157.732 1.498C159.356 3.644 161.27 6.95 162.546 9.502L165.678 8.052C164.576 5.906 162.314 2.31 160.806 0.163996Z" fill="#265BEE"/>
</svg>
