<svg width="198" height="35" viewBox="0 0 198 35" fill="none" xmlns="http://www.w3.org/2000/svg">
<path opacity="0.4" d="M2.08 26.554L4.368 13.554H5.928L4.914 19.274H12.324L13.338 13.554H14.898L12.61 26.554H11.05L12.038 20.834H4.628L3.64 26.554H2.08ZM26.1412 21.094L26.3232 20.184H22.0852C20.9412 20.184 20.0658 20.444 19.4592 20.964C18.8698 21.484 18.5752 22.1773 18.5752 23.044C18.5752 23.7373 18.8092 24.2833 19.2772 24.682C19.7625 25.0633 20.4818 25.254 21.4352 25.254C22.6658 25.254 23.6885 24.89 24.5032 24.162C25.3352 23.434 25.8812 22.4113 26.1412 21.094ZM25.4652 26.554L25.5172 24.734H25.3872C25.0405 25.1326 24.6592 25.4793 24.2432 25.774C23.2725 26.4673 22.2498 26.814 21.1752 26.814C19.9098 26.814 18.8958 26.4846 18.1332 25.826C17.3878 25.15 17.0152 24.3093 17.0152 23.304C17.0152 21.9173 17.4572 20.8166 18.3412 20.002C19.2425 19.17 20.4905 18.754 22.0852 18.754H26.5832L26.6352 18.494C26.7218 18.182 26.7652 17.8786 26.7652 17.584C26.7652 16.7173 26.4878 16.05 25.9332 15.582C25.3958 15.0966 24.5898 14.854 23.5152 14.854C22.5098 14.854 21.7038 15.0793 21.0972 15.53C20.4905 15.9633 20.1005 16.5613 19.9272 17.324H18.3672C18.6445 16.18 19.2252 15.2266 20.1092 14.464C20.9932 13.684 22.1718 13.294 23.6452 13.294C25.1185 13.294 26.2625 13.6666 27.0772 14.412C27.9092 15.14 28.3252 16.1106 28.3252 17.324C28.3252 17.792 28.2818 18.182 28.1952 18.494L26.7652 26.554H25.4652ZM30.3312 22.524H31.8912C31.8739 22.5413 31.8652 22.5673 31.8652 22.602V22.784C31.8652 23.5466 32.1599 24.1533 32.7492 24.604C33.3559 25.0373 34.2312 25.254 35.3752 25.254C36.4326 25.254 37.2386 25.0373 37.7932 24.604C38.3479 24.1706 38.6252 23.6073 38.6252 22.914C38.6252 22.29 38.3652 21.77 37.8452 21.354C37.3252 20.9206 36.6059 20.704 35.6872 20.704H34.6212L34.8812 19.274H36.5452C37.4466 19.274 38.1659 19.0573 38.7032 18.624C39.2579 18.1906 39.5352 17.6706 39.5352 17.064C39.5352 16.44 39.2579 15.92 38.7032 15.504C38.1659 15.0706 37.4032 14.854 36.4152 14.854C35.4619 14.854 34.6992 15.088 34.1272 15.556C33.5552 16.0066 33.1912 16.6393 33.0352 17.454H31.4752C31.6139 16.2233 32.1599 15.2266 33.1132 14.464C34.0666 13.684 35.2106 13.294 36.5452 13.294C38.0012 13.294 39.1192 13.6233 39.8992 14.282C40.6966 14.9406 41.0952 15.7813 41.0952 16.804C41.0952 17.9306 40.6359 18.8146 39.7172 19.456C39.3706 19.716 38.9199 19.9153 38.3652 20.054V20.184C38.5559 20.2533 38.7726 20.3746 39.0152 20.548C39.2579 20.704 39.5092 20.99 39.7692 21.406C40.0466 21.822 40.1852 22.2813 40.1852 22.784C40.1852 23.928 39.7346 24.89 38.8332 25.67C37.9492 26.4326 36.7532 26.814 35.2452 26.814C33.6852 26.814 32.4719 26.4586 31.6052 25.748C30.7386 25.0373 30.3052 24.136 30.3052 23.044V22.68C30.3052 22.5933 30.3139 22.5413 30.3312 22.524ZM52.0142 21.094L52.1962 20.184H47.9582C46.8142 20.184 45.9389 20.444 45.3322 20.964C44.7429 21.484 44.4482 22.1773 44.4482 23.044C44.4482 23.7373 44.6822 24.2833 45.1502 24.682C45.6356 25.0633 46.3549 25.254 47.3082 25.254C48.5389 25.254 49.5616 24.89 50.3762 24.162C51.2082 23.434 51.7542 22.4113 52.0142 21.094ZM51.3382 26.554L51.3902 24.734H51.2602C50.9136 25.1326 50.5322 25.4793 50.1162 25.774C49.1456 26.4673 48.1229 26.814 47.0482 26.814C45.7829 26.814 44.7689 26.4846 44.0062 25.826C43.2609 25.15 42.8882 24.3093 42.8882 23.304C42.8882 21.9173 43.3302 20.8166 44.2142 20.002C45.1156 19.17 46.3636 18.754 47.9582 18.754H52.4562L52.5082 18.494C52.5949 18.182 52.6382 17.8786 52.6382 17.584C52.6382 16.7173 52.3609 16.05 51.8062 15.582C51.2689 15.0966 50.4629 14.854 49.3882 14.854C48.3829 14.854 47.5769 15.0793 46.9702 15.53C46.3636 15.9633 45.9736 16.5613 45.8002 17.324H44.2402C44.5176 16.18 45.0982 15.2266 45.9822 14.464C46.8662 13.684 48.0449 13.294 49.5182 13.294C50.9916 13.294 52.1356 13.6666 52.9502 14.412C53.7822 15.14 54.1982 16.1106 54.1982 17.324C54.1982 17.792 54.1549 18.182 54.0682 18.494L52.6382 26.554H51.3382ZM53.9423 29.674L54.7483 24.994H54.8783C55.5369 24.994 56.0396 24.8553 56.3863 24.578C56.7503 24.3006 57.0189 23.8326 57.1923 23.174L59.6883 13.554H68.0863L66.0583 24.994H68.0083L67.1763 29.674H65.6163L66.1883 26.554H56.0483L55.4763 29.674H53.9423ZM57.6083 24.994H64.4983L66.2403 15.114H60.7803L58.7003 23.174C58.5443 23.7806 58.3189 24.266 58.0243 24.63C57.9203 24.7686 57.7816 24.89 57.6083 24.994ZM67.3134 30.584L67.5734 29.154H77.6874L77.4274 30.584H67.3134ZM79.4452 26.554L81.7332 13.554H88.5452C89.4119 13.554 90.1052 13.8486 90.6252 14.438C91.1452 15.0273 91.4052 15.7293 91.4052 16.544C91.4052 18.1733 90.6599 19.3 89.1692 19.924V20.054C89.4292 20.21 89.6546 20.4093 89.8452 20.652C90.3132 21.224 90.5472 21.848 90.5472 22.524C90.5472 23.72 90.1572 24.6906 89.3772 25.436C88.5972 26.1813 87.6699 26.554 86.5952 26.554H79.4452ZM81.2392 25.124H86.5172C87.2106 25.124 87.7912 24.89 88.2592 24.422C88.7446 23.954 88.9872 23.3646 88.9872 22.654C88.9872 22.1166 88.8139 21.6573 88.4672 21.276C88.1379 20.8946 87.7046 20.704 87.1672 20.704H82.0192L81.2392 25.124ZM82.2792 19.274H87.5052C88.1119 19.274 88.6492 19.04 89.1172 18.572C89.6026 18.0866 89.8452 17.4973 89.8452 16.804C89.8452 16.3186 89.6806 15.894 89.3512 15.53C89.0392 15.166 88.6319 14.984 88.1292 14.984H83.0332L82.2792 19.274ZM90.0634 30.584L90.3234 29.154H100.437L100.177 30.584H90.0634ZM102.195 26.554L104.483 13.554H115.013L112.725 26.554H111.165L113.167 15.114H105.757L103.755 26.554H102.195ZM116.896 26.554L119.184 13.554H120.744L118.742 24.864H119.262L126.828 13.554H129.714L127.426 26.554H125.866L127.842 15.244H127.322L119.782 26.554H116.896ZM131.598 26.554L133.886 13.554H135.446L134.38 19.534L141.764 13.554H144.026L135.992 20.028L141.79 26.554H139.736L134.25 20.314L133.158 26.554H131.598ZM153.492 22.264H155.13C154.558 23.6506 153.726 24.76 152.634 25.592C151.559 26.4066 150.354 26.814 149.02 26.814C147.39 26.814 146.073 26.3026 145.068 25.28C144.062 24.24 143.56 22.8446 143.56 21.094C143.56 18.9273 144.253 17.09 145.64 15.582C147.044 14.0566 148.647 13.294 150.45 13.294C151.94 13.294 153.119 13.6926 153.986 14.49C154.852 15.27 155.416 16.3446 155.676 17.714H154.038C153.812 16.83 153.388 16.1366 152.764 15.634C152.14 15.114 151.325 14.854 150.32 14.854C148.985 14.854 147.78 15.4346 146.706 16.596C145.648 17.7573 145.12 19.17 145.12 20.834C145.12 22.1686 145.492 23.2433 146.238 24.058C146.983 24.8553 147.954 25.254 149.15 25.254C150.051 25.254 150.883 24.9853 151.646 24.448C152.426 23.9106 153.041 23.1826 153.492 22.264ZM167.169 22.914H168.885C168.763 23.174 168.607 23.4513 168.417 23.746C168.243 24.0233 167.975 24.3526 167.611 24.734C167.264 25.1153 166.883 25.4533 166.467 25.748C166.068 26.0426 165.565 26.294 164.959 26.502C164.352 26.71 163.719 26.814 163.061 26.814C161.431 26.814 160.114 26.3026 159.109 25.28C158.103 24.24 157.601 22.8446 157.601 21.094C157.601 18.9273 158.294 17.09 159.681 15.582C161.085 14.0566 162.688 13.294 164.491 13.294C166.12 13.294 167.411 13.8053 168.365 14.828C169.335 15.8333 169.821 17.1853 169.821 18.884C169.821 19.404 169.786 19.794 169.717 20.054L169.561 20.834H159.161C159.161 22.1686 159.533 23.2433 160.279 24.058C161.041 24.8553 162.021 25.254 163.217 25.254C163.875 25.254 164.508 25.098 165.115 24.786C165.721 24.4566 166.163 24.1446 166.441 23.85C166.735 23.538 166.978 23.226 167.169 22.914ZM159.343 19.274H168.261C168.261 17.9046 167.914 16.83 167.221 16.05C166.545 15.2526 165.591 14.854 164.361 14.854C163.165 14.854 162.107 15.2873 161.189 16.154C160.287 17.0033 159.672 18.0433 159.343 19.274ZM169.559 26.684L169.793 25.124H170.729C171.717 25.124 172.384 24.474 172.731 23.174L175.227 13.554H183.677L181.389 26.554H179.829L181.831 15.114H176.371L174.239 23.356C173.667 25.5746 172.453 26.684 170.599 26.684H169.559ZM185.553 26.554L187.841 13.554H189.401L188.595 18.104H192.833C193.873 18.104 194.739 18.4593 195.433 19.17C196.126 19.8806 196.473 20.782 196.473 21.874C196.473 23.226 196.022 24.344 195.121 25.228C194.219 26.112 193.067 26.554 191.663 26.554H185.553ZM187.373 24.994H191.923C192.755 24.994 193.457 24.708 194.029 24.136C194.618 23.5466 194.913 22.836 194.913 22.004C194.913 21.276 194.713 20.704 194.315 20.288C193.916 19.872 193.379 19.664 192.703 19.664H188.309L187.373 24.994Z" fill="black"/>
</svg>
