<svg width="201" height="36" viewBox="0 0 201 36" fill="none" xmlns="http://www.w3.org/2000/svg">
<path d="M2.08 26.7126L4.368 13.7126H5.928L4.914 19.4326H12.324L13.338 13.7126H14.898L12.61 26.7126H11.05L12.038 20.9926H4.628L3.64 26.7126H2.08ZM26.1412 21.2526L26.3232 20.3426H22.0852C20.9412 20.3426 20.0658 20.6026 19.4592 21.1226C18.8698 21.6426 18.5752 22.336 18.5752 23.2026C18.5752 23.896 18.8092 24.442 19.2772 24.8406C19.7625 25.222 20.4818 25.4126 21.4352 25.4126C22.6658 25.4126 23.6885 25.0486 24.5032 24.3206C25.3352 23.5926 25.8812 22.57 26.1412 21.2526ZM25.4652 26.7126L25.5172 24.8926H25.3872C25.0405 25.2913 24.6592 25.638 24.2432 25.9326C23.2725 26.626 22.2498 26.9726 21.1752 26.9726C19.9098 26.9726 18.8958 26.6433 18.1332 25.9846C17.3878 25.3086 17.0152 24.468 17.0152 23.4626C17.0152 22.076 17.4572 20.9753 18.3412 20.1606C19.2425 19.3286 20.4905 18.9126 22.0852 18.9126H26.5832L26.6352 18.6526C26.7218 18.3406 26.7652 18.0373 26.7652 17.7426C26.7652 16.876 26.4878 16.2086 25.9332 15.7406C25.3958 15.2553 24.5898 15.0126 23.5152 15.0126C22.5098 15.0126 21.7038 15.238 21.0972 15.6886C20.4905 16.122 20.1005 16.72 19.9272 17.4826H18.3672C18.6445 16.3386 19.2252 15.3853 20.1092 14.6226C20.9932 13.8426 22.1718 13.4526 23.6452 13.4526C25.1185 13.4526 26.2625 13.8253 27.0772 14.5706C27.9092 15.2986 28.3252 16.2693 28.3252 17.4826C28.3252 17.9506 28.2818 18.3406 28.1952 18.6526L26.7652 26.7126H25.4652ZM30.3312 22.6826H31.8912C31.8739 22.7 31.8652 22.726 31.8652 22.7606V22.9426C31.8652 23.7053 32.1599 24.312 32.7492 24.7626C33.3559 25.196 34.2312 25.4126 35.3752 25.4126C36.4326 25.4126 37.2386 25.196 37.7932 24.7626C38.3479 24.3293 38.6252 23.766 38.6252 23.0726C38.6252 22.4486 38.3652 21.9286 37.8452 21.5126C37.3252 21.0793 36.6059 20.8626 35.6872 20.8626H34.6212L34.8812 19.4326H36.5452C37.4466 19.4326 38.1659 19.216 38.7032 18.7826C39.2579 18.3493 39.5352 17.8293 39.5352 17.2226C39.5352 16.5986 39.2579 16.0786 38.7032 15.6626C38.1659 15.2293 37.4032 15.0126 36.4152 15.0126C35.4619 15.0126 34.6992 15.2466 34.1272 15.7146C33.5552 16.1653 33.1912 16.798 33.0352 17.6126H31.4752C31.6139 16.382 32.1599 15.3853 33.1132 14.6226C34.0666 13.8426 35.2106 13.4526 36.5452 13.4526C38.0012 13.4526 39.1192 13.782 39.8992 14.4406C40.6966 15.0993 41.0952 15.94 41.0952 16.9626C41.0952 18.0893 40.6359 18.9733 39.7172 19.6146C39.3706 19.8746 38.9199 20.074 38.3652 20.2126V20.3426C38.5559 20.412 38.7726 20.5333 39.0152 20.7066C39.2579 20.8626 39.5092 21.1486 39.7692 21.5646C40.0466 21.9806 40.1852 22.44 40.1852 22.9426C40.1852 24.0866 39.7346 25.0486 38.8332 25.8286C37.9492 26.5913 36.7532 26.9726 35.2452 26.9726C33.6852 26.9726 32.4719 26.6173 31.6052 25.9066C30.7386 25.196 30.3052 24.2946 30.3052 23.2026V22.8386C30.3052 22.752 30.3139 22.7 30.3312 22.6826ZM52.0142 21.2526L52.1962 20.3426H47.9582C46.8142 20.3426 45.9389 20.6026 45.3322 21.1226C44.7429 21.6426 44.4482 22.336 44.4482 23.2026C44.4482 23.896 44.6822 24.442 45.1502 24.8406C45.6356 25.222 46.3549 25.4126 47.3082 25.4126C48.5389 25.4126 49.5616 25.0486 50.3762 24.3206C51.2082 23.5926 51.7542 22.57 52.0142 21.2526ZM51.3382 26.7126L51.3902 24.8926H51.2602C50.9136 25.2913 50.5322 25.638 50.1162 25.9326C49.1456 26.626 48.1229 26.9726 47.0482 26.9726C45.7829 26.9726 44.7689 26.6433 44.0062 25.9846C43.2609 25.3086 42.8882 24.468 42.8882 23.4626C42.8882 22.076 43.3302 20.9753 44.2142 20.1606C45.1156 19.3286 46.3636 18.9126 47.9582 18.9126H52.4562L52.5082 18.6526C52.5949 18.3406 52.6382 18.0373 52.6382 17.7426C52.6382 16.876 52.3609 16.2086 51.8062 15.7406C51.2689 15.2553 50.4629 15.0126 49.3882 15.0126C48.3829 15.0126 47.5769 15.238 46.9702 15.6886C46.3636 16.122 45.9736 16.72 45.8002 17.4826H44.2402C44.5176 16.3386 45.0982 15.3853 45.9822 14.6226C46.8662 13.8426 48.0449 13.4526 49.5182 13.4526C50.9916 13.4526 52.1356 13.8253 52.9502 14.5706C53.7822 15.2986 54.1982 16.2693 54.1982 17.4826C54.1982 17.9506 54.1549 18.3406 54.0682 18.6526L52.6382 26.7126H51.3382ZM53.9423 29.8326L54.7483 25.1526H54.8783C55.5369 25.1526 56.0396 25.014 56.3863 24.7366C56.7503 24.4593 57.0189 23.9913 57.1923 23.3326L59.6883 13.7126H68.0863L66.0583 25.1526H68.0083L67.1763 29.8326H65.6163L66.1883 26.7126H56.0483L55.4763 29.8326H53.9423ZM57.6083 25.1526H64.4983L66.2403 15.2726H60.7803L58.7003 23.3326C58.5443 23.9393 58.3189 24.4246 58.0243 24.7886C57.9203 24.9273 57.7816 25.0486 57.6083 25.1526ZM67.3134 30.7426L67.5734 29.3126H77.6874L77.4274 30.7426H67.3134ZM79.4452 26.7126L81.7332 13.7126H88.5452C89.4119 13.7126 90.1052 14.0073 90.6252 14.5966C91.1452 15.186 91.4052 15.888 91.4052 16.7026C91.4052 18.332 90.6599 19.4586 89.1692 20.0826V20.2126C89.4292 20.3686 89.6546 20.568 89.8452 20.8106C90.3132 21.3826 90.5472 22.0066 90.5472 22.6826C90.5472 23.8786 90.1572 24.8493 89.3772 25.5946C88.5972 26.34 87.6699 26.7126 86.5952 26.7126H79.4452ZM81.2392 25.2826H86.5172C87.2106 25.2826 87.7912 25.0486 88.2592 24.5806C88.7446 24.1126 88.9872 23.5233 88.9872 22.8126C88.9872 22.2753 88.8139 21.816 88.4672 21.4346C88.1379 21.0533 87.7046 20.8626 87.1672 20.8626H82.0192L81.2392 25.2826ZM82.2792 19.4326H87.5052C88.1119 19.4326 88.6492 19.1986 89.1172 18.7306C89.6026 18.2453 89.8452 17.656 89.8452 16.9626C89.8452 16.4773 89.6806 16.0526 89.3512 15.6886C89.0392 15.3246 88.6319 15.1426 88.1292 15.1426H83.0332L82.2792 19.4326ZM90.0634 30.7426L90.3234 29.3126H100.437L100.177 30.7426H90.0634ZM102.195 26.7126L104.483 13.7126H115.013L112.725 26.7126H111.165L113.167 15.2726H105.757L103.755 26.7126H102.195ZM116.896 26.7126L119.184 13.7126H120.744L118.742 25.0226H119.262L126.828 13.7126H129.714L127.426 26.7126H125.866L127.842 15.4026H127.322L119.782 26.7126H116.896ZM131.598 26.7126L133.886 13.7126H135.446L134.38 19.6926L141.764 13.7126H144.026L135.992 20.1866L141.79 26.7126H139.736L134.25 20.4726L133.158 26.7126H131.598ZM153.492 22.4226H155.13C154.558 23.8093 153.726 24.9186 152.634 25.7506C151.559 26.5653 150.354 26.9726 149.02 26.9726C147.39 26.9726 146.073 26.4613 145.068 25.4386C144.062 24.3986 143.56 23.0033 143.56 21.2526C143.56 19.086 144.253 17.2486 145.64 15.7406C147.044 14.2153 148.647 13.4526 150.45 13.4526C151.94 13.4526 153.119 13.8513 153.986 14.6486C154.852 15.4286 155.416 16.5033 155.676 17.8726H154.038C153.812 16.9886 153.388 16.2953 152.764 15.7926C152.14 15.2726 151.325 15.0126 150.32 15.0126C148.985 15.0126 147.78 15.5933 146.706 16.7546C145.648 17.916 145.12 19.3286 145.12 20.9926C145.12 22.3273 145.492 23.402 146.238 24.2166C146.983 25.014 147.954 25.4126 149.15 25.4126C150.051 25.4126 150.883 25.144 151.646 24.6066C152.426 24.0693 153.041 23.3413 153.492 22.4226ZM167.169 23.0726H168.885C168.763 23.3326 168.607 23.61 168.417 23.9046C168.243 24.182 167.975 24.5113 167.611 24.8926C167.264 25.274 166.883 25.612 166.467 25.9066C166.068 26.2013 165.565 26.4526 164.959 26.6606C164.352 26.8686 163.719 26.9726 163.061 26.9726C161.431 26.9726 160.114 26.4613 159.109 25.4386C158.103 24.3986 157.601 23.0033 157.601 21.2526C157.601 19.086 158.294 17.2486 159.681 15.7406C161.085 14.2153 162.688 13.4526 164.491 13.4526C166.12 13.4526 167.411 13.964 168.365 14.9866C169.335 15.992 169.821 17.344 169.821 19.0426C169.821 19.5626 169.786 19.9526 169.717 20.2126L169.561 20.9926H159.161C159.161 22.3273 159.533 23.402 160.279 24.2166C161.041 25.014 162.021 25.4126 163.217 25.4126C163.875 25.4126 164.508 25.2566 165.115 24.9446C165.721 24.6153 166.163 24.3033 166.441 24.0086C166.735 23.6966 166.978 23.3846 167.169 23.0726ZM159.343 19.4326H168.261C168.261 18.0633 167.914 16.9886 167.221 16.2086C166.545 15.4113 165.591 15.0126 164.361 15.0126C163.165 15.0126 162.107 15.446 161.189 16.3126C160.287 17.162 159.672 18.202 159.343 19.4326ZM169.559 26.8426L169.793 25.2826H170.729C171.717 25.2826 172.384 24.6326 172.731 23.3326L175.227 13.7126H183.677L181.389 26.7126H179.829L181.831 15.2726H176.371L174.239 23.5146C173.667 25.7333 172.453 26.8426 170.599 26.8426H169.559ZM185.553 26.7126L187.841 13.7126H189.401L188.595 18.2626H192.833C193.873 18.2626 194.739 18.618 195.433 19.3286C196.126 20.0393 196.473 20.9406 196.473 22.0326C196.473 23.3846 196.022 24.5026 195.121 25.3866C194.219 26.2706 193.067 26.7126 191.663 26.7126H185.553ZM187.373 25.1526H191.923C192.755 25.1526 193.457 24.8666 194.029 24.2946C194.618 23.7053 194.913 22.9946 194.913 22.1626C194.913 21.4346 194.713 20.8626 194.315 20.4466C193.916 20.0306 193.379 19.8226 192.703 19.8226H188.309L187.373 25.1526Z" fill="white"/>
</svg>
