<svg width="202" height="20" viewBox="0 0 202 20" fill="none" xmlns="http://www.w3.org/2000/svg">
<path opacity="0.4" d="M0.82 14.0625V1.0625H2.77V6.6525H9.66V1.0625H11.61V14.0625H9.66V8.4725H2.77V14.0625H0.82ZM23.6919 14.0625L23.4319 12.5025H23.3019C23.0592 12.8492 22.7472 13.1525 22.3659 13.4125C21.5685 14.0192 20.5372 14.3225 19.2719 14.3225C17.9199 14.3225 16.8192 13.9498 15.9699 13.2045C15.1379 12.4592 14.7219 11.4885 14.7219 10.2925C14.7219 8.9925 15.1465 7.9785 15.9959 7.2505C16.8625 6.50517 18.1712 6.1325 19.9219 6.1325H23.4319V5.7425C23.4319 4.7545 23.1545 3.99183 22.5999 3.4545C22.0625 2.89983 21.2999 2.6225 20.3119 2.6225C19.3759 2.6225 18.6132 2.83917 18.0239 3.2725C17.4519 3.6885 17.1312 4.2085 17.0619 4.8325H15.1119C15.1812 3.72317 15.6752 2.7785 16.5939 1.9985C17.5299 1.20117 18.7692 0.802499 20.3119 0.802499C21.8892 0.802499 23.1285 1.23583 24.0299 2.1025C24.9312 2.96917 25.3819 4.1825 25.3819 5.7425V14.0625H23.6919ZM23.4319 8.4725V7.9525H19.9219C18.8125 7.9525 17.9892 8.16917 17.4519 8.6025C16.9319 9.03583 16.6719 9.59917 16.6719 10.2925C16.6719 10.9685 16.8972 11.5058 17.3479 11.9045C17.7985 12.3032 18.4399 12.5025 19.2719 12.5025C20.5719 12.5025 21.5859 12.1472 22.3139 11.4365C23.0592 10.7085 23.4319 9.7205 23.4319 8.4725ZM27.989 10.0325H29.939C29.939 10.7258 30.2163 11.3152 30.771 11.8005C31.343 12.2685 32.1057 12.5025 33.059 12.5025C34.1163 12.5025 34.8963 12.3118 35.399 11.9305C35.919 11.5492 36.179 11.0465 36.179 10.4225C36.179 9.81583 35.919 9.32183 35.399 8.9405C34.879 8.54183 34.1423 8.3425 33.189 8.3425H32.019V6.6525H33.189C34.073 6.6525 34.749 6.46183 35.217 6.0805C35.685 5.68183 35.919 5.17917 35.919 4.5725C35.919 4.01783 35.6763 3.5585 35.191 3.1945C34.7057 2.81317 33.995 2.6225 33.059 2.6225C32.1577 2.6225 31.4557 2.83917 30.953 3.2725C30.4503 3.70583 30.199 4.26917 30.199 4.9625H28.249C28.249 3.78383 28.6997 2.79583 29.601 1.9985C30.5023 1.20117 31.655 0.802499 33.059 0.802499C34.567 0.802499 35.7457 1.1665 36.595 1.8945C37.4443 2.60517 37.869 3.5065 37.869 4.5985C37.869 5.49983 37.5223 6.24517 36.829 6.8345C36.4997 7.11183 36.153 7.31117 35.789 7.4325V7.5625C36.4303 7.7185 36.9763 8.0565 37.427 8.5765C37.895 9.07917 38.129 9.70317 38.129 10.4485C38.129 11.5752 37.6783 12.5025 36.777 13.2305C35.8757 13.9585 34.6363 14.3225 33.059 14.3225C31.5337 14.3225 30.303 13.9152 29.367 13.1005C28.4483 12.2685 27.989 11.2458 27.989 10.0325ZM49.438 14.0625L49.178 12.5025H49.048C48.8053 12.8492 48.4933 13.1525 48.112 13.4125C47.3146 14.0192 46.2833 14.3225 45.018 14.3225C43.666 14.3225 42.5653 13.9498 41.716 13.2045C40.884 12.4592 40.468 11.4885 40.468 10.2925C40.468 8.9925 40.8926 7.9785 41.742 7.2505C42.6086 6.50517 43.9173 6.1325 45.668 6.1325H49.178V5.7425C49.178 4.7545 48.9006 3.99183 48.346 3.4545C47.8086 2.89983 47.046 2.6225 46.058 2.6225C45.122 2.6225 44.3593 2.83917 43.77 3.2725C43.198 3.6885 42.8773 4.2085 42.808 4.8325H40.858C40.9273 3.72317 41.4213 2.7785 42.34 1.9985C43.276 1.20117 44.5153 0.802499 46.058 0.802499C47.6353 0.802499 48.8746 1.23583 49.776 2.1025C50.6773 2.96917 51.128 4.1825 51.128 5.7425V14.0625H49.438ZM49.178 8.4725V7.9525H45.668C44.5586 7.9525 43.7353 8.16917 43.198 8.6025C42.678 9.03583 42.418 9.59917 42.418 10.2925C42.418 10.9685 42.6433 11.5058 43.094 11.9045C43.5446 12.3032 44.186 12.5025 45.018 12.5025C46.318 12.5025 47.332 12.1472 48.06 11.4365C48.8053 10.7085 49.178 9.7205 49.178 8.4725ZM52.9551 17.1825V12.2425H53.2151C53.8044 12.2425 54.2377 12.1038 54.5151 11.8265C54.8097 11.5492 54.9831 11.0812 55.0351 10.4225L55.8151 1.0625H64.5251V12.2425H66.3451V17.1825H64.3951V14.0625H54.9051V17.1825H52.9551ZM56.3351 12.2425H62.5751V2.8825H57.6351L56.9851 10.4225C56.9157 11.1332 56.7944 11.6185 56.6211 11.8785C56.5517 12.0172 56.4564 12.1385 56.3351 12.2425ZM67.6491 19.2625H79.0891V17.1825H67.6491V19.2625ZM81.8191 14.0625H90.1391V11.9825H83.8991V8.8625H90.1391V6.7825H83.8991V3.6625H90.1391V1.5825H81.8191V14.0625ZM92.2191 6.7825V3.6625H90.1391V6.7825H92.2191ZM92.2191 11.9825V8.8625H90.1391V11.9825H92.2191ZM94.5632 19.2625H106.003V17.1825H94.5632V19.2625ZM108.733 14.0625H110.813V3.6625H117.053V14.0625H119.133V1.5825H108.733V14.0625ZM123.028 14.0625H125.108V11.9825H127.188V9.9025H125.108V1.5825H123.028V14.0625ZM131.348 14.0625H133.428V1.5825H131.348V5.7425H129.268V7.8225H131.348V14.0625ZM127.188 9.9025H129.268V7.8225H127.188V9.9025ZM147.723 1.5825H145.643V3.6625H147.723V1.5825ZM137.323 14.0625H139.403V8.8625H143.563V6.7825H139.403V1.5825H137.323V14.0625ZM145.643 6.7825V3.6625H143.563V6.7825H145.643ZM143.563 11.9825H145.643V8.8625H143.563V11.9825ZM145.643 14.0625H147.723V11.9825H145.643V14.0625ZM152.699 3.6625H158.939V1.5825H152.699V3.6625ZM158.939 5.7425H161.019V3.6625H158.939V5.7425ZM150.619 11.9825H152.699V3.6625H150.619V11.9825ZM161.019 9.9025H158.939V11.9825H161.019V9.9025ZM152.699 14.0625H158.939V11.9825H152.699V14.0625ZM165.725 3.6625H173.005V1.5825H165.725V3.6625ZM163.645 11.9825H165.725V8.8625H175.085V3.6625H173.005V6.7825H165.725V3.6625H163.645V11.9825ZM173.005 11.9825H175.085V9.9025H173.005V11.9825ZM165.725 14.0625H173.005V11.9825H165.725V14.0625ZM186.278 14.0625H188.358V1.5825H181.078V3.6625H186.278V14.0625ZM181.078 11.9825V3.6625H178.998V11.9825H181.078ZM176.918 14.0625H178.998V11.9825H176.918V14.0625ZM192.268 14.0625H199.548V11.9825H194.348V7.8225H199.548V5.7425H194.348V1.5825H192.268V14.0625ZM201.628 11.9825V7.8225H199.548V11.9825H201.628Z" fill="black"/>
</svg>
