<svg width="202" height="20" viewBox="0 0 202 20" fill="none" xmlns="http://www.w3.org/2000/svg">
<path d="M0.82 14V1H2.77V6.59H9.66V1H11.61V14H9.66V8.41H2.77V14H0.82ZM23.6919 14L23.4319 12.44H23.3019C23.0592 12.7867 22.7472 13.09 22.3659 13.35C21.5685 13.9567 20.5372 14.26 19.2719 14.26C17.9199 14.26 16.8192 13.8873 15.9699 13.142C15.1379 12.3967 14.7219 11.426 14.7219 10.23C14.7219 8.93 15.1465 7.916 15.9959 7.188C16.8625 6.44267 18.1712 6.07 19.9219 6.07H23.4319V5.68C23.4319 4.692 23.1545 3.92933 22.5999 3.392C22.0625 2.83733 21.2999 2.56 20.3119 2.56C19.3759 2.56 18.6132 2.77667 18.0239 3.21C17.4519 3.626 17.1312 4.146 17.0619 4.77H15.1119C15.1812 3.66067 15.6752 2.716 16.5939 1.936C17.5299 1.13867 18.7692 0.739999 20.3119 0.739999C21.8892 0.739999 23.1285 1.17333 24.0299 2.04C24.9312 2.90667 25.3819 4.12 25.3819 5.68V14H23.6919ZM23.4319 8.41V7.89H19.9219C18.8125 7.89 17.9892 8.10667 17.4519 8.54C16.9319 8.97333 16.6719 9.53667 16.6719 10.23C16.6719 10.906 16.8972 11.4433 17.3479 11.842C17.7985 12.2407 18.4399 12.44 19.2719 12.44C20.5719 12.44 21.5859 12.0847 22.3139 11.374C23.0592 10.646 23.4319 9.658 23.4319 8.41ZM27.989 9.97H29.939C29.939 10.6633 30.2163 11.2527 30.771 11.738C31.343 12.206 32.1057 12.44 33.059 12.44C34.1163 12.44 34.8963 12.2493 35.399 11.868C35.919 11.4867 36.179 10.984 36.179 10.36C36.179 9.75333 35.919 9.25933 35.399 8.878C34.879 8.47933 34.1423 8.28 33.189 8.28H32.019V6.59H33.189C34.073 6.59 34.749 6.39933 35.217 6.018C35.685 5.61933 35.919 5.11667 35.919 4.51C35.919 3.95533 35.6763 3.496 35.191 3.132C34.7057 2.75067 33.995 2.56 33.059 2.56C32.1577 2.56 31.4557 2.77667 30.953 3.21C30.4503 3.64333 30.199 4.20667 30.199 4.9H28.249C28.249 3.72133 28.6997 2.73333 29.601 1.936C30.5023 1.13867 31.655 0.739999 33.059 0.739999C34.567 0.739999 35.7457 1.104 36.595 1.832C37.4443 2.54267 37.869 3.444 37.869 4.536C37.869 5.43733 37.5223 6.18267 36.829 6.772C36.4997 7.04933 36.153 7.24867 35.789 7.37V7.5C36.4303 7.656 36.9763 7.994 37.427 8.514C37.895 9.01667 38.129 9.64067 38.129 10.386C38.129 11.5127 37.6783 12.44 36.777 13.168C35.8757 13.896 34.6363 14.26 33.059 14.26C31.5337 14.26 30.303 13.8527 29.367 13.038C28.4483 12.206 27.989 11.1833 27.989 9.97ZM49.438 14L49.178 12.44H49.048C48.8053 12.7867 48.4933 13.09 48.112 13.35C47.3146 13.9567 46.2833 14.26 45.018 14.26C43.666 14.26 42.5653 13.8873 41.716 13.142C40.884 12.3967 40.468 11.426 40.468 10.23C40.468 8.93 40.8926 7.916 41.742 7.188C42.6086 6.44267 43.9173 6.07 45.668 6.07H49.178V5.68C49.178 4.692 48.9006 3.92933 48.346 3.392C47.8086 2.83733 47.046 2.56 46.058 2.56C45.122 2.56 44.3593 2.77667 43.77 3.21C43.198 3.626 42.8773 4.146 42.808 4.77H40.858C40.9273 3.66067 41.4213 2.716 42.34 1.936C43.276 1.13867 44.5153 0.739999 46.058 0.739999C47.6353 0.739999 48.8746 1.17333 49.776 2.04C50.6773 2.90667 51.128 4.12 51.128 5.68V14H49.438ZM49.178 8.41V7.89H45.668C44.5586 7.89 43.7353 8.10667 43.198 8.54C42.678 8.97333 42.418 9.53667 42.418 10.23C42.418 10.906 42.6433 11.4433 43.094 11.842C43.5446 12.2407 44.186 12.44 45.018 12.44C46.318 12.44 47.332 12.0847 48.06 11.374C48.8053 10.646 49.178 9.658 49.178 8.41ZM52.9551 17.12V12.18H53.2151C53.8044 12.18 54.2377 12.0413 54.5151 11.764C54.8097 11.4867 54.9831 11.0187 55.0351 10.36L55.8151 1H64.5251V12.18H66.3451V17.12H64.3951V14H54.9051V17.12H52.9551ZM56.3351 12.18H62.5751V2.82H57.6351L56.9851 10.36C56.9157 11.0707 56.7944 11.556 56.6211 11.816C56.5517 11.9547 56.4564 12.076 56.3351 12.18ZM67.6491 19.2H79.0891V17.12H67.6491V19.2ZM81.8191 14H90.1391V11.92H83.8991V8.8H90.1391V6.72H83.8991V3.6H90.1391V1.52H81.8191V14ZM92.2191 6.72V3.6H90.1391V6.72H92.2191ZM92.2191 11.92V8.8H90.1391V11.92H92.2191ZM94.5632 19.2H106.003V17.12H94.5632V19.2ZM108.733 14H110.813V3.6H117.053V14H119.133V1.52H108.733V14ZM123.028 14H125.108V11.92H127.188V9.84H125.108V1.52H123.028V14ZM131.348 14H133.428V1.52H131.348V5.68H129.268V7.76H131.348V14ZM127.188 9.84H129.268V7.76H127.188V9.84ZM147.723 1.52H145.643V3.6H147.723V1.52ZM137.323 14H139.403V8.8H143.563V6.72H139.403V1.52H137.323V14ZM145.643 6.72V3.6H143.563V6.72H145.643ZM143.563 11.92H145.643V8.8H143.563V11.92ZM145.643 14H147.723V11.92H145.643V14ZM152.699 3.6H158.939V1.52H152.699V3.6ZM158.939 5.68H161.019V3.6H158.939V5.68ZM150.619 11.92H152.699V3.6H150.619V11.92ZM161.019 9.84H158.939V11.92H161.019V9.84ZM152.699 14H158.939V11.92H152.699V14ZM165.725 3.6H173.005V1.52H165.725V3.6ZM163.645 11.92H165.725V8.8H175.085V3.6H173.005V6.72H165.725V3.6H163.645V11.92ZM173.005 11.92H175.085V9.84H173.005V11.92ZM165.725 14H173.005V11.92H165.725V14ZM186.278 14H188.358V1.52H181.078V3.6H186.278V14ZM181.078 11.92V3.6H178.998V11.92H181.078ZM176.918 14H178.998V11.92H176.918V14ZM192.268 14H199.548V11.92H194.348V7.76H199.548V5.68H194.348V1.52H192.268V14ZM201.628 11.92V7.76H199.548V11.92H201.628Z" fill="white"/>
</svg>
