<svg width="135" height="12" viewBox="0 0 135 12" fill="none" xmlns="http://www.w3.org/2000/svg">
<path d="M56.3867 8.33341H61.9423V6.9445H57.7756V4.86115H61.9423V3.47225H57.7756V1.3889H61.9423V0H56.3867V8.33341ZM63.3312 3.47225V1.3889H61.9423V3.47225H63.3312ZM63.3312 6.9445V4.86115H61.9423V6.9445H63.3312Z" fill="white"/>
<path d="M64.7228 11.8057H72.3618V10.4168H68.5423H64.7228V11.8057Z" fill="white"/>
<path d="M74.0111 8.33341H75.4V1.3889H79.5667V8.33341H80.9556V0H74.0111V8.33341Z" fill="white"/>
<path d="M83.3828 8.33341H84.7717V6.9445H86.1606V5.5556H84.7717V0H83.3828V8.33341ZM88.9384 8.33341H90.3273V0H88.9384V2.7778H87.5495V4.1667H88.9384V8.33341ZM86.1606 5.5556H87.5495V4.1667H86.1606V5.5556Z" fill="white"/>
<path d="M99.699 0H98.3101V1.3889H99.699V0ZM92.7545 8.33341H94.1434V4.86115H96.9212V3.47225H94.1434V0H92.7545V8.33341ZM98.3101 3.47225V1.3889H96.9212V3.47225H98.3101ZM96.9212 6.9445H98.3101V4.86115H96.9212V6.9445ZM98.3101 8.33341H99.699V6.9445H98.3101V8.33341Z" fill="white"/>
<path d="M102.848 1.3889H107.015V0H102.848V1.3889ZM107.015 2.7778H108.404V1.3889H107.015V2.7778ZM101.459 6.9445H102.848V1.3889H101.459V6.9445ZM108.404 5.5556H107.015V6.9445H108.404V5.5556ZM102.848 8.33341H107.015V6.9445H102.848V8.33341Z" fill="white"/>
<path d="M111.372 1.3889H116.233V0H111.372V1.3889ZM109.983 6.9445H111.372V4.86115H117.622V1.3889H116.233V3.47225H111.372V1.3889H109.983V6.9445ZM116.233 6.9445H117.622V5.5556H116.233V6.9445ZM111.372 8.33341H116.233V6.9445H111.372V8.33341Z" fill="white"/>
<path d="M124.923 8.33341H126.312V0H121.451V1.3889H124.923V8.33341ZM121.451 6.9445V1.3889H120.062V6.9445H121.451ZM118.673 8.33341H120.062V6.9445H118.673V8.33341Z" fill="white"/>
<path d="M128.749 8.33341H133.61V6.9445H130.138V4.1667H133.61V2.7778H130.138V0H128.749V8.33341ZM134.999 6.9445V4.1667H133.61V6.9445H134.999Z" fill="white"/>
<path d="M47 11.8069H54.639V10.418H50.8195H47V11.8069Z" fill="white"/>
<path d="M0 8.85424V0.173613H1.30209V3.90628H5.90283V0.173613H7.20492V8.85424H5.90283V5.12157H1.30209V8.85424H0Z" fill="white"/>
<path d="M15.4461 8.85424L15.2725 7.81257H15.1857C15.0236 8.04405 14.8153 8.2466 14.5607 8.42021C14.0283 8.82531 13.3396 9.02786 12.4947 9.02786C11.5919 9.02786 10.8569 8.77901 10.2898 8.28132C9.73424 7.78363 9.45646 7.13548 9.45646 6.33686C9.45646 5.4688 9.74003 4.79171 10.3072 4.30559C10.8859 3.8079 11.7597 3.55906 12.9287 3.55906H15.2725V3.29864C15.2725 2.63891 15.0873 2.12965 14.7169 1.77085C14.3581 1.40048 13.8489 1.21529 13.1891 1.21529C12.5641 1.21529 12.0549 1.35997 11.6613 1.64932C11.2794 1.9271 11.0653 2.27433 11.019 2.691H9.71688C9.76318 1.95025 10.093 1.31946 10.7065 0.798619C11.3315 0.266206 12.159 0 13.1891 0C14.2424 0 15.0699 0.289354 15.6718 0.868064C16.2736 1.44677 16.5746 2.25696 16.5746 3.29864V8.85424H15.4461ZM15.2725 5.12157V4.77435H12.9287C12.188 4.77435 11.6382 4.91902 11.2794 5.20838C10.9322 5.49773 10.7586 5.87389 10.7586 6.33686C10.7586 6.78825 10.909 7.14705 11.2099 7.41326C11.5109 7.67947 11.9391 7.81257 12.4947 7.81257C13.3627 7.81257 14.0398 7.5753 14.526 7.10076C15.0236 6.61464 15.2725 5.95491 15.2725 5.12157Z" fill="white"/>
<path d="M18.4891 6.16325H19.7912C19.7912 6.62622 19.9763 7.01974 20.3467 7.34381C20.7287 7.65632 21.2379 7.81257 21.8745 7.81257C22.5805 7.81257 23.1014 7.68525 23.437 7.43062C23.7843 7.17599 23.9579 6.84034 23.9579 6.42367C23.9579 6.01857 23.7843 5.68871 23.437 5.43408C23.0898 5.16787 22.5979 5.03477 21.9613 5.03477H21.1801V3.90628H21.9613C22.5516 3.90628 23.003 3.77897 23.3155 3.52434C23.628 3.25813 23.7843 2.92248 23.7843 2.51738C23.7843 2.14701 23.6222 1.84029 23.2981 1.59724C22.9741 1.3426 22.4995 1.21529 21.8745 1.21529C21.2727 1.21529 20.8039 1.35997 20.4683 1.64932C20.1326 1.93867 19.9648 2.31484 19.9648 2.7778H18.6627C18.6627 1.99076 18.9636 1.33103 19.5655 0.798619C20.1673 0.266206 20.937 0 21.8745 0C22.8815 0 23.6685 0.243058 24.2356 0.729173C24.8028 1.20371 25.0863 1.80557 25.0863 2.53474C25.0863 3.1366 24.8549 3.63429 24.3919 4.02781C24.172 4.213 23.9405 4.3461 23.6974 4.42712V4.51393C24.1257 4.6181 24.4903 4.84379 24.7912 5.19102C25.1037 5.52667 25.26 5.94334 25.26 6.44103C25.26 7.19335 24.959 7.81257 24.3572 8.29868C23.7553 8.7848 22.9278 9.02786 21.8745 9.02786C20.856 9.02786 20.0342 8.75586 19.4092 8.21188C18.7958 7.65632 18.4891 6.97344 18.4891 6.16325Z" fill="white"/>
<path d="M32.985 8.85424L32.8114 7.81257H32.7246C32.5626 8.04405 32.3543 8.2466 32.0996 8.42021C31.5672 8.82531 30.8785 9.02786 30.0336 9.02786C29.1308 9.02786 28.3959 8.77901 27.8287 8.28132C27.2732 7.78363 26.9954 7.13548 26.9954 6.33686C26.9954 5.4688 27.279 4.79171 27.8461 4.30559C28.4248 3.8079 29.2987 3.55906 30.4677 3.55906H32.8114V3.29864C32.8114 2.63891 32.6262 2.12965 32.2559 1.77085C31.8971 1.40048 31.3878 1.21529 30.7281 1.21529C30.1031 1.21529 29.5938 1.35997 29.2003 1.64932C28.8183 1.9271 28.6042 2.27433 28.5579 2.691H27.2558C27.3021 1.95025 27.632 1.31946 28.2454 0.798619C28.8704 0.266206 29.698 0 30.7281 0C31.7813 0 32.6089 0.289354 33.2107 0.868064C33.8126 1.44677 34.1135 2.25696 34.1135 3.29864V8.85424H32.985ZM32.8114 5.12157V4.77435H30.4677C29.7269 4.77435 29.1771 4.91902 28.8183 5.20838C28.4711 5.49773 28.2975 5.87389 28.2975 6.33686C28.2975 6.78825 28.448 7.14705 28.7489 7.41326C29.0498 7.67947 29.4781 7.81257 30.0336 7.81257C30.9017 7.81257 31.5788 7.5753 32.0649 7.10076C32.5626 6.61464 32.8114 5.95491 32.8114 5.12157Z" fill="white"/>
<path d="M35.5072 10.9376V7.63896H35.6808C36.0743 7.63896 36.3637 7.54636 36.5489 7.36118C36.7456 7.17599 36.8614 6.86349 36.8961 6.42367L37.4169 0.173613H43.2329V7.63896H44.4482V10.9376H43.1461V8.85424H36.8093V10.9376H35.5072ZM37.7641 7.63896H41.9308V1.3889H38.6322L38.1982 6.42367C38.1519 6.89821 38.0709 7.22229 37.9551 7.3959C37.9088 7.48849 37.8452 7.56951 37.7641 7.63896Z" fill="white"/>
</svg>
