<svg width="250" height="23" viewBox="0 0 250 23" fill="none" xmlns="http://www.w3.org/2000/svg">
<path fill-rule="evenodd" clip-rule="evenodd" d="M28.4984 16.7978L28.1859 14.8745L28.0257 14.8739C27.725 15.2998 27.3391 15.6719 26.868 15.9904C25.8827 16.7338 24.6106 17.1024 23.0517 17.0961C21.386 17.0894 20.0319 16.6248 18.9892 15.7024C17.9679 14.78 17.4602 13.5821 17.4661 12.1086C17.4726 10.507 18.0008 9.25985 19.0508 8.36717C20.1222 7.45322 21.7364 7.0006 23.8932 7.00929L28.2175 7.02672L28.2194 6.54624C28.2243 5.32902 27.8864 4.38804 27.2058 3.72329C26.5465 3.03727 25.6083 2.69181 24.3911 2.68691C23.2379 2.68226 22.2972 2.94541 21.569 3.47635C20.8623 3.98602 20.4646 4.62506 20.3761 5.39349L17.9737 5.38381C18.0646 4.01745 18.6779 2.85608 19.8136 1.89968C20.9707 0.922013 22.4996 0.43701 24.4001 0.444669C26.3434 0.452501 27.8681 0.992521 28.9742 2.06473C30.0804 3.13694 30.6296 4.634 30.6218 6.55592L30.5805 16.8061L28.4984 16.7978ZM28.2059 9.90959L28.2085 9.26895L23.8841 9.25152C22.5174 9.24602 21.502 9.50886 20.8379 10.0401C20.1951 10.5713 19.872 11.2641 19.8685 12.1183C19.8652 12.9511 20.1401 13.6142 20.6933 14.1076C21.2466 14.601 22.0357 14.8498 23.0607 14.8539C24.6623 14.8603 25.9134 14.4276 26.8138 13.5557C27.7356 12.6625 28.1997 11.4471 28.2059 9.90959ZM0 16.6829L0.0645472 0.666919L2.46694 0.676601L2.43919 7.56347L10.9277 7.59768L10.9554 0.710811L13.3578 0.720493L13.2933 16.7365L10.8909 16.7268L10.9186 9.83992L2.43015 9.80571L2.4024 16.6926L0 16.6829ZM36.5352 11.8651L34.1328 11.8554C34.1268 13.3503 34.6876 14.6125 35.8153 15.642C36.9644 16.6504 38.4785 17.1583 40.3577 17.1659C42.301 17.1737 43.8297 16.7314 44.9437 15.839C46.0578 14.9466 46.6176 13.8063 46.6232 12.4183C46.6269 11.5 46.3417 10.7301 45.7676 10.1085C45.215 9.46562 44.544 9.0465 43.7547 8.85112L43.7553 8.69096C44.2043 8.54328 44.6324 8.29943 45.0395 7.95939C45.8967 7.23677 46.3274 6.32024 46.3319 5.2098C46.3373 3.86446 45.8186 2.75191 44.7758 1.87215C43.733 0.97104 42.2827 0.516739 40.4249 0.509252C38.6951 0.502281 37.2731 0.987715 36.1587 1.96555C35.0443 2.94339 34.4841 4.15837 34.4783 5.61049L36.8807 5.62017C36.8841 4.76598 37.1966 4.0732 37.818 3.54183C38.4394 3.01046 39.3054 2.74701 40.4158 2.75149C41.569 2.75614 42.4436 2.99457 43.0396 3.46678C43.6357 3.91764 43.9324 4.48474 43.9297 5.16809C43.9266 5.9155 43.6359 6.53362 43.0573 7.02246C42.4788 7.48993 41.6451 7.72148 40.556 7.71709L39.1145 7.71128L39.1061 9.79336L40.5476 9.79917C41.7221 9.8039 42.6287 10.0531 43.2673 10.5469C43.9061 11.0193 44.2239 11.6292 44.2209 12.3766C44.2178 13.1453 43.895 13.7633 43.2525 14.2306C42.6313 14.6979 41.6694 14.9289 40.3668 14.9236C39.1923 14.9189 38.2538 14.6268 37.5514 14.0474C36.8705 13.4467 36.5317 12.7193 36.5352 11.8651ZM60.8582 16.9282L60.5457 15.005L60.3855 15.0043C60.0848 15.4302 59.6989 15.8024 59.2278 16.1208C58.2425 16.8642 56.9704 17.2328 55.4115 17.2265C53.7458 17.2198 52.3917 16.7552 51.349 15.8328C50.3277 14.9104 49.82 13.7125 49.8259 12.239C49.8324 10.6374 50.3606 9.39026 51.4106 8.49758C52.482 7.58364 54.0961 7.13101 56.253 7.1397L60.5773 7.15713L60.5792 6.67665C60.5841 5.45944 60.2462 4.51846 59.5656 3.85371C58.9063 3.16769 57.9681 2.82223 56.7509 2.81732C55.5977 2.81268 54.657 3.07582 53.9288 3.60676C53.2221 4.11643 52.8244 4.75548 52.7359 5.5239L50.3335 5.51422C50.4244 4.14787 51.0377 2.98649 52.1734 2.0301C53.3305 1.05243 54.8593 0.567425 56.7599 0.575085C58.7032 0.582917 60.2279 1.12294 61.334 2.19514C62.4402 3.26735 62.9894 4.76441 62.9816 6.68633L62.9403 16.9366L60.8582 16.9282ZM60.5657 10.04L60.5682 9.39937L56.2439 9.38194C54.8772 9.37643 53.8618 9.63928 53.1977 10.1705C52.5549 10.7018 52.2318 11.3945 52.2283 12.2487C52.225 13.0815 52.4999 13.7446 53.0531 14.238C53.6064 14.7314 54.3955 14.9802 55.4205 14.9843C57.0221 14.9908 58.2731 14.558 59.1736 13.6861C60.0954 12.7929 60.5595 11.5775 60.5657 10.04ZM66.0968 14.707L66.0723 20.7931L68.4747 20.8028L68.4902 16.9589L80.1819 17.006L80.1664 20.8499L82.5688 20.8596L82.5933 14.7735L80.3511 14.7645L80.4066 0.990712L69.6759 0.947465L68.6684 12.4751C68.6011 13.2863 68.3852 13.862 68.0208 14.2022C67.6778 14.5425 67.1432 14.7112 66.4172 14.7083L66.0968 14.707ZM77.9487 14.7548L70.261 14.7238C70.411 14.5963 70.5291 14.4473 70.6152 14.2768C70.83 13.9573 70.9819 13.36 71.0708 12.4848L71.9091 3.19874L77.9951 3.22327L77.9487 14.7548ZM114.872 16.1849L104.622 16.1436L104.684 0.768229L114.934 0.809539L114.924 3.37209L107.236 3.34111L107.22 7.18495L114.908 7.21593L114.898 9.77849L107.21 9.7475L107.195 13.5913L114.882 13.6223L114.872 16.1849ZM114.882 13.6223L114.898 9.77849L117.46 9.78881L117.445 13.6326L114.882 13.6223ZM114.908 7.21593L114.924 3.37209L117.486 3.38242L117.471 7.22626L114.908 7.21593ZM134.07 22.6687L119.976 22.6119L119.987 20.0494L127.034 20.0778L134.081 20.1062L134.07 22.6687ZM137.139 16.2746L139.702 16.2849L139.753 3.47216L147.441 3.50314L147.389 16.3159L149.952 16.3263L150.014 0.950918L137.201 0.89928L137.139 16.2746ZM156.993 16.3546L154.43 16.3443L154.492 0.968966L157.055 0.979293L157.013 11.2295L159.576 11.2398L159.566 13.8024L157.003 13.7921L156.993 16.3546ZM162.149 8.68762L162.139 11.2502L159.576 11.2398L159.586 8.67729L162.149 8.68762ZM162.149 8.68762L162.159 6.12506L164.722 6.13539L164.742 1.01028L167.305 1.0206L167.243 16.3959L164.68 16.3856L164.711 8.69795L162.149 8.68762ZM184.596 1.09029L182.033 1.07996L182.023 3.64252L179.461 3.63219L179.445 7.47602L174.32 7.45537L174.346 1.04898L171.783 1.03865L171.721 16.414L174.284 16.4243L174.31 10.0179L179.435 10.0386L179.419 13.8824L181.982 13.8927L181.971 16.4553L184.534 16.4656L184.544 13.9031L181.982 13.8927L181.997 10.0489L179.435 10.0386L179.445 7.47602L182.008 7.48635L182.023 3.64252L184.586 3.65284L184.596 1.09029ZM198.084 3.70724L190.396 3.67626L190.406 1.11371L198.094 1.14469L198.084 3.70724ZM198.084 3.70724L200.646 3.71757L200.636 6.28013L198.073 6.2698L198.084 3.70724ZM190.355 13.9265L190.396 3.67626L187.833 3.66593L187.792 13.9162L190.355 13.9265ZM198.042 13.9575L190.355 13.9265L190.344 16.489L198.032 16.52L198.042 13.9575ZM198.042 13.9575L200.605 13.9678L200.615 11.4052L198.053 11.3949L198.042 13.9575ZM206.123 3.73964L215.092 3.77579L215.076 7.61962L206.107 7.58348L206.123 3.73964ZM206.082 13.9899L203.519 13.9795L203.56 3.72932L206.123 3.73964L206.133 1.17709L215.102 1.21323L215.092 3.77579L217.654 3.78612L217.629 10.1925L206.097 10.146L206.082 13.9899ZM215.051 14.026L215.04 16.5886L206.071 16.5524L206.082 13.9899L215.051 14.026ZM215.051 14.026L217.613 14.0363L217.623 11.4738L215.061 11.4635L215.051 14.026ZM233.636 16.6635L231.073 16.6532L231.125 3.8404L224.718 3.81458L224.729 1.25203L233.698 1.28818L233.636 16.6635ZM222.114 14.0545L222.156 3.80426L224.718 3.81458L224.677 14.0648L222.114 14.0545ZM222.114 14.0545L222.104 16.617L219.541 16.6067L219.552 14.0442L222.114 14.0545ZM238.133 16.6816L247.101 16.7178L247.112 14.1552L249.674 14.1656L249.695 9.04045L247.132 9.03012L247.143 6.46756L240.736 6.44174L240.757 1.31663L238.194 1.3063L238.133 16.6816ZM247.132 9.03012L247.112 14.1552L240.705 14.1294L240.726 9.0043L247.132 9.03012ZM87.2652 22.4828L101.359 22.5396L101.37 19.977L94.3226 19.9486L87.2756 19.9202L87.2652 22.4828Z" fill="white"/>
</svg>
