<svg width="228" height="21" viewBox="0 0 228 21" fill="none" xmlns="http://www.w3.org/2000/svg">
<path fill-rule="evenodd" clip-rule="evenodd" d="M26.0224 15.4524L25.737 13.6351L25.5907 13.6345C25.3162 14.0369 24.9638 14.3886 24.5336 14.6895C23.6339 15.392 22.4723 15.7403 21.0489 15.7343C19.528 15.728 18.2914 15.289 17.3394 14.4173C16.4068 13.5458 15.9432 12.4138 15.9486 11.0215C15.9545 9.50814 16.4368 8.3297 17.3956 7.48619C18.3739 6.62259 19.8478 6.19489 21.8172 6.20311L25.7658 6.21957L25.7676 5.76556C25.7721 4.61539 25.4636 3.72624 24.842 3.09811C24.2401 2.44988 23.3834 2.12345 22.2719 2.11881C21.2189 2.11442 20.36 2.36307 19.6951 2.86477C19.0497 3.34637 18.6866 3.95021 18.6058 4.67631L16.4121 4.66716C16.4951 3.37607 17.0551 2.27867 18.0921 1.37495C19.1487 0.451135 20.5447 -0.0071533 22.2801 8.43952e-05C24.0546 0.00748473 25.4468 0.517759 26.4568 1.53091C27.4669 2.54405 27.9683 3.95865 27.9613 5.77471L27.9235 15.4603L26.0224 15.4524ZM25.7552 8.94365L25.7576 8.3383L21.809 8.32183C20.561 8.31663 19.6339 8.565 19.0274 9.06694C18.4405 9.56896 18.1454 10.2235 18.1423 11.0307C18.1392 11.8176 18.3903 12.4442 18.8954 12.9104C19.4006 13.3766 20.1212 13.6117 21.0571 13.6156C22.5196 13.6217 23.6619 13.2128 24.4841 12.3889C25.3259 11.5449 25.7496 10.3965 25.7552 8.94365ZM6.10352e-05 15.3439L0.059 0.210092L2.25266 0.219241L2.22732 6.72677L9.97826 6.75909L10.0036 0.251566L12.1973 0.260715L12.1383 15.3945L9.94466 15.3853L9.97001 8.87782L2.21907 8.8455L2.19372 15.353L6.10352e-05 15.3439ZM33.3609 10.7915L31.1672 10.7823C31.1617 12.1948 31.6738 13.3875 32.7035 14.3603C33.7527 15.3131 35.1353 15.7931 36.8513 15.8002C38.6257 15.8076 40.0215 15.3897 41.0388 14.5464C42.0561 13.7032 42.5672 12.6258 42.5723 11.3142C42.5757 10.4465 42.3153 9.71897 41.7911 9.1316C41.2865 8.52414 40.6738 8.1281 39.953 7.94348L39.9536 7.79215C40.3637 7.65261 40.7545 7.42218 41.1263 7.10087C41.9089 6.41806 42.3023 5.55202 42.3064 4.50274C42.3113 3.2315 41.8377 2.18024 40.8854 1.34894C39.9333 0.497461 38.609 0.0681846 36.9126 0.0611095C35.3331 0.0545224 34.0346 0.513217 33.017 1.43719C31.9995 2.36117 31.488 3.50922 31.4827 4.88135L33.6763 4.8905C33.6795 4.08337 33.9648 3.42875 34.5322 2.92665C35.0996 2.42455 35.8903 2.17561 36.9043 2.17984C37.9573 2.18423 38.7559 2.40953 39.3001 2.85573C39.8444 3.28175 40.1154 3.81762 40.1128 4.46333C40.1101 5.16957 39.8446 5.75364 39.3163 6.21555C38.7881 6.65728 38.0267 6.87607 37.0323 6.87192L35.7161 6.86643L35.7084 8.83382L37.0246 8.83931C38.0971 8.84379 38.9249 9.07929 39.5081 9.54583C40.0913 9.9922 40.3816 10.5685 40.3788 11.2747C40.376 12.0012 40.0812 12.5851 39.4945 13.0266C38.9273 13.4682 38.049 13.6865 36.8595 13.6815C35.7871 13.677 34.9301 13.4011 34.2888 12.8536C33.667 12.286 33.3577 11.5986 33.3609 10.7915ZM55.5705 15.5756L55.2851 13.7584L55.1389 13.7577C54.8643 14.1602 54.512 14.5118 54.0818 14.8127C53.1821 15.5152 52.0205 15.8635 50.5971 15.8576C49.0761 15.8512 47.8396 15.4122 46.8875 14.5406C45.955 13.669 45.4914 12.5371 45.4968 11.1447C45.5027 9.63137 45.985 8.45293 46.9438 7.60942C47.9221 6.74582 49.396 6.31812 51.3654 6.32634L55.314 6.34281L55.3158 5.88879C55.3203 4.73862 55.0117 3.84947 54.3902 3.22134C53.7882 2.57311 52.9315 2.24668 51.8201 2.24205C50.7671 2.23765 49.9082 2.48631 49.2432 2.988C48.5979 3.4696 48.2348 4.07344 48.1539 4.79954L45.9603 4.79039C46.0433 3.4993 46.6033 2.4019 47.6403 1.49818C48.6969 0.574367 50.0929 0.116079 51.8283 0.123316C53.6027 0.130717 54.995 0.640991 56.005 1.65414C57.015 2.66729 57.5165 4.08189 57.5094 5.89794L57.4717 15.5836L55.5705 15.5756ZM55.3034 9.06689L55.3058 8.46153L51.3572 8.44507C50.1092 8.43986 49.182 8.68823 48.5756 9.19017C47.9886 9.69219 47.6936 10.3468 47.6905 11.1539C47.6874 11.9409 47.9384 12.5674 48.4436 13.0337C48.9488 13.4999 49.6694 13.7349 50.6053 13.7388C52.0678 13.7449 53.2101 13.336 54.0323 12.5121C54.874 11.6681 55.2977 10.5197 55.3034 9.06689ZM60.354 13.4768L60.3316 19.2277L62.5253 19.2368L62.5394 15.6047L73.2152 15.6492L73.2011 19.2813L75.3948 19.2905L75.4172 13.5396L73.3697 13.5311L73.4204 0.516049L63.6221 0.475185L62.7022 11.3678C62.6407 12.1344 62.4436 12.6784 62.1108 12.9999C61.7976 13.3214 61.3095 13.4808 60.6465 13.478L60.354 13.4768ZM71.1761 13.522L64.1564 13.4927C64.2933 13.3722 64.4011 13.2314 64.4797 13.0703C64.6759 12.7684 64.8146 12.204 64.8958 11.377L65.6612 2.60245L71.2185 2.62563L71.1761 13.522ZM104.891 14.8733L95.5317 14.8342L95.5883 0.305821L104.948 0.344856L104.938 2.76626L97.9187 2.73698L97.9046 6.36909L104.924 6.39837L104.915 8.81977L97.8952 8.79049L97.881 12.4226L104.901 12.4519L104.891 14.8733ZM104.901 12.4519L104.915 8.81977L107.255 8.82953L107.241 12.4616L104.901 12.4519ZM104.924 6.39837L104.938 2.76626L107.278 2.77602L107.264 6.40812L104.924 6.39837ZM122.422 21L109.552 20.9463L109.562 18.5249L115.996 18.5518L122.431 18.5786L122.422 21ZM125.224 14.9581L127.564 14.9678L127.611 2.86081L134.631 2.89009L134.583 14.9971L136.923 15.0069L136.98 0.478447L125.28 0.429654L125.224 14.9581ZM143.352 15.0337L141.012 15.0239L141.069 0.495501L143.409 0.50526L143.371 10.1909L145.711 10.2006L145.702 12.622L143.362 12.6123L143.352 15.0337ZM148.06 7.78899L148.051 10.2104L145.711 10.2006L145.721 7.77923L148.06 7.78899ZM148.06 7.78899L148.07 5.36759L150.41 5.37734L150.429 0.534536L152.769 0.544295L152.712 15.0727L150.372 15.063L150.4 7.79875L148.06 7.78899ZM168.557 0.610142L166.217 0.600383L166.208 3.02179L163.868 3.01203L163.854 6.64413L159.174 6.62462L159.198 0.571107L156.858 0.561348L156.801 15.0898L159.141 15.0995L159.165 9.04602L163.844 9.06554L163.83 12.6976L166.17 12.7074L166.161 15.1288L168.501 15.1386L168.51 12.7172L166.17 12.7074L166.184 9.0753L163.844 9.06554L163.854 6.64413L166.194 6.65389L166.208 3.02179L168.548 3.03154L168.557 0.610142ZM180.873 3.08295L173.853 3.05367L173.863 0.632269L180.882 0.661545L180.873 3.08295ZM180.873 3.08295L183.213 3.09271L183.203 5.51411L180.864 5.50435L180.873 3.08295ZM173.816 12.7393L173.853 3.05367L171.513 3.04391L171.476 12.7295L173.816 12.7393ZM180.835 12.7686L173.816 12.7393L173.806 15.1607L180.826 15.19L180.835 12.7686ZM180.835 12.7686L183.175 12.7783L183.185 10.3569L180.845 10.3472L180.835 12.7686ZM188.214 3.11356L196.403 3.14772L196.389 6.77982L188.2 6.74567L188.214 3.11356ZM188.176 12.7992L185.836 12.7894L185.874 3.1038L188.214 3.11356L188.223 0.69216L196.413 0.726315L196.403 3.14772L198.743 3.15748L198.72 9.21099L188.19 9.16707L188.176 12.7992ZM196.366 12.8333L196.356 15.2547L188.167 15.2206L188.176 12.7992L196.366 12.8333ZM196.366 12.8333L198.706 12.8431L198.715 10.4217L196.375 10.4119L196.366 12.8333ZM213.336 15.3256L210.996 15.3158L211.043 3.20877L205.193 3.18438L205.203 0.762974L213.393 0.797129L213.336 15.3256ZM202.816 12.8602L202.854 3.17462L205.193 3.18438L205.156 12.87L202.816 12.8602ZM202.816 12.8602L202.806 15.2816L200.466 15.2719L200.476 12.8505L202.816 12.8602ZM217.442 15.3427L225.632 15.3768L225.641 12.9554L227.981 12.9652L228 8.12238L225.66 8.11262L225.67 5.69122L219.82 5.66682L219.839 0.824013L217.499 0.814255L217.442 15.3427ZM225.66 8.11262L225.641 12.9554L219.792 12.931L219.81 8.08823L225.66 8.11262ZM79.6832 20.8243L92.5526 20.8779L92.5621 18.4565L86.1273 18.4297L79.6926 18.4029L79.6832 20.8243Z" fill="white"/>
</svg>
