<svg width="127" height="16" viewBox="0 0 127 16" fill="none" xmlns="http://www.w3.org/2000/svg">
<g clip-path="url(#clip0_306_2887)">
<path d="M118.273 12.034V5.21986H114.852V3.85815H119.64V12.0397H118.273V12.034ZM114.858 10.6723H113.492V5.21986H114.858V10.6723ZM112.12 12.034V10.6723H113.486V12.034H112.12Z" fill="white"/>
<path d="M0.0284424 15.9036V15.9319H0.056905H7.01316H7.04162V15.9036V14.7121V14.6837H7.01316H1.36618V1.27661H7.00747H7.03593V1.24824V0.0567501V0.0283813H7.00747H0.056905H0.0284424V0.0567501V15.9036Z" fill="white" stroke="white"/>
<path d="M126.972 0.0567501V0.0283813H126.943H119.987H119.958V0.0567501V1.24824V1.27661H119.987H125.628V14.6837H119.987H119.958V14.7121V15.9036V15.9319H119.987H126.943H126.972V15.9036V0.0567501Z" fill="white" stroke="white"/>
<path d="M13.8328 3.85815V5.21986H9.72851V3.85815H13.8328ZM12.4666 10.6723V9.31064H13.8328V7.94893H9.72851V6.58723H13.8328V5.21986H15.199V12.034H13.8328V10.6723H12.4666ZM8.3623 6.58156V5.21986H9.72851V6.58156H8.3623ZM8.3623 10.6723V7.94326H9.72851V10.6723H8.3623ZM9.72851 12.034V10.6723H12.4666V12.034H9.72851Z" fill="white"/>
<path d="M104.133 5.21986V3.85815H108.921V5.21986H104.133ZM102.761 10.6723V5.21986H104.127V7.26241H108.915V5.21986H110.281V8.62979H104.127V10.6723H102.761ZM108.921 10.6723V9.31064H110.287V10.6723H108.921ZM104.133 12.034V10.6723H108.921V12.034H104.133Z" fill="white"/>
<path d="M94.9967 5.21986V3.85815H99.101V5.21986H94.9967ZM99.101 6.58156V5.21986H100.467V6.58156H99.101ZM93.6305 10.6723V5.21986H94.9967V10.6723H93.6305ZM100.467 9.31064V10.6723H99.101V9.31064H100.467ZM94.9967 12.034V10.6723H99.101V12.034H94.9967Z" fill="white"/>
<path d="M23.2653 3.85815V5.21986H19.161V3.85815H23.2653ZM24.6315 7.26241H23.2653V5.21986H24.6315V7.26241ZM17.7948 6.58156V5.21986H19.161V6.58156H17.7948ZM19.8441 8.62979V7.26808H23.2653V8.62979H19.8441ZM24.6315 10.6723H23.2653V8.62979H24.6315V10.6723ZM17.7948 10.6723V9.31064H19.161V10.6723H17.7948ZM19.161 12.034V10.6723H23.2653V12.034H19.161Z" fill="white"/>
<path d="M32.8913 3.85815V5.21986H28.787V3.85815H32.8913ZM31.5251 10.6723V9.31064H32.8913V7.94893H28.787V6.58723H32.8913V5.21986H34.2575V12.034H32.8913V10.6723H31.5251ZM27.4208 6.58156V5.21986H28.787V6.58156H27.4208ZM27.4208 10.6723V7.94326H28.787V10.6723H27.4208ZM28.787 12.034V10.6723H31.5251V12.034H28.787Z" fill="white"/>
<path d="M36.1133 14.0823V10.6723H37.4795V9.31064H38.8457V10.6723H42.9501V5.21986H40.212V9.31064H38.8457V3.85815H44.3163V10.6723H45.6825V14.0823H44.3163V12.0397H37.4795V14.0823H36.1133Z" fill="white"/>
<path d="M51.6083 12.034V3.85815H57.0788V5.21986H52.9745V7.26241H57.0788V8.62411H52.9745V10.6667H57.0788V12.0284H51.6083V12.034ZM58.4507 7.26241H57.0845V5.21986H58.4507V7.26241ZM58.4507 10.6723H57.0845V8.62979H58.4507V10.6723Z" fill="white"/>
<path d="M74.6801 12.0511V3.86951H76.0463V9.32199H77.4125V10.6837H76.0463V12.0454H74.6801V12.0511ZM80.1506 12.0511V7.96029H78.7844V6.59859H80.1506V3.86951H81.5168V12.0511H80.1506ZM77.4125 9.32199V7.96029H78.7787V9.32199H77.4125Z" fill="white"/>
<path d="M91.2112 3.85815V5.21986H89.845V3.85815H91.2112ZM84.3745 12.034V7.94326V3.85815H85.7407V7.26241H88.4788V8.62411H85.7407V12.034H84.3745ZM89.845 7.26241H88.4788V5.21986H89.845V7.26241ZM88.4731 10.6723V8.62979H89.8393V10.6723H88.4731ZM89.845 12.034V10.6723H91.2112V12.034H89.845Z" fill="white"/>
<path fill-rule="evenodd" clip-rule="evenodd" d="M126.926 6.58156H123.579V3.85815H122.213V12.0397H126.932V10.678H123.584V7.94326H126.932V6.58156H126.926Z" fill="white"/>
<path fill-rule="evenodd" clip-rule="evenodd" d="M0.0569458 8.62979H4.1214V12.0397H5.4876V3.85815H4.1214V7.26241H0.0569458V8.62979Z" fill="white"/>
<path fill-rule="evenodd" clip-rule="evenodd" d="M64.9459 3.85815H66.3235V5.21986H66.3121H67.6783V6.53049H66.3121V12.034H64.9459V3.85815ZM70.4164 5.21986H67.6783V3.85815H71.7257V5.21986V12.034H70.4164V5.21986Z" fill="white"/>
</g>
<defs>
<clipPath id="clip0_306_2887">
<rect width="127" height="16" fill="white"/>
</clipPath>
</defs>
</svg>
