<svg width="250" height="23" viewBox="0 0 250 23" fill="none" xmlns="http://www.w3.org/2000/svg">
<path fill-rule="evenodd" clip-rule="evenodd" d="M28.4984 16.3531L28.1859 14.4299L28.0257 14.4293C27.725 14.8551 27.3391 15.2273 26.868 15.5457C25.8827 16.2892 24.6106 16.6578 23.0517 16.6515C21.386 16.6448 20.0319 16.1802 18.9892 15.2577C17.9679 14.3353 17.4602 13.1374 17.4661 11.6639C17.4726 10.0623 18.0008 8.8152 19.0508 7.92253C20.1222 7.00858 21.7364 6.55595 23.8932 6.56465L28.2175 6.58207L28.2194 6.10159C28.2243 4.88438 27.8864 3.9434 27.2058 3.27865C26.5465 2.59263 25.6083 2.24717 24.3911 2.24227C23.2379 2.23762 22.2972 2.50077 21.569 3.03171C20.8623 3.54138 20.4646 4.18042 20.3761 4.94885L17.9737 4.93916C18.0646 3.57281 18.6779 2.41144 19.8136 1.45504C20.9707 0.477372 22.4996 -0.00763132 24.4001 2.82797e-05C26.3434 0.00786001 27.8681 0.54788 28.9742 1.62009C30.0804 2.6923 30.6296 4.18936 30.6218 6.11128L30.5805 16.3615L28.4984 16.3531ZM28.2059 9.46495L28.2085 8.82431L23.8841 8.80688C22.5174 8.80137 21.502 9.06422 20.8379 9.59542C20.1951 10.1267 19.872 10.8194 19.8685 11.6736C19.8652 12.5065 20.1401 13.1696 20.6933 13.663C21.2466 14.1564 22.0357 14.4051 23.0607 14.4093C24.6623 14.4157 25.9134 13.983 26.8138 13.111C27.7356 12.2178 28.1997 11.0025 28.2059 9.46495ZM0 16.2383L0.0645472 0.222278L2.46694 0.23196L2.43919 7.11883L10.9277 7.15304L10.9554 0.26617L13.3578 0.275852L13.2933 16.2918L10.8909 16.2822L10.9186 9.39528L2.43015 9.36107L2.4024 16.2479L0 16.2383ZM36.5352 11.4205L34.1328 11.4108C34.1268 12.9056 34.6876 14.1678 35.8153 15.1974C36.9644 16.2057 38.4785 16.7137 40.3577 16.7212C42.301 16.7291 43.8297 16.2868 44.9437 15.3944C46.0578 14.5019 46.6176 13.3617 46.6232 11.9736C46.6269 11.0554 46.3417 10.2855 45.7676 9.66386C45.215 9.02098 44.544 8.60185 43.7547 8.40648L43.7553 8.24632C44.2043 8.09864 44.6324 7.85478 45.0395 7.51475C45.8967 6.79213 46.3274 5.8756 46.3319 4.76516C46.3373 3.41982 45.8186 2.30727 44.7758 1.42751C43.733 0.526398 42.2827 0.0720983 40.4249 0.0646108C38.6951 0.0576397 37.2731 0.543074 36.1587 1.52091C35.0443 2.49875 34.4841 3.71373 34.4783 5.16584L36.8807 5.17553C36.8841 4.32134 37.1966 3.62856 37.818 3.09719C38.4394 2.56582 39.3054 2.30237 40.4158 2.30685C41.569 2.3115 42.4436 2.54993 43.0396 3.02214C43.6357 3.473 43.9324 4.0401 43.9297 4.72345C43.9266 5.47086 43.6359 6.08898 43.0573 6.57782C42.4788 7.04529 41.6451 7.27684 40.556 7.27245L39.1145 7.26664L39.1061 9.34872L40.5476 9.35453C41.7221 9.35926 42.6287 9.6085 43.2673 10.1022C43.9061 10.5746 44.2239 11.1845 44.2209 11.9319C44.2178 12.7007 43.895 13.3187 43.2525 13.7859C42.6313 14.2532 41.6694 14.4842 40.3668 14.479C39.1923 14.4743 38.2538 14.1822 37.5514 13.6028C36.8705 13.0021 36.5317 12.2747 36.5352 11.4205ZM60.8582 16.4835L60.5457 14.5603L60.3855 14.5597C60.0848 14.9856 59.6989 15.3577 59.2278 15.6761C58.2425 16.4196 56.9704 16.7882 55.4115 16.7819C53.7458 16.7752 52.3917 16.3106 51.349 15.3881C50.3277 14.4658 49.82 13.2678 49.8259 11.7944C49.8324 10.1928 50.3606 8.94562 51.4106 8.05294C52.482 7.139 54.0961 6.68637 56.253 6.69506L60.5773 6.71249L60.5792 6.23201C60.5841 5.0148 60.2462 4.07381 59.5656 3.40907C58.9063 2.72305 57.9681 2.37759 56.7509 2.37268C55.5977 2.36803 54.657 2.63118 53.9288 3.16212C53.2221 3.67179 52.8244 4.31084 52.7359 5.07926L50.3335 5.06958C50.4244 3.70323 51.0377 2.54185 52.1734 1.58545C53.3305 0.607788 54.8593 0.122784 56.7599 0.130444C58.7032 0.138276 60.2279 0.678295 61.334 1.7505C62.4402 2.82271 62.9894 4.31977 62.9816 6.24169L62.9403 16.4919L60.8582 16.4835ZM60.5657 9.59537L60.5682 8.95473L56.2439 8.9373C54.8772 8.93179 53.8618 9.19464 53.1977 9.72583C52.5549 10.2571 52.2318 10.9499 52.2283 11.804C52.225 12.6369 52.4999 13.3 53.0531 13.7934C53.6064 14.2868 54.3955 14.5355 55.4205 14.5397C57.0221 14.5461 58.2731 14.1134 59.1736 13.2415C60.0954 12.3483 60.5595 11.1329 60.5657 9.59537ZM66.0968 14.2624L66.0723 20.3484L68.4747 20.3581L68.4902 16.5143L80.1819 16.5614L80.1664 20.4052L82.5688 20.4149L82.5933 14.3289L80.3511 14.3198L80.4066 0.54607L69.6759 0.502824L68.6684 12.0305C68.6011 12.8417 68.3852 13.4174 68.0208 13.7576C67.6778 14.0979 67.1432 14.2666 66.4172 14.2637L66.0968 14.2624ZM77.9487 14.3101L70.261 14.2792C70.411 14.1516 70.5291 14.0026 70.6152 13.8321C70.83 13.5127 70.9819 12.9153 71.0708 12.0401L71.9091 2.7541L77.9951 2.77863L77.9487 14.3101ZM114.872 15.7402L104.622 15.6989L104.684 0.323588L114.934 0.364898L114.924 2.92745L107.236 2.89647L107.22 6.7403L114.908 6.77129L114.898 9.33385L107.21 9.30286L107.195 13.1467L114.882 13.1777L114.872 15.7402ZM114.882 13.1777L114.898 9.33385L117.46 9.34417L117.445 13.188L114.882 13.1777ZM114.908 6.77129L114.924 2.92745L117.486 2.93778L117.471 6.78162L114.908 6.77129ZM134.07 22.2241L119.976 22.1673L119.987 19.6047L127.034 19.6331L134.081 19.6615L134.07 22.2241ZM137.139 15.83L139.702 15.8403L139.753 3.02752L147.441 3.0585L147.389 15.8713L149.952 15.8816L150.014 0.506277L137.201 0.454639L137.139 15.83ZM156.993 15.91L154.43 15.8997L154.492 0.524325L157.055 0.534652L157.013 10.7849L159.576 10.7952L159.566 13.3578L157.003 13.3474L156.993 15.91ZM162.149 8.24298L162.139 10.8055L159.576 10.7952L159.586 8.23265L162.149 8.24298ZM162.149 8.24298L162.159 5.68042L164.722 5.69075L164.742 0.565635L167.305 0.575962L167.243 15.9513L164.68 15.941L164.711 8.25331L162.149 8.24298ZM184.596 0.645648L182.033 0.635321L182.023 3.19788L179.461 3.18755L179.445 7.03138L174.32 7.01073L174.346 0.604338L171.783 0.59401L171.721 15.9694L174.284 15.9797L174.31 9.57329L179.435 9.59394L179.419 13.4378L181.982 13.4481L181.971 16.0107L184.534 16.021L184.544 13.4584L181.982 13.4481L181.997 9.60427L179.435 9.59394L179.445 7.03138L182.008 7.04171L182.023 3.19788L184.586 3.2082L184.596 0.645648ZM198.084 3.2626L190.396 3.23162L190.406 0.669065L198.094 0.700047L198.084 3.2626ZM198.084 3.2626L200.646 3.27293L200.636 5.83549L198.073 5.82516L198.084 3.2626ZM190.355 13.4818L190.396 3.23162L187.833 3.22129L187.792 13.4715L190.355 13.4818ZM198.042 13.5128L190.355 13.4818L190.344 16.0444L198.032 16.0754L198.042 13.5128ZM198.042 13.5128L200.605 13.5232L200.615 10.9606L198.053 10.9503L198.042 13.5128ZM206.123 3.295L215.092 3.33115L215.076 7.17498L206.107 7.13884L206.123 3.295ZM206.082 13.5452L203.519 13.5349L203.56 3.28467L206.123 3.295L206.133 0.732447L215.102 0.768593L215.092 3.33115L217.654 3.34148L217.629 9.74787L206.097 9.70139L206.082 13.5452ZM215.051 13.5814L215.04 16.1439L206.071 16.1078L206.082 13.5452L215.051 13.5814ZM215.051 13.5814L217.613 13.5917L217.623 11.0291L215.061 11.0188L215.051 13.5814ZM233.636 16.2189L231.073 16.2085L231.125 3.39576L224.718 3.36994L224.729 0.807389L233.698 0.843536L233.636 16.2189ZM222.114 13.6098L222.156 3.35962L224.718 3.36994L224.677 13.6202L222.114 13.6098ZM222.114 13.6098L222.104 16.1724L219.541 16.1621L219.552 13.5995L222.114 13.6098ZM238.133 16.237L247.101 16.2731L247.112 13.7106L249.674 13.7209L249.695 8.5958L247.132 8.58548L247.143 6.02292L240.736 5.9971L240.757 0.871987L238.194 0.861659L238.133 16.237ZM247.132 8.58548L247.112 13.7106L240.705 13.6848L240.726 8.55966L247.132 8.58548ZM87.2652 22.0381L101.359 22.0949L101.37 19.5324L94.3226 19.504L87.2756 19.4756L87.2652 22.0381Z" fill="white"/>
</svg>
