<svg width="52" height="52" viewBox="0 0 52 52" fill="none" xmlns="http://www.w3.org/2000/svg">
<path d="M34.66 26.59V24.978L27.38 17.646L26.08 18.946L31.956 24.822H16.98V26.746H31.904L26.08 32.57L27.406 33.896L34.66 26.59Z" fill="white"/>
<path d="M34.66 26.59H34.86V26.6724L34.8019 26.7309L34.66 26.59ZM34.66 24.978L34.8019 24.8371L34.86 24.8956V24.978H34.66ZM27.38 17.646L27.2386 17.5046L27.3805 17.3627L27.5219 17.5051L27.38 17.646ZM26.08 18.946L25.9386 19.0874L25.7972 18.946L25.9386 18.8046L26.08 18.946ZM31.956 24.822L32.0974 24.6806L32.4388 25.022H31.956V24.822ZM16.98 24.822H16.78V24.622H16.98V24.822ZM16.98 26.746V26.946H16.78V26.746H16.98ZM31.904 26.746V26.546H32.3868L32.0454 26.8874L31.904 26.746ZM26.08 32.57L25.9386 32.7114L25.7972 32.57L25.9386 32.4286L26.08 32.57ZM27.406 33.896L27.5479 34.0369L27.4065 34.1793L27.2646 34.0374L27.406 33.896ZM34.46 26.59V24.978H34.86V26.59H34.46ZM34.5181 25.1189L27.2381 17.7869L27.5219 17.5051L34.8019 24.8371L34.5181 25.1189ZM27.5214 17.7874L26.2214 19.0874L25.9386 18.8046L27.2386 17.5046L27.5214 17.7874ZM26.2214 18.8046L32.0974 24.6806L31.8146 24.9634L25.9386 19.0874L26.2214 18.8046ZM31.956 25.022H16.98V24.622H31.956V25.022ZM17.18 24.822V26.746H16.78V24.822H17.18ZM16.98 26.546H31.904V26.946H16.98V26.546ZM32.0454 26.8874L26.2214 32.7114L25.9386 32.4286L31.7626 26.6046L32.0454 26.8874ZM26.2214 32.4286L27.5474 33.7546L27.2646 34.0374L25.9386 32.7114L26.2214 32.4286ZM27.2641 33.7551L34.5181 26.4491L34.8019 26.7309L27.5479 34.0369L27.2641 33.7551Z" fill="white"/>
<circle r="25.5" transform="matrix(-1 0 0 1 26 26)" stroke="white"/>
</svg>
