<svg width="250" height="23" viewBox="0 0 250 23" fill="none" xmlns="http://www.w3.org/2000/svg">
<path fill-rule="evenodd" clip-rule="evenodd" d="M28.4985 16.7975L28.1859 14.8743L28.0258 14.8737C27.7251 15.2995 27.3392 15.6717 26.8681 15.9901C25.8828 16.7336 24.6107 17.1022 23.0518 17.0959C21.3861 17.0892 20.0319 16.6246 18.9893 15.7021C17.9679 14.7797 17.4602 13.5818 17.4662 12.1083C17.4726 10.5067 18.0009 9.2596 19.0509 8.36692C20.1223 7.45298 21.7364 7.00035 23.8932 7.00904L28.2175 7.02647L28.2195 6.54599C28.2244 5.32878 27.8865 4.3878 27.2058 3.72305C26.5466 3.03703 25.6084 2.69157 24.3911 2.68666C23.238 2.68202 22.2973 2.94516 21.5691 3.4761C20.8623 3.98577 20.4647 4.62482 20.3762 5.39324L17.9738 5.38356C18.0647 4.01721 18.678 2.85583 19.8137 1.89944C20.9708 0.921769 22.4996 0.436766 24.4002 0.444425C26.3435 0.452257 27.8682 0.992277 28.9743 2.06449C30.0804 3.13669 30.6296 4.63376 30.6219 6.55567L30.5806 16.8059L28.4985 16.7975ZM28.2059 9.90935L28.2085 9.26871L23.8842 9.25128C22.5175 9.24577 21.5021 9.50862 20.8379 10.0398C20.1951 10.5711 19.872 11.2638 19.8686 12.118C19.8652 12.9509 20.1402 13.614 20.6934 14.1074C21.2467 14.6008 22.0358 14.8495 23.0608 14.8536C24.6624 14.8601 25.9134 14.4274 26.8138 13.5554C27.7357 12.6622 28.1997 11.4469 28.2059 9.90935ZM6.10352e-05 16.6827L0.0646083 0.666675L2.46701 0.676357L2.43925 7.56323L10.9277 7.59744L10.9555 0.710567L13.3579 0.720249L13.2933 16.7362L10.8909 16.7265L10.9187 9.83968L2.43021 9.80547L2.40246 16.6923L6.10352e-05 16.6827ZM36.5353 11.8649L34.1329 11.8552C34.1268 13.35 34.6877 14.6122 35.8153 15.6418C36.9644 16.6501 38.4786 17.1581 40.3578 17.1656C42.3011 17.1735 43.8297 16.7312 44.9438 15.8387C46.0578 14.9463 46.6177 13.8061 46.6233 12.418C46.627 11.4998 46.3418 10.7299 45.7677 10.1083C45.215 9.46538 44.5441 9.04625 43.7547 8.85087L43.7554 8.69071C44.2044 8.54304 44.6325 8.29918 45.0396 7.95914C45.8967 7.23653 46.3275 6.32 46.332 5.20956C46.3374 3.86422 45.8187 2.75167 44.7758 1.87191C43.7331 0.970795 42.2828 0.516495 40.4249 0.509008C38.6952 0.502037 37.2731 0.987471 36.1587 1.96531C35.0443 2.94315 34.4842 4.15812 34.4783 5.61024L36.8807 5.61992C36.8842 4.76574 37.1966 4.07296 37.8181 3.54159C38.4395 3.01022 39.3054 2.74677 40.4159 2.75125C41.569 2.75589 42.4436 2.99432 43.0397 3.46654C43.6358 3.91739 43.9325 4.4845 43.9297 5.16785C43.9267 5.91526 43.6359 6.53338 43.0574 7.02221C42.4789 7.48969 41.6451 7.72124 40.556 7.71685L39.1146 7.71104L39.1062 9.79312L40.5476 9.79892C41.7221 9.80366 42.6287 10.0529 43.2674 10.5466C43.9061 11.019 44.224 11.6289 44.221 12.3763C44.2179 13.1451 43.8951 13.7631 43.2525 14.2303C42.6314 14.6976 41.6695 14.9286 40.3668 14.9234C39.1923 14.9187 38.2539 14.6266 37.5515 14.0472C36.8706 13.4465 36.5318 12.7191 36.5353 11.8649ZM60.8583 16.9279L60.5457 15.0047L60.3856 15.0041C60.0849 15.43 59.699 15.8021 59.2279 16.1205C58.2426 16.864 56.9704 17.2326 55.4116 17.2263C53.7459 17.2196 52.3917 16.755 51.3491 15.8325C50.3277 14.9101 49.82 13.7122 49.826 12.2388C49.8324 10.6372 50.3607 9.39002 51.4106 8.49734C52.4821 7.58339 54.0962 7.13077 56.253 7.13946L60.5773 7.15689L60.5793 6.67641C60.5842 5.45919 60.2463 4.51821 59.5656 3.85346C58.9064 3.16745 57.9681 2.82198 56.7509 2.81708C55.5978 2.81243 54.6571 3.07558 53.9289 3.60652C53.2221 4.11619 52.8245 4.75524 52.736 5.52366L50.3336 5.51398C50.4245 4.14762 51.0378 2.98625 52.1735 2.02985C53.3306 1.05218 54.8594 0.567181 56.76 0.574841C58.7032 0.582673 60.2279 1.12269 61.3341 2.1949C62.4402 3.26711 62.9894 4.76417 62.9817 6.68609L62.9404 16.9363L60.8583 16.9279ZM60.5657 10.0398L60.5683 9.39912L56.244 9.3817C54.8773 9.37619 53.8619 9.63903 53.1977 10.1702C52.5549 10.7015 52.2318 11.3943 52.2284 12.2484C52.225 13.0813 52.5 13.7444 53.0532 14.2378C53.6064 14.7312 54.3956 14.9799 55.4206 14.9841C57.0222 14.9905 58.2732 14.5578 59.1736 13.6859C60.0955 12.7927 60.5595 11.5773 60.5657 10.0398ZM66.0969 14.7068L66.0724 20.7928L68.4748 20.8025L68.4903 16.9587L80.1819 17.0058L80.1664 20.8496L82.5688 20.8593L82.5934 14.7732L80.3511 14.7642L80.4066 0.990467L69.6759 0.947221L68.6685 12.4749C68.6012 13.2861 68.3853 13.8618 68.0209 14.202C67.6778 14.5423 67.1433 14.711 66.4172 14.7081L66.0969 14.7068ZM77.9487 14.7545L70.2611 14.7235C70.4111 14.596 70.5291 14.447 70.6152 14.2765C70.8301 13.9571 70.982 13.3597 71.0709 12.4845L71.9091 3.19849L77.9952 3.22302L77.9487 14.7545ZM114.872 16.1846L104.622 16.1433L104.684 0.767985L114.934 0.809295L114.924 3.37185L107.236 3.34087L107.221 7.1847L114.908 7.21568L114.898 9.77824L107.21 9.74726L107.195 13.5911L114.882 13.6221L114.872 16.1846ZM114.882 13.6221L114.898 9.77824L117.46 9.78857L117.445 13.6324L114.882 13.6221ZM114.908 7.21568L114.924 3.37185L117.486 3.38218L117.471 7.22601L114.908 7.21568ZM134.07 22.6685L119.976 22.6117L119.987 20.0491L127.034 20.0775L134.081 20.1059L134.07 22.6685ZM137.139 16.2744L139.702 16.2847L139.754 3.47192L147.441 3.5029L147.39 16.3157L149.952 16.326L150.014 0.950674L137.201 0.899036L137.139 16.2744ZM156.993 16.3544L154.43 16.3441L154.492 0.968722L157.055 0.979049L157.014 11.2293L159.576 11.2396L159.566 13.8022L157.003 13.7918L156.993 16.3544ZM162.149 8.68738L162.139 11.2499L159.576 11.2396L159.586 8.67705L162.149 8.68738ZM162.149 8.68738L162.159 6.12482L164.722 6.13514L164.743 1.01003L167.305 1.02036L167.243 16.3957L164.681 16.3854L164.712 8.6977L162.149 8.68738ZM184.596 1.09005L182.034 1.07972L182.023 3.64227L179.461 3.63194L179.445 7.47578L174.32 7.45512L174.346 1.04873L171.783 1.03841L171.721 16.4137L174.284 16.4241L174.31 10.0177L179.435 10.0383L179.419 13.8822L181.982 13.8925L181.972 16.4551L184.534 16.4654L184.544 13.9028L181.982 13.8925L181.997 10.0487L179.435 10.0383L179.445 7.47578L182.008 7.48611L182.023 3.64227L184.586 3.6526L184.596 1.09005ZM198.084 3.707L190.396 3.67602L190.406 1.11346L198.094 1.14444L198.084 3.707ZM198.084 3.707L200.646 3.71733L200.636 6.27988L198.073 6.26956L198.084 3.707ZM190.355 13.9262L190.396 3.67602L187.833 3.66569L187.792 13.9159L190.355 13.9262ZM198.042 13.9572L190.355 13.9262L190.344 16.4888L198.032 16.5198L198.042 13.9572ZM198.042 13.9572L200.605 13.9676L200.615 11.405L198.053 11.3947L198.042 13.9572ZM206.123 3.7394L215.092 3.77554L215.076 7.61938L206.107 7.58323L206.123 3.7394ZM206.082 13.9896L203.519 13.9793L203.56 3.72907L206.123 3.7394L206.133 1.17684L215.102 1.21299L215.092 3.77554L217.654 3.78587L217.629 10.1923L206.097 10.1458L206.082 13.9896ZM215.051 14.0258L215.04 16.5883L206.071 16.5522L206.082 13.9896L215.051 14.0258ZM215.051 14.0258L217.613 14.0361L217.624 11.4735L215.061 11.4632L215.051 14.0258ZM233.636 16.6633L231.073 16.6529L231.125 3.84016L224.718 3.81434L224.729 1.25179L233.698 1.28793L233.636 16.6633ZM222.114 14.0542L222.156 3.80401L224.718 3.81434L224.677 14.0646L222.114 14.0542ZM222.114 14.0542L222.104 16.6168L219.542 16.6065L219.552 14.0439L222.114 14.0542ZM238.133 16.6814L247.102 16.7175L247.112 14.155L249.674 14.1653L249.695 9.0402L247.133 9.02987L247.143 6.46732L240.736 6.4415L240.757 1.31638L238.195 1.30606L238.133 16.6814ZM247.133 9.02987L247.112 14.155L240.705 14.1292L240.726 9.00405L247.133 9.02987ZM87.2653 22.4825L101.359 22.5393L101.37 19.9768L94.3227 19.9484L87.2756 19.92L87.2653 22.4825Z" fill="white"/>
</svg>
