<svg width="125" height="13" viewBox="0 0 125 13" fill="none" xmlns="http://www.w3.org/2000/svg">
<path d="M0.62 9V1H1.82V4.44H6.06V1H7.26V9H6.06V5.56H1.82V9H0.62ZM14.695 9L14.535 8.04H14.455C14.3057 8.25333 14.1137 8.44 13.879 8.6C13.3883 8.97333 12.7537 9.16 11.975 9.16C11.143 9.16 10.4657 8.93067 9.943 8.472C9.431 8.01333 9.175 7.416 9.175 6.68C9.175 5.88 9.43633 5.256 9.959 4.808C10.4923 4.34933 11.2977 4.12 12.375 4.12H14.535V3.88C14.535 3.272 14.3643 2.80267 14.023 2.472C13.6923 2.13067 13.223 1.96 12.615 1.96C12.039 1.96 11.5697 2.09333 11.207 2.36C10.855 2.616 10.6577 2.936 10.615 3.32H9.415C9.45767 2.63733 9.76167 2.056 10.327 1.576C10.903 1.08533 11.6657 0.839999 12.615 0.839999C13.5857 0.839999 14.3483 1.10667 14.903 1.64C15.4577 2.17333 15.735 2.92 15.735 3.88V9H14.695ZM14.535 5.56V5.24H12.375C11.6923 5.24 11.1857 5.37333 10.855 5.64C10.535 5.90667 10.375 6.25333 10.375 6.68C10.375 7.096 10.5137 7.42667 10.791 7.672C11.0683 7.91733 11.463 8.04 11.975 8.04C12.775 8.04 13.399 7.82133 13.847 7.384C14.3057 6.936 14.535 6.328 14.535 5.56ZM17.3394 6.52H18.5394C18.5394 6.94667 18.71 7.30933 19.0514 7.608C19.4034 7.896 19.8727 8.04 20.4594 8.04C21.11 8.04 21.59 7.92267 21.8994 7.688C22.2194 7.45333 22.3794 7.144 22.3794 6.76C22.3794 6.38667 22.2194 6.08267 21.8994 5.848C21.5794 5.60267 21.126 5.48 20.5394 5.48H19.8194V4.44H20.5394C21.0834 4.44 21.4994 4.32267 21.7874 4.088C22.0754 3.84267 22.2194 3.53333 22.2194 3.16C22.2194 2.81867 22.07 2.536 21.7714 2.312C21.4727 2.07733 21.0354 1.96 20.4594 1.96C19.9047 1.96 19.4727 2.09333 19.1634 2.36C18.854 2.62667 18.6994 2.97333 18.6994 3.4H17.4994C17.4994 2.67467 17.7767 2.06667 18.3314 1.576C18.886 1.08533 19.5954 0.839999 20.4594 0.839999C21.3874 0.839999 22.1127 1.064 22.6354 1.512C23.158 1.94933 23.4194 2.504 23.4194 3.176C23.4194 3.73067 23.206 4.18933 22.7794 4.552C22.5767 4.72267 22.3634 4.84533 22.1394 4.92V5C22.534 5.096 22.87 5.304 23.1474 5.624C23.4354 5.93333 23.5794 6.31733 23.5794 6.776C23.5794 7.46933 23.302 8.04 22.7474 8.488C22.1927 8.936 21.43 9.16 20.4594 9.16C19.5207 9.16 18.7634 8.90933 18.1874 8.408C17.622 7.896 17.3394 7.26667 17.3394 6.52ZM30.5388 9L30.3788 8.04H30.2988C30.1494 8.25333 29.9574 8.44 29.7228 8.6C29.2321 8.97333 28.5974 9.16 27.8188 9.16C26.9868 9.16 26.3094 8.93067 25.7868 8.472C25.2748 8.01333 25.0188 7.416 25.0188 6.68C25.0188 5.88 25.2801 5.256 25.8028 4.808C26.3361 4.34933 27.1414 4.12 28.2188 4.12H30.3788V3.88C30.3788 3.272 30.2081 2.80267 29.8668 2.472C29.5361 2.13067 29.0668 1.96 28.4588 1.96C27.8828 1.96 27.4134 2.09333 27.0508 2.36C26.6988 2.616 26.5014 2.936 26.4588 3.32H25.2588C25.3014 2.63733 25.6054 2.056 26.1708 1.576C26.7468 1.08533 27.5094 0.839999 28.4588 0.839999C29.4294 0.839999 30.1921 1.10667 30.7468 1.64C31.3014 2.17333 31.5788 2.92 31.5788 3.88V9H30.5388ZM30.3788 5.56V5.24H28.2188C27.5361 5.24 27.0294 5.37333 26.6988 5.64C26.3788 5.90667 26.2188 6.25333 26.2188 6.68C26.2188 7.096 26.3574 7.42667 26.6348 7.672C26.9121 7.91733 27.3068 8.04 27.8188 8.04C28.6188 8.04 29.2428 7.82133 29.6908 7.384C30.1494 6.936 30.3788 6.328 30.3788 5.56ZM32.7031 10.92V7.88H32.8631C33.2258 7.88 33.4925 7.79467 33.6631 7.624C33.8445 7.45333 33.9511 7.16533 33.9831 6.76L34.4631 1H39.8231V7.88H40.9431V10.92H39.7431V9H33.9031V10.92H32.7031ZM34.7831 7.88H38.6231V2.12H35.5831L35.1831 6.76C35.1405 7.19733 35.0658 7.496 34.9591 7.656C34.9165 7.74133 34.8578 7.816 34.7831 7.88ZM41.7456 12.2H48.7856V10.92H41.7456V12.2ZM50.4656 9H55.5856V7.72H51.7456V5.8H55.5856V4.52H51.7456V2.6H55.5856V1.32H50.4656V9ZM56.8656 4.52V2.6H55.5856V4.52H56.8656ZM56.8656 7.72V5.8H55.5856V7.72H56.8656ZM58.3081 12.2H65.3481V10.92H58.3081V12.2ZM67.0281 9H68.3081V2.6H72.1481V9H73.4281V1.32H67.0281V9ZM75.825 9H77.105V7.72H78.385V6.44H77.105V1.32H75.825V9ZM80.945 9H82.225V1.32H80.945V3.88H79.665V5.16H80.945V9ZM78.385 6.44H79.665V5.16H78.385V6.44ZM91.0219 1.32H89.7419V2.6H91.0219V1.32ZM84.6219 9H85.9019V5.8H88.4619V4.52H85.9019V1.32H84.6219V9ZM89.7419 4.52V2.6H88.4619V4.52H89.7419ZM88.4619 7.72H89.7419V5.8H88.4619V7.72ZM89.7419 9H91.0219V7.72H89.7419V9ZM94.0841 2.6H97.9241V1.32H94.0841V2.6ZM97.9241 3.88H99.2041V2.6H97.9241V3.88ZM92.8041 7.72H94.0841V2.6H92.8041V7.72ZM99.2041 6.44H97.9241V7.72H99.2041V6.44ZM94.0841 9H97.9241V7.72H94.0841V9ZM102.1 2.6H106.58V1.32H102.1V2.6ZM100.82 7.72H102.1V5.8H107.86V2.6H106.58V4.52H102.1V2.6H100.82V7.72ZM106.58 7.72H107.86V6.44H106.58V7.72ZM102.1 9H106.58V7.72H102.1V9ZM114.748 9H116.028V1.32H111.548V2.6H114.748V9ZM111.548 7.72V2.6H110.268V7.72H111.548ZM108.988 9H110.268V7.72H108.988V9ZM118.434 9H122.914V7.72H119.714V5.16H122.914V3.88H119.714V1.32H118.434V9ZM124.194 7.72V5.16H122.914V7.72H124.194Z" fill="black" fill-opacity="0.4"/>
</svg>
