<svg width="147" height="18" viewBox="0 0 147 18" fill="none" xmlns="http://www.w3.org/2000/svg">
<g clip-path="url(#clip0_304_2851)">
<path d="M136.899 13.5383V5.87237H132.939V4.34045H138.48V13.5447H136.899V13.5383ZM132.946 12.0064H131.364V5.87237H132.946V12.0064ZM129.776 13.5383V12.0064H131.358V13.5383H129.776Z" fill="white"/>
<path d="M0.032959 17.8915V17.9234H0.0659039H8.11763H8.15057V17.8915V16.5511V16.5192H8.11763H1.58137V1.43618H8.11104H8.14399V1.40426V0.0638363V0.0319214H8.11104H0.0659039H0.032959V0.0638363V17.8915Z" fill="white" stroke="white"/>
<path d="M146.967 0.0638363V0.0319214H146.934H138.882H138.849V0.0638363V1.40426V1.43618H138.882H145.412V16.5192H138.882H138.849V16.5511V17.8915V17.9234H138.882H146.934H146.967V17.8915V0.0638363Z" fill="white" stroke="white"/>
<path d="M16.0112 4.34045V5.87237H11.2606V4.34045H16.0112ZM14.4298 12.0064V10.4745H16.0112V8.94258H11.2606V7.41067H16.0112V5.87237H17.5926V13.5383H16.0112V12.0064H14.4298ZM9.6792 7.40428V5.87237H11.2606V7.40428H9.6792ZM9.6792 12.0064V8.9362H11.2606V12.0064H9.6792ZM11.2606 13.5383V12.0064H14.4298V13.5383H11.2606Z" fill="white"/>
<path d="M120.532 5.87237V4.34045H126.073V5.87237H120.532ZM118.944 12.0064V5.87237H120.525V8.17024H126.067V5.87237H127.648V9.70854H120.525V12.0064H118.944ZM126.073 12.0064V10.4745H127.655V12.0064H126.073ZM120.532 13.5383V12.0064H126.073V13.5383H120.532Z" fill="white"/>
<path d="M109.957 5.87237V4.34045H114.707V5.87237H109.957ZM114.707 7.40428V5.87237H116.289V7.40428H114.707ZM108.375 12.0064V5.87237H109.957V12.0064H108.375ZM116.289 10.4745V12.0064H114.707V10.4745H116.289ZM109.957 13.5383V12.0064H114.707V13.5383H109.957Z" fill="white"/>
<path d="M26.9292 4.34045V5.87237H22.1785V4.34045H26.9292ZM28.5105 8.17024H26.9292V5.87237H28.5105V8.17024ZM20.5972 7.40428V5.87237H22.1785V7.40428H20.5972ZM22.9692 9.70854V8.17662H26.9292V9.70854H22.9692ZM28.5105 12.0064H26.9292V9.70854H28.5105V12.0064ZM20.5972 12.0064V10.4745H22.1785V12.0064H20.5972ZM22.1785 13.5383V12.0064H26.9292V13.5383H22.1785Z" fill="white"/>
<path d="M38.071 4.34045V5.87237H33.3204V4.34045H38.071ZM36.4897 12.0064V10.4745H38.071V8.94258H33.3204V7.41067H38.071V5.87237H39.6524V13.5383H38.071V12.0064H36.4897ZM31.739 7.40428V5.87237H33.3204V7.40428H31.739ZM31.739 12.0064V8.9362H33.3204V12.0064H31.739ZM33.3204 13.5383V12.0064H36.4897V13.5383H33.3204Z" fill="white"/>
<path d="M41.8004 15.8426V12.0064H43.3818V10.4745H44.9631V12.0064H49.7138V5.87237H46.5445V10.4745H44.9631V4.34045H51.2951V12.0064H52.8765V15.8426H51.2951V13.5447H43.3818V15.8426H41.8004Z" fill="white"/>
<path d="M59.7356 13.5383V4.34045H66.0676V5.87237H61.3169V8.17024H66.0676V9.70216H61.3169V12H66.0676V13.5319H59.7356V13.5383ZM67.6555 8.17024H66.0742V5.87237H67.6555V8.17024ZM67.6555 12.0064H66.0742V9.70854H67.6555V12.0064Z" fill="white"/>
<path d="M86.4408 13.5575V4.35321H88.0221V10.4873H89.6035V12.0192H88.0221V13.5511H86.4408V13.5575ZM92.7728 13.5575V8.95534H91.1914V7.42342H92.7728V4.35321H94.3542V13.5575H92.7728ZM89.6035 10.4873V8.95534H91.1849V10.4873H89.6035Z" fill="white"/>
<path d="M105.575 4.34045V5.87237H103.994V4.34045H105.575ZM97.6617 13.5383V8.9362V4.34045H99.2431V8.17024H102.412V9.70216H99.2431V13.5383H97.6617ZM103.994 8.17024H102.412V5.87237H103.994V8.17024ZM102.406 12.0064V9.70854H103.987V12.0064H102.406ZM103.994 13.5383V12.0064H105.575V13.5383H103.994Z" fill="white"/>
<path fill-rule="evenodd" clip-rule="evenodd" d="M146.914 7.40428H143.04V4.34045H141.459V13.5447H146.921V12.0128H143.047V8.9362H146.921V7.40428H146.914Z" fill="white"/>
<path fill-rule="evenodd" clip-rule="evenodd" d="M0.065918 9.70854H4.77044V13.5447H6.3518V4.34045H4.77044V8.17024H0.065918V9.70854Z" fill="white"/>
<path fill-rule="evenodd" clip-rule="evenodd" d="M75.1736 4.34045H76.7681V5.87237H76.7549H78.3363V7.34684H76.7549V13.5383H75.1736V4.34045ZM81.5056 5.87237H78.3363V4.34045H83.021V5.87237V13.5383H81.5056V5.87237Z" fill="white"/>
</g>
<defs>
<clipPath id="clip0_304_2851">
<rect width="147" height="18" fill="white"/>
</clipPath>
</defs>
</svg>
