<svg width="124" height="13" viewBox="0 0 124 13" fill="none" xmlns="http://www.w3.org/2000/svg">
<path d="M0.12 9V1H1.32V4.44H5.56V1H6.76V9H5.56V5.56H1.32V9H0.12ZM14.195 9L14.035 8.04H13.955C13.8057 8.25333 13.6137 8.44 13.379 8.6C12.8883 8.97333 12.2537 9.16 11.475 9.16C10.643 9.16 9.96567 8.93067 9.443 8.472C8.931 8.01333 8.675 7.416 8.675 6.68C8.675 5.88 8.93633 5.256 9.459 4.808C9.99233 4.34933 10.7977 4.12 11.875 4.12H14.035V3.88C14.035 3.272 13.8643 2.80267 13.523 2.472C13.1923 2.13067 12.723 1.96 12.115 1.96C11.539 1.96 11.0697 2.09333 10.707 2.36C10.355 2.616 10.1577 2.936 10.115 3.32H8.915C8.95767 2.63733 9.26167 2.056 9.827 1.576C10.403 1.08533 11.1657 0.839999 12.115 0.839999C13.0857 0.839999 13.8483 1.10667 14.403 1.64C14.9577 2.17333 15.235 2.92 15.235 3.88V9H14.195ZM14.035 5.56V5.24H11.875C11.1923 5.24 10.6857 5.37333 10.355 5.64C10.035 5.90667 9.875 6.25333 9.875 6.68C9.875 7.096 10.0137 7.42667 10.291 7.672C10.5683 7.91733 10.963 8.04 11.475 8.04C12.275 8.04 12.899 7.82133 13.347 7.384C13.8057 6.936 14.035 6.328 14.035 5.56ZM16.8394 6.52H18.0394C18.0394 6.94667 18.21 7.30933 18.5514 7.608C18.9034 7.896 19.3727 8.04 19.9594 8.04C20.61 8.04 21.09 7.92267 21.3994 7.688C21.7194 7.45333 21.8794 7.144 21.8794 6.76C21.8794 6.38667 21.7194 6.08267 21.3994 5.848C21.0794 5.60267 20.626 5.48 20.0394 5.48H19.3194V4.44H20.0394C20.5834 4.44 20.9994 4.32267 21.2874 4.088C21.5754 3.84267 21.7194 3.53333 21.7194 3.16C21.7194 2.81867 21.57 2.536 21.2714 2.312C20.9727 2.07733 20.5354 1.96 19.9594 1.96C19.4047 1.96 18.9727 2.09333 18.6634 2.36C18.354 2.62667 18.1994 2.97333 18.1994 3.4H16.9994C16.9994 2.67467 17.2767 2.06667 17.8314 1.576C18.386 1.08533 19.0954 0.839999 19.9594 0.839999C20.8874 0.839999 21.6127 1.064 22.1354 1.512C22.658 1.94933 22.9194 2.504 22.9194 3.176C22.9194 3.73067 22.706 4.18933 22.2794 4.552C22.0767 4.72267 21.8634 4.84533 21.6394 4.92V5C22.034 5.096 22.37 5.304 22.6474 5.624C22.9354 5.93333 23.0794 6.31733 23.0794 6.776C23.0794 7.46933 22.802 8.04 22.2474 8.488C21.6927 8.936 20.93 9.16 19.9594 9.16C19.0207 9.16 18.2634 8.90933 17.6874 8.408C17.122 7.896 16.8394 7.26667 16.8394 6.52ZM30.0388 9L29.8788 8.04H29.7988C29.6494 8.25333 29.4574 8.44 29.2228 8.6C28.7321 8.97333 28.0974 9.16 27.3188 9.16C26.4868 9.16 25.8094 8.93067 25.2868 8.472C24.7748 8.01333 24.5188 7.416 24.5188 6.68C24.5188 5.88 24.7801 5.256 25.3028 4.808C25.8361 4.34933 26.6414 4.12 27.7188 4.12H29.8788V3.88C29.8788 3.272 29.7081 2.80267 29.3668 2.472C29.0361 2.13067 28.5668 1.96 27.9588 1.96C27.3828 1.96 26.9134 2.09333 26.5508 2.36C26.1988 2.616 26.0014 2.936 25.9588 3.32H24.7588C24.8014 2.63733 25.1054 2.056 25.6708 1.576C26.2468 1.08533 27.0094 0.839999 27.9588 0.839999C28.9294 0.839999 29.6921 1.10667 30.2468 1.64C30.8014 2.17333 31.0788 2.92 31.0788 3.88V9H30.0388ZM29.8788 5.56V5.24H27.7188C27.0361 5.24 26.5294 5.37333 26.1988 5.64C25.8788 5.90667 25.7188 6.25333 25.7188 6.68C25.7188 7.096 25.8574 7.42667 26.1348 7.672C26.4121 7.91733 26.8068 8.04 27.3188 8.04C28.1188 8.04 28.7428 7.82133 29.1908 7.384C29.6494 6.936 29.8788 6.328 29.8788 5.56ZM32.2031 10.92V7.88H32.3631C32.7258 7.88 32.9925 7.79467 33.1631 7.624C33.3445 7.45333 33.4511 7.16533 33.4831 6.76L33.9631 1H39.3231V7.88H40.4431V10.92H39.2431V9H33.4031V10.92H32.2031ZM34.2831 7.88H38.1231V2.12H35.0831L34.6831 6.76C34.6405 7.19733 34.5658 7.496 34.4591 7.656C34.4165 7.74133 34.3578 7.816 34.2831 7.88ZM41.2456 12.2H48.2856V10.92H41.2456V12.2ZM49.9656 9H55.0856V7.72H51.2456V5.8H55.0856V4.52H51.2456V2.6H55.0856V1.32H49.9656V9ZM56.3656 4.52V2.6H55.0856V4.52H56.3656ZM56.3656 7.72V5.8H55.0856V7.72H56.3656ZM57.8081 12.2H64.8481V10.92H57.8081V12.2ZM66.5281 9H67.8081V2.6H71.6481V9H72.9281V1.32H66.5281V9ZM75.325 9H76.605V7.72H77.885V6.44H76.605V1.32H75.325V9ZM80.445 9H81.725V1.32H80.445V3.88H79.165V5.16H80.445V9ZM77.885 6.44H79.165V5.16H77.885V6.44ZM90.5219 1.32H89.2419V2.6H90.5219V1.32ZM84.1219 9H85.4019V5.8H87.9619V4.52H85.4019V1.32H84.1219V9ZM89.2419 4.52V2.6H87.9619V4.52H89.2419ZM87.9619 7.72H89.2419V5.8H87.9619V7.72ZM89.2419 9H90.5219V7.72H89.2419V9ZM93.5841 2.6H97.4241V1.32H93.5841V2.6ZM97.4241 3.88H98.7041V2.6H97.4241V3.88ZM92.3041 7.72H93.5841V2.6H92.3041V7.72ZM98.7041 6.44H97.4241V7.72H98.7041V6.44ZM93.5841 9H97.4241V7.72H93.5841V9ZM101.6 2.6H106.08V1.32H101.6V2.6ZM100.32 7.72H101.6V5.8H107.36V2.6H106.08V4.52H101.6V2.6H100.32V7.72ZM106.08 7.72H107.36V6.44H106.08V7.72ZM101.6 9H106.08V7.72H101.6V9ZM114.248 9H115.528V1.32H111.048V2.6H114.248V9ZM111.048 7.72V2.6H109.768V7.72H111.048ZM108.488 9H109.768V7.72H108.488V9ZM117.934 9H122.414V7.72H119.214V5.16H122.414V3.88H119.214V1.32H117.934V9ZM123.694 7.72V5.16H122.414V7.72H123.694Z" fill="white"/>
</svg>
