<svg width="220" height="52" viewBox="0 0 220 52" fill="none" xmlns="http://www.w3.org/2000/svg">
<path d="M24.32 0.599999H18.81C19.042 2.398 19.1 3.732 19.1 4.95C19.1 6.284 19.1 10.402 19.1 12.664H24.03C24.03 10.634 24.03 6.284 24.03 4.95C24.03 3.732 24.088 2.398 24.32 0.599999ZM44.098 11.852L40.966 9.88C40.212 10.112 39.168 10.344 37.022 10.344H6.282C4.252 10.344 2.512 10.228 0.83 10.112C1.062 11.33 1.062 13.302 1.062 14.52C1.062 16.55 1.062 22.872 1.062 24.728C1.062 25.888 1.004 27.454 0.83 28.44H5.876C5.76 27.57 5.702 26.004 5.702 25.018C5.702 23.22 5.702 17.014 5.702 14.636H38.066C37.544 19.566 35.746 26.584 32.614 31.514C29.018 37.024 22.696 41.316 16.838 43.23C14.982 43.926 12.778 44.506 10.864 44.854L14.634 49.146C25.248 46.246 33.252 40.33 37.544 32.732C40.792 27.222 42.474 19.972 43.286 15.332C43.46 14.23 43.808 12.664 44.098 11.852ZM88.758 11.562H83.828C84.06 12.838 84.176 14.346 84.176 15.506C84.408 20.61 84.698 38.01 84.698 44.854C84.698 45.956 84.176 46.594 83.074 46.594C81.392 46.594 78.376 46.362 75.998 46.014L76.288 50.306C78.55 50.422 82.378 50.596 84.64 50.596C87.192 50.596 89.048 49.146 89.048 46.652C88.932 38.242 88.642 20.61 88.526 15.506C88.526 14.172 88.526 12.78 88.758 11.562ZM62.6 19.914V24.554C63.992 24.438 65.5 24.38 67.008 24.38C69.096 24.38 95.022 24.38 97.11 24.38C98.212 24.38 99.836 24.438 100.822 24.496V19.914C100.01 20.088 98.154 20.204 96.936 20.204C94.558 20.204 69.386 20.204 66.95 20.204C65.558 20.204 63.992 20.146 62.6 19.914ZM61.092 42.128L64.282 45.666C73.156 41.026 82.668 32.268 85.742 26.584L85.684 23.104L83.306 23.046C79.942 29.136 70.43 37.662 61.092 42.128ZM137.014 13.65L132.722 15.1C133.94 17.652 136.608 25.018 137.246 27.686L141.538 26.12C140.842 23.626 138 15.97 137.014 13.65ZM158.01 16.898L153.022 15.274C152.094 22.698 149.136 30.122 145.018 35.168C140.262 41.084 132.838 45.492 126.168 47.464L129.996 51.35C136.434 48.914 143.51 44.39 148.904 37.604C153.022 32.384 155.574 26.12 157.082 19.74C157.314 18.986 157.604 18.058 158.01 16.898ZM123.5 16.55L119.208 18.174C120.368 20.204 123.5 28.266 124.428 31.282L128.778 29.658C127.734 26.584 124.66 18.986 123.5 16.55ZM176.628 6.69L177.788 11.04C182.95 10.924 190.954 10.75 197.45 9.88C202.09 9.242 207.484 8.198 210.848 7.386C211.718 7.154 212.82 6.864 214.096 6.516L211.022 2.456C208.18 3.732 201.394 5.124 196.116 5.82C189.794 6.69 180.978 6.922 176.628 6.69ZM179.876 46.246L184.4 49.378C195.246 43.172 199.306 34.646 199.306 22.292C199.306 22.292 199.306 13.128 199.306 8.604L194.666 9.242C194.666 17.188 194.666 22.408 194.666 22.408C194.666 34.356 189.736 41.606 179.876 46.246ZM172.104 20.494V25.308C173.496 25.192 175.41 25.134 177.266 25.134C180.862 25.134 211.95 25.134 215.43 25.134C216.88 25.134 218.678 25.192 219.954 25.308V20.552C218.736 20.668 216.59 20.784 215.372 20.784C211.776 20.784 180.92 20.784 177.208 20.784C175.41 20.784 173.38 20.61 172.104 20.494Z" fill="#265BEE"/>
</svg>
