<svg width="160" height="15" viewBox="0 0 160 15" fill="none" xmlns="http://www.w3.org/2000/svg">
<path d="M0.213125 11.6875L2.14913 0.6875H3.46913L2.61113 5.5275H8.88113L9.73913 0.6875H11.0591L9.12313 11.6875H7.80313L8.63913 6.8475H2.36913L1.53313 11.6875H0.213125ZM20.5726 7.0675L20.7266 6.2975H17.1406C16.1726 6.2975 15.4319 6.5175 14.9186 6.9575C14.4199 7.3975 14.1706 7.98417 14.1706 8.7175C14.1706 9.30417 14.3686 9.76617 14.7646 10.1035C15.1752 10.4262 15.7839 10.5875 16.5906 10.5875C17.6319 10.5875 18.4972 10.2795 19.1866 9.6635C19.8906 9.0475 20.3526 8.18217 20.5726 7.0675ZM20.0006 11.6875L20.0446 10.1475H19.9346C19.6412 10.4848 19.3186 10.7782 18.9666 11.0275C18.1452 11.6142 17.2799 11.9075 16.3706 11.9075C15.2999 11.9075 14.4419 11.6288 13.7966 11.0715C13.1659 10.4995 12.8506 9.78817 12.8506 8.9375C12.8506 7.76417 13.2246 6.83283 13.9726 6.1435C14.7352 5.4395 15.7912 5.0875 17.1406 5.0875H20.9466L20.9906 4.8675C21.0639 4.6035 21.1006 4.34683 21.1006 4.0975C21.1006 3.36417 20.8659 2.7995 20.3966 2.4035C19.9419 1.99283 19.2599 1.7875 18.3506 1.7875C17.4999 1.7875 16.8179 1.97817 16.3046 2.3595C15.7912 2.72617 15.4612 3.23217 15.3146 3.8775H13.9946C14.2292 2.9095 14.7206 2.10283 15.4686 1.4575C16.2166 0.797499 17.2139 0.467499 18.4606 0.467499C19.7072 0.467499 20.6752 0.782833 21.3646 1.4135C22.0686 2.0295 22.4206 2.85083 22.4206 3.8775C22.4206 4.2735 22.3839 4.6035 22.3106 4.8675L21.1006 11.6875H20.0006ZM24.118 8.2775H25.438C25.4233 8.29217 25.416 8.31417 25.416 8.3435V8.4975C25.416 9.14283 25.6653 9.65617 26.164 10.0375C26.6773 10.4042 27.418 10.5875 28.386 10.5875C29.2807 10.5875 29.9627 10.4042 30.432 10.0375C30.9013 9.67083 31.136 9.19417 31.136 8.6075C31.136 8.0795 30.916 7.6395 30.476 7.2875C30.036 6.92083 29.4273 6.7375 28.65 6.7375H27.748L27.968 5.5275H29.376C30.1387 5.5275 30.7473 5.34417 31.202 4.9775C31.6713 4.61083 31.906 4.17083 31.906 3.6575C31.906 3.1295 31.6713 2.6895 31.202 2.3375C30.7473 1.97083 30.102 1.7875 29.266 1.7875C28.4593 1.7875 27.814 1.9855 27.33 2.3815C26.846 2.76283 26.538 3.29817 26.406 3.9875H25.086C25.2033 2.94617 25.6653 2.10283 26.472 1.4575C27.2787 0.797499 28.2467 0.467499 29.376 0.467499C30.608 0.467499 31.554 0.746166 32.214 1.3035C32.8887 1.86083 33.226 2.57217 33.226 3.4375C33.226 4.39083 32.8373 5.13883 32.06 5.6815C31.7667 5.9015 31.3853 6.07017 30.916 6.1875V6.2975C31.0773 6.35617 31.2607 6.45883 31.466 6.6055C31.6713 6.7375 31.884 6.9795 32.104 7.3315C32.3387 7.6835 32.456 8.07217 32.456 8.4975C32.456 9.4655 32.0747 10.2795 31.312 10.9395C30.564 11.5848 29.552 11.9075 28.276 11.9075C26.956 11.9075 25.9293 11.6068 25.196 11.0055C24.4627 10.4042 24.096 9.6415 24.096 8.7175V8.4095C24.096 8.33617 24.1033 8.29217 24.118 8.2775ZM42.4652 7.0675L42.6192 6.2975H39.0332C38.0652 6.2975 37.3245 6.5175 36.8112 6.9575C36.3125 7.3975 36.0632 7.98417 36.0632 8.7175C36.0632 9.30417 36.2612 9.76617 36.6572 10.1035C37.0678 10.4262 37.6765 10.5875 38.4832 10.5875C39.5245 10.5875 40.3898 10.2795 41.0792 9.6635C41.7832 9.0475 42.2452 8.18217 42.4652 7.0675ZM41.8932 11.6875L41.9372 10.1475H41.8272C41.5338 10.4848 41.2112 10.7782 40.8592 11.0275C40.0378 11.6142 39.1725 11.9075 38.2632 11.9075C37.1925 11.9075 36.3345 11.6288 35.6892 11.0715C35.0585 10.4995 34.7432 9.78817 34.7432 8.9375C34.7432 7.76417 35.1172 6.83283 35.8652 6.1435C36.6278 5.4395 37.6838 5.0875 39.0332 5.0875H42.8392L42.8832 4.8675C42.9565 4.6035 42.9932 4.34683 42.9932 4.0975C42.9932 3.36417 42.7585 2.7995 42.2892 2.4035C41.8345 1.99283 41.1525 1.7875 40.2432 1.7875C39.3925 1.7875 38.7105 1.97817 38.1972 2.3595C37.6838 2.72617 37.3538 3.23217 37.2072 3.8775H35.8872C36.1218 2.9095 36.6132 2.10283 37.3612 1.4575C38.1092 0.797499 39.1065 0.467499 40.3532 0.467499C41.5998 0.467499 42.5678 0.782833 43.2572 1.4135C43.9612 2.0295 44.3132 2.85083 44.3132 3.8775C44.3132 4.2735 44.2765 4.6035 44.2032 4.8675L42.9932 11.6875H41.8932ZM44.0966 14.3275L44.7786 10.3675H44.8886C45.4459 10.3675 45.8713 10.2502 46.1646 10.0155C46.4726 9.78083 46.6999 9.38483 46.8466 8.8275L48.9586 0.6875H56.0646L54.3486 10.3675H55.9986L55.2946 14.3275H53.9746L54.4586 11.6875H45.8786L45.3946 14.3275H44.0966ZM47.1986 10.3675H53.0286L54.5026 2.0075H49.8826L48.1226 8.8275C47.9906 9.34083 47.7999 9.7515 47.5506 10.0595C47.4626 10.1768 47.3453 10.2795 47.1986 10.3675ZM62.926 11.6875L64.862 0.6875H70.626C71.3593 0.6875 71.946 0.936833 72.386 1.4355C72.826 1.93417 73.046 2.52817 73.046 3.2175C73.046 4.59617 72.4153 5.5495 71.154 6.0775V6.1875C71.374 6.3195 71.5647 6.48817 71.726 6.6935C72.122 7.1775 72.32 7.7055 72.32 8.2775C72.32 9.2895 71.99 10.1108 71.33 10.7415C70.67 11.3722 69.8853 11.6875 68.976 11.6875H62.926ZM64.444 10.4775H68.91C69.4967 10.4775 69.988 10.2795 70.384 9.8835C70.7947 9.4875 71 8.98883 71 8.3875C71 7.93283 70.8533 7.54417 70.56 7.2215C70.2813 6.89883 69.9147 6.7375 69.46 6.7375H65.104L64.444 10.4775ZM65.324 5.5275H69.746C70.2593 5.5275 70.714 5.3295 71.11 4.9335C71.5207 4.52283 71.726 4.02417 71.726 3.4375C71.726 3.02683 71.5867 2.6675 71.308 2.3595C71.044 2.0515 70.6993 1.8975 70.274 1.8975H65.962L65.324 5.5275ZM79.426 11.6875L81.362 0.6875H90.272L88.336 11.6875H87.016L88.71 2.0075H82.44L80.746 11.6875H79.426ZM91.8655 11.6875L93.8015 0.6875H95.1215L93.4275 10.2575H93.8675L100.269 0.6875H102.711L100.775 11.6875H99.4555L101.127 2.1175H100.687L94.3075 11.6875H91.8655ZM104.305 11.6875L106.241 0.6875H107.561L106.659 5.7475L112.907 0.6875H114.821L108.023 6.1655L112.929 11.6875H111.191L106.549 6.4075L105.625 11.6875H104.305ZM122.831 8.0575H124.217C123.733 9.23083 123.029 10.1695 122.105 10.8735C121.195 11.5628 120.176 11.9075 119.047 11.9075C117.668 11.9075 116.553 11.4748 115.703 10.6095C114.852 9.7295 114.427 8.54883 114.427 7.0675C114.427 5.23417 115.013 3.6795 116.187 2.4035C117.375 1.11283 118.731 0.467499 120.257 0.467499C121.518 0.467499 122.515 0.804832 123.249 1.4795C123.982 2.1395 124.459 3.04883 124.679 4.2075H123.293C123.102 3.4595 122.743 2.87283 122.215 2.4475C121.687 2.0075 120.997 1.7875 120.147 1.7875C119.017 1.7875 117.998 2.27883 117.089 3.2615C116.194 4.24417 115.747 5.4395 115.747 6.8475C115.747 7.97683 116.062 8.88617 116.693 9.5755C117.323 10.2502 118.145 10.5875 119.157 10.5875C119.919 10.5875 120.623 10.3602 121.269 9.9055C121.929 9.45083 122.449 8.83483 122.831 8.0575ZM134.404 8.6075H135.856C135.753 8.8275 135.621 9.06217 135.46 9.3115C135.313 9.54617 135.086 9.82483 134.778 10.1475C134.484 10.4702 134.162 10.7562 133.81 11.0055C133.472 11.2548 133.047 11.4675 132.534 11.6435C132.02 11.8195 131.485 11.9075 130.928 11.9075C129.549 11.9075 128.434 11.4748 127.584 10.6095C126.733 9.7295 126.308 8.54883 126.308 7.0675C126.308 5.23417 126.894 3.6795 128.068 2.4035C129.256 1.11283 130.612 0.467499 132.138 0.467499C133.516 0.467499 134.609 0.900166 135.416 1.7655C136.237 2.61617 136.648 3.76017 136.648 5.1975C136.648 5.6375 136.618 5.9675 136.559 6.1875L136.428 6.8475H127.628C127.628 7.97683 127.943 8.88617 128.574 9.5755C129.219 10.2502 130.048 10.5875 131.06 10.5875C131.617 10.5875 132.152 10.4555 132.666 10.1915C133.179 9.91283 133.553 9.64883 133.788 9.3995C134.037 9.1355 134.242 8.8715 134.404 8.6075ZM127.782 5.5275H135.328C135.328 4.36883 135.034 3.4595 134.448 2.7995C133.876 2.12483 133.069 1.7875 132.028 1.7875C131.016 1.7875 130.121 2.15417 129.344 2.8875C128.581 3.60617 128.06 4.48617 127.782 5.5275ZM136.426 11.7975L136.624 10.4775H137.416C138.252 10.4775 138.816 9.9275 139.11 8.8275L141.222 0.6875H148.372L146.436 11.6875H145.116L146.81 2.0075H142.19L140.386 8.9815C139.902 10.8588 138.875 11.7975 137.306 11.7975H136.426ZM149.959 11.6875L151.895 0.6875H153.215L152.533 4.5375H156.119C156.999 4.5375 157.733 4.83817 158.319 5.4395C158.906 6.04083 159.199 6.8035 159.199 7.7275C159.199 8.8715 158.818 9.8175 158.055 10.5655C157.293 11.3135 156.317 11.6875 155.129 11.6875H149.959ZM151.499 10.3675H155.349C156.053 10.3675 156.647 10.1255 157.131 9.6415C157.63 9.14283 157.879 8.5415 157.879 7.8375C157.879 7.2215 157.711 6.7375 157.373 6.3855C157.036 6.0335 156.581 5.8575 156.009 5.8575H152.291L151.499 10.3675Z" fill="white"/>
</svg>
