<svg width="367" height="117" viewBox="0 0 367 117" fill="none" xmlns="http://www.w3.org/2000/svg">
<path d="M49.5306 18.1755H40.8169C41.1838 21.0189 41.2755 23.1285 41.2755 25.0547C41.2755 27.1644 41.2755 33.6767 41.2755 37.2539H49.072C49.072 34.0436 49.072 27.1644 49.072 25.0547C49.072 23.1285 49.1637 21.0189 49.5306 18.1755ZM80.8083 35.9698L75.8553 32.8512C74.6629 33.2181 73.0118 33.585 69.6181 33.585H21.0047C17.7943 33.585 15.0426 33.4016 12.3827 33.2181C12.7496 35.1443 12.7496 38.2629 12.7496 40.1891C12.7496 43.3994 12.7496 53.3973 12.7496 56.3324C12.7496 58.1669 12.6578 60.6434 12.3827 62.2027H20.3626C20.1792 60.8269 20.0874 58.3503 20.0874 56.791C20.0874 53.9476 20.0874 44.1332 20.0874 40.3725H71.2691C70.4436 48.169 67.6002 59.2676 62.6471 67.064C56.9602 75.7778 46.9624 82.5653 37.6983 85.5922C34.7632 86.6929 31.2777 87.6101 28.2508 88.1604L34.2128 94.948C50.9982 90.3618 63.656 81.006 70.4436 68.9902C75.5801 60.2765 78.2401 48.8111 79.5242 41.4732C79.7994 39.7305 80.3497 37.2539 80.8083 35.9698ZM151.435 35.5112H143.639C144.006 37.5291 144.189 39.9139 144.189 41.7484C144.556 49.82 145.015 77.3371 145.015 88.1604C145.015 89.9032 144.189 90.9121 142.446 90.9121C139.786 90.9121 135.017 90.5452 131.256 89.9949L131.715 96.7824C135.292 96.9659 141.346 97.2411 144.923 97.2411C148.959 97.2411 151.894 94.948 151.894 91.0039C151.711 77.704 151.252 49.82 151.068 41.7484C151.068 39.6387 151.068 37.4374 151.435 35.5112ZM110.068 48.7194V56.0572C112.269 55.8738 114.654 55.7821 117.039 55.7821C120.341 55.7821 161.341 55.7821 164.644 55.7821C166.386 55.7821 168.955 55.8738 170.514 55.9655V48.7194C169.23 48.9945 166.295 49.178 164.368 49.178C160.608 49.178 120.8 49.178 116.947 49.178C114.746 49.178 112.269 49.0863 110.068 48.7194ZM107.683 83.8494L112.728 89.4446C126.762 82.1067 141.804 68.2565 146.666 59.2676L146.574 53.7642L142.813 53.6724C137.493 63.3034 122.451 76.7867 107.683 83.8494ZM227.749 38.8132L220.962 41.1063C222.888 45.1421 227.107 56.791 228.116 61.0103L234.904 58.5338C233.803 54.5897 229.309 42.4822 227.749 38.8132ZM260.953 43.9497L253.065 41.3815C251.597 53.1221 246.919 64.8627 240.407 72.8426C232.886 82.1984 221.145 89.1694 210.597 92.288L216.651 98.4335C226.832 94.5811 238.022 87.4266 246.553 76.695C253.065 68.4399 257.101 58.5338 259.486 48.4442C259.852 47.2518 260.311 45.7842 260.953 43.9497ZM206.378 43.3994L199.59 45.9677C201.425 49.178 206.378 61.9275 207.845 66.6972L214.725 64.1289C213.073 59.2676 208.212 47.2518 206.378 43.3994ZM290.396 27.8064L292.231 34.6857C300.394 34.5022 313.052 34.2271 323.325 32.8512C330.663 31.8423 339.193 30.1912 344.513 28.9071C345.889 28.5402 347.632 28.0816 349.65 27.5313L344.788 21.1106C340.294 23.1285 329.562 25.3299 321.215 26.4306C311.218 27.8064 297.276 28.1733 290.396 27.8064ZM295.533 90.3618L302.687 95.3149C319.84 85.5005 326.26 72.0171 326.26 52.48C326.26 52.48 326.26 37.9877 326.26 30.8333L318.922 31.8423C318.922 44.4084 318.922 52.6635 318.922 52.6635C318.922 71.5585 311.126 83.0239 295.533 90.3618ZM283.242 49.6366V57.2496C285.443 57.0662 288.47 56.9745 291.405 56.9745C297.092 56.9745 346.256 56.9745 351.759 56.9745C354.052 56.9745 356.896 57.0662 358.914 57.2496V49.7283C356.988 49.9118 353.594 50.0952 351.668 50.0952C345.981 50.0952 297.184 50.0952 291.314 50.0952C288.47 50.0952 285.26 49.82 283.242 49.6366Z" fill="#265BEE"/>
</svg>
