<svg width="199" height="24" viewBox="0 0 199 24" fill="none" xmlns="http://www.w3.org/2000/svg">
<g clip-path="url(#clip0_303_2825)">
<path d="M185.326 18.0511V7.82978H179.965V5.78723H187.467V18.0596H185.326V18.0511ZM179.974 16.0085H177.833V7.82978H179.974V16.0085ZM175.684 18.0511V16.0085H177.825V18.0511H175.684Z" fill="white"/>
<path d="M0.0446777 23.8553V23.8979H0.0892766H10.9892H11.0338V23.8553V22.0681V22.0255H10.9892H2.14082V1.91488H10.9803H11.0249V1.87233V0.0850947V0.0425415H10.9803H0.0892766H0.0446777V0.0850947V23.8553Z" fill="white" stroke="white"/>
<path d="M198.955 0.0850947V0.0425415H198.911H188.011H187.966V0.0850947V1.87233V1.91488H188.011H196.85V22.0255H188.011H187.966V22.0681V23.8553V23.8979H188.011H198.911H198.955V23.8553V0.0850947Z" fill="white" stroke="white"/>
<path d="M21.6749 5.78723V7.82978H15.2438V5.78723H21.6749ZM19.5342 16.0085V13.966H21.6749V11.9234H15.2438V9.88085H21.6749V7.82978H23.8157V18.0511H21.6749V16.0085H19.5342ZM13.103 9.87234V7.82978H15.2438V9.87234H13.103ZM13.103 16.0085V11.9149H15.2438V16.0085H13.103ZM15.2438 18.0511V16.0085H19.5342V18.0511H15.2438Z" fill="white"/>
<path d="M163.169 7.82978V5.78723H170.671V7.82978H163.169ZM161.02 16.0085V7.82978H163.16V10.8936H170.662V7.82978H172.803V12.9447H163.16V16.0085H161.02ZM170.671 16.0085V13.966H172.811V16.0085H170.671ZM163.169 18.0511V16.0085H170.671V18.0511H163.169Z" fill="white"/>
<path d="M148.853 7.82978V5.78723H155.284V7.82978H148.853ZM155.284 9.87234V7.82978H157.425V9.87234H155.284ZM146.712 16.0085V7.82978H148.853V16.0085H146.712ZM157.425 13.966V16.0085H155.284V13.966H157.425ZM148.853 18.0511V16.0085H155.284V18.0511H148.853Z" fill="white"/>
<path d="M36.4552 5.78723V7.82978H30.024V5.78723H36.4552ZM38.5959 10.8936H36.4552V7.82978H38.5959V10.8936ZM27.8833 9.87234V7.82978H30.024V9.87234H27.8833ZM31.0944 12.9447V10.9021H36.4552V12.9447H31.0944ZM38.5959 16.0085H36.4552V12.9447H38.5959V16.0085ZM27.8833 16.0085V13.966H30.024V16.0085H27.8833ZM30.024 18.0511V16.0085H36.4552V18.0511H30.024Z" fill="white"/>
<path d="M51.5384 5.78723V7.82978H45.1073V5.78723H51.5384ZM49.3977 16.0085V13.966H51.5384V11.9234H45.1073V9.88085H51.5384V7.82978H53.6792V18.0511H51.5384V16.0085H49.3977ZM42.9666 9.87234V7.82978H45.1073V9.87234H42.9666ZM42.9666 16.0085V11.9149H45.1073V16.0085H42.9666ZM45.1073 18.0511V16.0085H49.3977V18.0511H45.1073Z" fill="white"/>
<path d="M56.5869 21.1234V16.0085H58.7277V13.966H60.8684V16.0085H67.2996V7.82978H63.0091V13.966H60.8684V5.78723H69.4403V16.0085H71.581V21.1234H69.4403V18.0596H58.7277V21.1234H56.5869Z" fill="white"/>
<path d="M80.8667 18.0511V5.78723H89.4386V7.82978H83.0074V10.8936H89.4386V12.9362H83.0074V16H89.4386V18.0426H80.8667V18.0511ZM91.5883 10.8936H89.4475V7.82978H91.5883V10.8936ZM91.5883 16.0085H89.4475V12.9447H91.5883V16.0085Z" fill="white"/>
<path d="M117.018 18.0766V5.80426H119.159V13.983H121.3V16.0255H119.159V18.0681H117.018V18.0766ZM125.59 18.0766V11.9404H123.449V9.89788H125.59V5.80426H127.731V18.0766H125.59ZM121.3 13.983V11.9404H123.441V13.983H121.3Z" fill="white"/>
<path d="M142.921 5.78723V7.82978H140.781V5.78723H142.921ZM132.209 18.0511V11.9149V5.78723H134.349V10.8936H138.64V12.9362H134.349V18.0511H132.209ZM140.781 10.8936H138.64V7.82978H140.781V10.8936ZM138.631 16.0085V12.9447H140.772V16.0085H138.631ZM140.781 18.0511V16.0085H142.921V18.0511H140.781Z" fill="white"/>
<path fill-rule="evenodd" clip-rule="evenodd" d="M198.884 9.87234H193.639V5.78723H191.499V18.0596H198.893V16.017H193.648V11.9149H198.893V9.87234H198.884Z" fill="white"/>
<path fill-rule="evenodd" clip-rule="evenodd" d="M0.0891113 12.9447H6.45782V18.0596H8.59857V5.78723H6.45782V10.8936H0.0891113V12.9447Z" fill="white"/>
<path fill-rule="evenodd" clip-rule="evenodd" d="M101.766 5.78723H103.924V7.82978H103.906H106.047V9.79574H103.906V18.0511H101.766V5.78723ZM110.338 7.82978H106.047V5.78723H112.389V7.82978V18.0511H110.338V7.82978Z" fill="white"/>
</g>
<defs>
<clipPath id="clip0_303_2825">
<rect width="199" height="24" fill="white"/>
</clipPath>
</defs>
</svg>
