<svg width="202" height="20" viewBox="0 0 202 20" fill="none" xmlns="http://www.w3.org/2000/svg">
<path opacity="0.4" d="M0.82 13.8379V0.837891H2.77V6.42789H9.66V0.837891H11.61V13.8379H9.66V8.24789H2.77V13.8379H0.82ZM23.6919 13.8379L23.4319 12.2779H23.3019C23.0592 12.6246 22.7472 12.9279 22.3659 13.1879C21.5685 13.7946 20.5372 14.0979 19.2719 14.0979C17.9199 14.0979 16.8192 13.7252 15.9699 12.9799C15.1379 12.2346 14.7219 11.2639 14.7219 10.0679C14.7219 8.76789 15.1465 7.75389 15.9959 7.02589C16.8625 6.28056 18.1712 5.90789 19.9219 5.90789H23.4319V5.51789C23.4319 4.52989 23.1545 3.76722 22.5999 3.22989C22.0625 2.67522 21.2999 2.39789 20.3119 2.39789C19.3759 2.39789 18.6132 2.61456 18.0239 3.04789C17.4519 3.46389 17.1312 3.98389 17.0619 4.60789H15.1119C15.1812 3.49856 15.6752 2.55389 16.5939 1.77389C17.5299 0.976556 18.7692 0.577889 20.3119 0.577889C21.8892 0.577889 23.1285 1.01122 24.0299 1.87789C24.9312 2.74456 25.3819 3.95789 25.3819 5.51789V13.8379H23.6919ZM23.4319 8.24789V7.72789H19.9219C18.8125 7.72789 17.9892 7.94456 17.4519 8.37789C16.9319 8.81122 16.6719 9.37456 16.6719 10.0679C16.6719 10.7439 16.8972 11.2812 17.3479 11.6799C17.7985 12.0786 18.4399 12.2779 19.2719 12.2779C20.5719 12.2779 21.5859 11.9226 22.3139 11.2119C23.0592 10.4839 23.4319 9.49589 23.4319 8.24789ZM27.989 9.80789H29.939C29.939 10.5012 30.2163 11.0906 30.771 11.5759C31.343 12.0439 32.1057 12.2779 33.059 12.2779C34.1163 12.2779 34.8963 12.0872 35.399 11.7059C35.919 11.3246 36.179 10.8219 36.179 10.1979C36.179 9.59122 35.919 9.09722 35.399 8.71589C34.879 8.31722 34.1423 8.11789 33.189 8.11789H32.019V6.42789H33.189C34.073 6.42789 34.749 6.23722 35.217 5.85589C35.685 5.45722 35.919 4.95456 35.919 4.34789C35.919 3.79322 35.6763 3.33389 35.191 2.96989C34.7057 2.58856 33.995 2.39789 33.059 2.39789C32.1577 2.39789 31.4557 2.61456 30.953 3.04789C30.4503 3.48122 30.199 4.04456 30.199 4.73789H28.249C28.249 3.55922 28.6997 2.57122 29.601 1.77389C30.5023 0.976556 31.655 0.577889 33.059 0.577889C34.567 0.577889 35.7457 0.94189 36.595 1.66989C37.4443 2.38056 37.869 3.28189 37.869 4.37389C37.869 5.27522 37.5223 6.02056 36.829 6.60989C36.4997 6.88722 36.153 7.08656 35.789 7.20789V7.33789C36.4303 7.49389 36.9763 7.83189 37.427 8.35189C37.895 8.85456 38.129 9.47856 38.129 10.2239C38.129 11.3506 37.6783 12.2779 36.777 13.0059C35.8757 13.7339 34.6363 14.0979 33.059 14.0979C31.5337 14.0979 30.303 13.6906 29.367 12.8759C28.4483 12.0439 27.989 11.0212 27.989 9.80789ZM49.438 13.8379L49.178 12.2779H49.048C48.8053 12.6246 48.4933 12.9279 48.112 13.1879C47.3146 13.7946 46.2833 14.0979 45.018 14.0979C43.666 14.0979 42.5653 13.7252 41.716 12.9799C40.884 12.2346 40.468 11.2639 40.468 10.0679C40.468 8.76789 40.8926 7.75389 41.742 7.02589C42.6086 6.28056 43.9173 5.90789 45.668 5.90789H49.178V5.51789C49.178 4.52989 48.9006 3.76722 48.346 3.22989C47.8086 2.67522 47.046 2.39789 46.058 2.39789C45.122 2.39789 44.3593 2.61456 43.77 3.04789C43.198 3.46389 42.8773 3.98389 42.808 4.60789H40.858C40.9273 3.49856 41.4213 2.55389 42.34 1.77389C43.276 0.976556 44.5153 0.577889 46.058 0.577889C47.6353 0.577889 48.8746 1.01122 49.776 1.87789C50.6773 2.74456 51.128 3.95789 51.128 5.51789V13.8379H49.438ZM49.178 8.24789V7.72789H45.668C44.5586 7.72789 43.7353 7.94456 43.198 8.37789C42.678 8.81122 42.418 9.37456 42.418 10.0679C42.418 10.7439 42.6433 11.2812 43.094 11.6799C43.5446 12.0786 44.186 12.2779 45.018 12.2779C46.318 12.2779 47.332 11.9226 48.06 11.2119C48.8053 10.4839 49.178 9.49589 49.178 8.24789ZM52.9551 16.9579V12.0179H53.2151C53.8044 12.0179 54.2377 11.8792 54.5151 11.6019C54.8097 11.3246 54.9831 10.8566 55.0351 10.1979L55.8151 0.837891H64.5251V12.0179H66.3451V16.9579H64.3951V13.8379H54.9051V16.9579H52.9551ZM56.3351 12.0179H62.5751V2.65789H57.6351L56.9851 10.1979C56.9157 10.9086 56.7944 11.3939 56.6211 11.6539C56.5517 11.7926 56.4564 11.9139 56.3351 12.0179ZM67.6491 19.0379H79.0891V16.9579H67.6491V19.0379ZM81.8191 13.8379H90.1391V11.7579H83.8991V8.63789H90.1391V6.55789H83.8991V3.43789H90.1391V1.35789H81.8191V13.8379ZM92.2191 6.55789V3.43789H90.1391V6.55789H92.2191ZM92.2191 11.7579V8.63789H90.1391V11.7579H92.2191ZM94.5632 19.0379H106.003V16.9579H94.5632V19.0379ZM108.733 13.8379H110.813V3.43789H117.053V13.8379H119.133V1.35789H108.733V13.8379ZM123.028 13.8379H125.108V11.7579H127.188V9.67789H125.108V1.35789H123.028V13.8379ZM131.348 13.8379H133.428V1.35789H131.348V5.51789H129.268V7.59789H131.348V13.8379ZM127.188 9.67789H129.268V7.59789H127.188V9.67789ZM147.723 1.35789H145.643V3.43789H147.723V1.35789ZM137.323 13.8379H139.403V8.63789H143.563V6.55789H139.403V1.35789H137.323V13.8379ZM145.643 6.55789V3.43789H143.563V6.55789H145.643ZM143.563 11.7579H145.643V8.63789H143.563V11.7579ZM145.643 13.8379H147.723V11.7579H145.643V13.8379ZM152.699 3.43789H158.939V1.35789H152.699V3.43789ZM158.939 5.51789H161.019V3.43789H158.939V5.51789ZM150.619 11.7579H152.699V3.43789H150.619V11.7579ZM161.019 9.67789H158.939V11.7579H161.019V9.67789ZM152.699 13.8379H158.939V11.7579H152.699V13.8379ZM165.725 3.43789H173.005V1.35789H165.725V3.43789ZM163.645 11.7579H165.725V8.63789H175.085V3.43789H173.005V6.55789H165.725V3.43789H163.645V11.7579ZM173.005 11.7579H175.085V9.67789H173.005V11.7579ZM165.725 13.8379H173.005V11.7579H165.725V13.8379ZM186.278 13.8379H188.358V1.35789H181.078V3.43789H186.278V13.8379ZM181.078 11.7579V3.43789H178.998V11.7579H181.078ZM176.918 13.8379H178.998V11.7579H176.918V13.8379ZM192.268 13.8379H199.548V11.7579H194.348V7.59789H199.548V5.51789H194.348V1.35789H192.268V13.8379ZM201.628 11.7579V7.59789H199.548V11.7579H201.628Z" fill="white"/>
</svg>
