<svg width="122" height="40" viewBox="0 0 122 40" fill="none" xmlns="http://www.w3.org/2000/svg">
<path d="M12.7359 10.4121H14.6373C13.9733 12.0217 13.0075 13.3093 11.74 14.2751C10.4926 15.2207 9.09422 15.6936 7.54498 15.6936C5.6537 15.6936 4.12459 15.1 2.95763 13.9129C1.79067 12.7057 1.2072 11.0861 1.2072 9.05398C1.2072 6.53898 2.01199 4.40627 3.62159 2.65583C5.25131 0.885278 7.1124 0 9.20487 0C10.9352 0 12.3033 0.462759 13.3093 1.38828C14.3153 2.29367 14.9692 3.54111 15.271 5.13059H13.3697C13.1081 4.10447 12.6152 3.29967 11.8909 2.71619C11.1666 2.11259 10.2209 1.8108 9.05398 1.8108C7.50474 1.8108 6.1064 2.48481 4.85897 3.83285C3.63165 5.18089 3.01799 6.82066 3.01799 8.75218C3.01799 10.3014 3.45057 11.5488 4.31573 12.4945C5.18089 13.42 6.3076 13.8828 7.69588 13.8828C8.74212 13.8828 9.70787 13.5709 10.5932 12.9472C11.4985 12.3235 12.2128 11.4784 12.7359 10.4121Z" fill="white"/>
<path d="M28.6117 11.1666H30.6036C30.4628 11.4684 30.2817 11.7903 30.0604 12.1323C29.8592 12.4542 29.5473 12.8365 29.1248 13.2792C28.7224 13.7218 28.2798 14.1141 27.7969 14.4562C27.3341 14.7982 26.7506 15.09 26.0464 15.3314C25.3422 15.5728 24.6079 15.6936 23.8433 15.6936C21.952 15.6936 20.4229 15.1 19.256 13.9129C18.089 12.7057 17.5055 11.0861 17.5055 9.05398C17.5055 6.53898 18.3103 4.40627 19.9199 2.65583C21.5496 0.885278 23.4107 0 25.5032 0C27.3945 0 28.8934 0.593539 30 1.78062C31.1267 2.94757 31.6901 4.51693 31.6901 6.48868C31.6901 7.09228 31.6499 7.54498 31.5694 7.84678L31.3883 8.75218H19.3163C19.3163 10.3014 19.7489 11.5488 20.6141 12.4945C21.4993 13.42 22.6361 13.8828 24.0244 13.8828C24.7889 13.8828 25.5233 13.7017 26.2275 13.3395C26.9317 12.9572 27.4448 12.5951 27.7667 12.253C28.1087 11.8909 28.3904 11.5287 28.6117 11.1666ZM19.5276 6.94138H29.8793C29.8793 5.35191 29.4769 4.10447 28.6721 3.19907C27.8874 2.27355 26.7808 1.8108 25.3523 1.8108C23.964 1.8108 22.7367 2.31379 21.6704 3.31979C20.6241 4.30567 19.9099 5.51287 19.5276 6.94138Z" fill="white"/>
<path d="M34.0951 15.3918L36.7509 0.301801H46.1067L45.7747 2.11259H38.2297L35.9058 15.3918H34.0951Z" fill="white"/>
<path d="M56.7489 9.05398L56.9601 7.99768H52.0408C50.7129 7.99768 49.6968 8.29948 48.9926 8.90308C48.3085 9.50667 47.9665 10.3115 47.9665 11.3175C47.9665 12.1223 48.2381 12.756 48.7814 13.2188C49.3447 13.6614 50.1797 13.8828 51.2863 13.8828C52.7148 13.8828 53.9019 13.4602 54.8475 12.6152C55.8133 11.7702 56.4471 10.5831 56.7489 9.05398ZM55.9642 15.3918L56.0245 13.2792H55.8736C55.4712 13.7419 55.0286 14.1443 54.5457 14.4864C53.419 15.2912 52.2319 15.6936 50.9845 15.6936C49.5157 15.6936 48.3387 15.3113 47.4534 14.5467C46.5883 13.762 46.1557 12.7862 46.1557 11.6193C46.1557 10.0097 46.6688 8.73206 47.6949 7.78642C48.7411 6.82066 50.1897 6.33778 52.0408 6.33778H57.2619L57.3223 6.03598C57.4229 5.67382 57.4732 5.32173 57.4732 4.97969C57.4732 3.97369 57.1512 3.19907 56.5074 2.65583C55.8837 2.09247 54.9481 1.8108 53.7007 1.8108C52.5337 1.8108 51.5981 2.07236 50.8939 2.59547C50.1898 3.09847 49.737 3.79261 49.5359 4.67789H47.7251C48.047 3.34997 48.721 2.24337 49.7471 1.3581C50.7732 0.452699 52.1414 0 53.8516 0C55.5618 0 56.8897 0.432579 57.8353 1.29774C58.8011 2.14278 59.284 3.26949 59.284 4.67789C59.284 5.22113 59.2337 5.67382 59.1331 6.03598L57.4732 15.3918H55.9642Z" fill="white"/>
<path d="M64.7654 15.3918L67.0892 2.11259H61.9587L62.2906 0.301801H74.3626L74.0306 2.11259H68.9L66.5762 15.3918H64.7654Z" fill="white"/>
<path d="M85.0131 9.05398L85.2243 7.99768H80.305C78.9771 7.99768 77.961 8.29948 77.2568 8.90308C76.5727 9.50667 76.2307 10.3115 76.2307 11.3175C76.2307 12.1223 76.5023 12.756 77.0456 13.2188C77.6089 13.6614 78.4439 13.8828 79.5505 13.8828C80.979 13.8828 82.1661 13.4602 83.1117 12.6152C84.0775 11.7702 84.7113 10.5831 85.0131 9.05398ZM84.2284 15.3918L84.2887 13.2792H84.1378C83.7354 13.7419 83.2928 14.1443 82.8099 14.4864C81.6832 15.2912 80.4961 15.6936 79.2487 15.6936C77.7799 15.6936 76.6029 15.3113 75.7176 14.5467C74.8525 13.762 74.4199 12.7862 74.4199 11.6193C74.4199 10.0097 74.933 8.73206 75.9591 7.78642C77.0053 6.82066 78.454 6.33778 80.305 6.33778H85.5261L85.5865 6.03598C85.6871 5.67382 85.7374 5.32173 85.7374 4.97969C85.7374 3.97369 85.4155 3.19907 84.7716 2.65583C84.1479 2.09247 83.2123 1.8108 81.9649 1.8108C80.7979 1.8108 79.8624 2.07236 79.1582 2.59547C78.454 3.09847 78.0013 3.79261 77.8 4.67789H75.9893C76.3112 3.34997 76.9852 2.24337 78.0113 1.3581C79.0374 0.452699 80.4056 0 82.1158 0C83.826 0 85.1539 0.432579 86.0995 1.29774C87.0653 2.14278 87.5482 3.26949 87.5482 4.67789C87.5482 5.22113 87.4979 5.67382 87.3973 6.03598L85.7374 15.3918H84.2284Z" fill="white"/>
<path d="M11.7702 28.9843H13.7319C13.3496 30.6543 12.5649 31.952 11.3778 32.8775C10.2109 33.8031 8.78236 34.2658 7.09228 34.2658C4.99981 34.2658 3.28961 33.5516 1.96169 32.123C0.653898 30.6945 0 28.7932 0 26.419C0 24.0449 0.653898 22.1435 1.96169 20.715C3.28961 19.2865 4.99981 18.5723 7.09228 18.5723C8.76224 18.5723 10.1908 19.035 11.3778 19.9605C12.5649 20.8659 13.3496 22.1134 13.7319 23.7028H11.7702C11.5488 22.898 11.0458 22.1435 10.2612 21.4394C9.49661 20.7352 8.44032 20.3831 7.09228 20.3831C5.54305 20.3831 4.27549 20.9263 3.28961 22.0128C2.30373 23.0992 1.81079 24.568 1.81079 26.419C1.81079 28.2701 2.30373 29.7388 3.28961 30.8253C4.27549 31.9118 5.54305 32.455 7.09228 32.455C8.4202 32.455 9.47649 32.0828 10.2612 31.3384C11.0458 30.5939 11.5488 29.8092 11.7702 28.9843Z" fill="white"/>
<path d="M27.1631 33.964L26.8613 31.8514H26.7104C26.4086 32.2739 25.9961 32.6763 25.473 33.0586C24.3463 33.8634 23.0989 34.2658 21.7307 34.2658C20.1815 34.2658 18.934 33.8332 17.9884 32.9681C17.0629 32.1029 16.6001 30.9762 16.6001 29.5879C16.6001 28.1594 17.1031 27.0226 18.1091 26.1776C19.1151 25.3326 20.5738 24.91 22.4852 24.91H26.8613V24.3064C26.8613 21.6908 25.5535 20.3831 22.9379 20.3831C21.7508 20.3831 20.7951 20.6446 20.0708 21.1677C19.3666 21.6908 18.9642 22.385 18.8636 23.2501H17.0528C17.2339 21.9021 17.8274 20.7854 18.8334 19.9002C19.8394 19.0149 21.2076 18.5723 22.9379 18.5723C24.7688 18.5723 26.1772 19.0753 27.1631 20.0813C28.1691 21.0671 28.6721 22.4755 28.6721 24.3064V33.964H27.1631ZM26.8613 27.3244V26.5699H22.4852C21.1573 26.5699 20.1412 26.8516 19.437 27.415C18.753 27.9783 18.4109 28.7027 18.4109 29.5879C18.4109 30.4531 18.7027 31.1472 19.2861 31.6703C19.8696 32.1935 20.6845 32.455 21.7307 32.455C23.3202 32.455 24.5676 32.0023 25.473 31.0969C26.3985 30.1714 26.8613 28.9139 26.8613 27.3244Z" fill="white"/>
<path d="M33.5056 33.964V18.8741H35.3164V25.5136H43.9177V18.8741H45.7285V33.964H43.9177V27.3244H35.3164V33.964H33.5056Z" fill="white"/>
<path d="M50.5702 33.964V18.8741H52.381V32.1532H59.0206V18.8741H60.8314V32.1532H67.471V18.8741H69.2818V33.964H50.5702Z" fill="white"/>
<path d="M74.1188 33.964V18.8741H75.9296V32.0023H76.5332L83.0219 18.8741H86.3417V33.964H84.5309V20.8358H83.9273L77.4386 33.964H74.1188Z" fill="white"/>
<path d="M94.4429 30.8253C95.4086 31.9118 96.6359 32.455 98.1248 32.455C99.6137 32.455 100.841 31.9118 101.807 30.8253C102.773 29.7388 103.255 28.2701 103.255 26.419C103.255 24.568 102.773 23.0992 101.807 22.0128C100.841 20.9263 99.6137 20.3831 98.1248 20.3831C96.6359 20.3831 95.4086 20.9263 94.4429 22.0128C93.4771 23.0992 92.9942 24.568 92.9942 26.419C92.9942 28.2701 93.4771 29.7388 94.4429 30.8253ZM91.1834 40V18.8741H92.6924L92.9942 21.2884H93.1451C93.5475 20.6446 94.1914 20.031 95.0766 19.4475C95.9619 18.864 97.0283 18.5723 98.2757 18.5723C100.207 18.5723 101.817 19.2966 103.104 20.7452C104.412 22.1737 105.066 24.065 105.066 26.419C105.066 28.7731 104.412 30.6744 103.104 32.123C101.817 33.5516 100.207 34.2658 98.2757 34.2658C97.0283 34.2658 95.9619 33.9741 95.0766 33.3906C94.1914 32.8071 93.5475 32.1935 93.1451 31.5496H92.9942V40H91.1834Z" fill="white"/>
<path d="M119.914 32.0627C118.545 33.5314 116.865 34.2658 114.873 34.2658C112.882 34.2658 111.202 33.5314 109.833 32.0627C108.465 30.5939 107.781 28.7127 107.781 26.419C107.781 24.1254 108.465 22.2441 109.833 20.7754C111.202 19.3066 112.882 18.5723 114.873 18.5723C116.865 18.5723 118.545 19.3066 119.914 20.7754C121.282 22.2441 121.966 24.1254 121.966 26.419C121.966 28.7127 121.282 30.5939 119.914 32.0627ZM118.616 30.7649C119.642 29.6382 120.155 28.1896 120.155 26.419C120.155 24.6485 119.642 23.1998 118.616 22.0731C117.59 20.9464 116.342 20.3831 114.873 20.3831C113.405 20.3831 112.157 20.9464 111.131 22.0731C110.105 23.1998 109.592 24.6485 109.592 26.419C109.592 28.1896 110.105 29.6382 111.131 30.7649C112.157 31.8917 113.405 32.455 114.873 32.455C116.342 32.455 117.59 31.8917 118.616 30.7649Z" fill="white"/>
</svg>
