<svg width="273" height="117" viewBox="0 0 273 117" fill="none" xmlns="http://www.w3.org/2000/svg">
<path d="M40.5418 19.4596L31.828 18.7258C32.0115 20.652 31.828 23.7706 31.4611 26.3389C30.8191 31.1085 28.4343 42.6656 26.2329 51.1042C22.7474 64.0372 16.3268 82.657 10.8234 92.1963L18.8033 94.8562C23.6646 84.8584 29.8101 65.8716 33.1122 52.8469C35.6804 43.6746 37.6066 33.3098 38.9825 26.7057C39.3493 24.963 39.9914 21.4775 40.5418 19.4596ZM20.2709 34.7774C16.8771 34.7774 13.5751 34.594 9.26406 34.0436L9.44751 41.198C12.8413 41.4732 16.0516 41.5649 20.0874 41.5649C29.9936 41.5649 43.8438 40.0056 55.2175 37.4374V30.283C43.8438 33.1264 30.3605 34.7774 20.2709 34.7774ZM49.2555 47.3435V54.2228C54.8506 53.5807 60.5375 53.2138 66.2243 53.2138C71.636 53.2138 76.9559 53.7642 81.7256 54.3145L81.909 47.3435C76.9559 46.7932 71.3608 46.6097 66.0409 46.6097C60.1706 46.6097 54.0251 46.8849 49.2555 47.3435ZM51.0899 69.6323L44.3024 68.9902C43.4769 72.8426 42.9266 76.3281 42.9266 79.8136C42.9266 88.8942 50.8148 93.2969 65.2153 93.2969C71.9112 93.2969 78.0566 92.7466 83.0097 92.0128L83.2849 84.6749C77.598 85.7756 71.3608 86.4177 65.3071 86.4177C52.2823 86.4177 49.8058 82.1984 49.8058 77.8874C49.8058 75.5026 50.3562 72.6592 51.0899 69.6323ZM141.412 18.8175H133.616C133.891 20.0099 133.983 22.7616 133.983 24.3209C133.983 30.7416 133.983 40.3725 133.983 48.6276C133.983 56.6993 134.9 74.3102 134.9 81.3729C134.9 87.7935 130.406 89.3528 125.086 89.3528C116.005 89.3528 112.428 86.2342 112.428 81.9232C112.428 77.704 117.106 74.3102 125.911 74.3102C142.238 74.3102 155.813 83.4825 164.068 91.0956L168.287 84.5832C161.225 78.8046 146.09 68.3482 126.737 68.3482C113.529 68.3482 105.549 73.9433 105.549 82.2901C105.549 91.1873 112.795 95.8652 126.003 95.8652C137.927 95.8652 142.146 89.3528 142.146 82.9322C142.146 76.7867 140.77 60.7351 140.77 48.6276C140.77 40.9229 140.77 28.6319 140.954 24.963C141.046 22.2113 141.229 20.3768 141.412 18.8175ZM106.374 28.7237L106.466 35.5112C112.244 36.245 123.526 37.0705 129.855 37.0705C142.146 37.0705 155.263 35.8781 165.627 34.6857V27.9899C153.703 29.9161 141.412 30.7416 129.764 30.7416C123.71 30.7416 112.244 29.8243 106.374 28.7237ZM105.915 48.2607L106.007 55.14C112.52 55.8738 122.609 56.3324 128.938 56.3324C142.697 56.3324 153.887 55.6903 166.361 54.131V47.2518C154.437 48.9945 142.238 49.9118 128.938 49.9118C122.884 49.9118 112.428 49.2697 105.915 48.2607ZM200.482 28.1733V35.6946C207.728 36.245 215.617 36.7036 224.789 36.7036C233.228 36.7036 243.317 36.0615 249.554 35.6029V28.0816C242.859 28.7237 233.594 29.3657 224.789 29.3657C215.617 29.3657 207.086 28.9988 200.482 28.1733ZM204.243 65.1379L196.722 64.4958C195.896 68.1647 194.887 72.4757 194.887 77.2453C194.887 88.7108 205.619 94.8562 224.33 94.8562C237.355 94.8562 249.004 93.4804 255.608 91.6459L255.516 83.8494C248.545 86.0508 236.805 87.4266 224.147 87.4266C209.379 87.4266 202.317 82.657 202.317 75.5943C202.317 72.2006 203.051 68.8068 204.243 65.1379ZM252.123 17.992L247.17 20.1017C249.646 23.4954 252.765 29.0906 254.599 32.8512L259.644 30.6499C257.718 26.8892 254.416 21.2941 252.123 17.992ZM262.212 14.3231L257.351 16.4327C259.919 19.8265 262.946 25.0547 264.964 29.0906L269.917 26.7975C268.174 23.4037 264.597 17.7168 262.212 14.3231Z" fill="#265BEE"/>
</svg>
