<svg width="160" height="38" viewBox="0 0 160 38" fill="none" xmlns="http://www.w3.org/2000/svg">
<path d="M17.68 0.399999H13.69C13.858 1.702 13.9 2.668 13.9 3.55C13.9 4.516 13.9 7.498 13.9 9.136H17.47C17.47 7.666 17.47 4.516 17.47 3.55C17.47 2.668 17.512 1.702 17.68 0.399999ZM32.002 8.548L29.734 7.12C29.188 7.288 28.432 7.456 26.878 7.456H4.618C3.148 7.456 1.888 7.372 0.67 7.288C0.838001 8.17 0.838001 9.598 0.838001 10.48C0.838001 11.95 0.838001 16.528 0.838001 17.872C0.838001 18.712 0.796 19.846 0.67 20.56H4.324C4.24 19.93 4.198 18.796 4.198 18.082C4.198 16.78 4.198 12.286 4.198 10.564H27.634C27.256 14.134 25.954 19.216 23.686 22.786C21.082 26.776 16.504 29.884 12.262 31.27C10.918 31.774 9.322 32.194 7.936 32.446L10.666 35.554C18.352 33.454 24.148 29.17 27.256 23.668C29.608 19.678 30.826 14.428 31.414 11.068C31.54 10.27 31.792 9.136 32.002 8.548ZM64.342 8.338H60.772C60.94 9.262 61.024 10.354 61.024 11.194C61.192 14.89 61.402 27.49 61.402 32.446C61.402 33.244 61.024 33.706 60.226 33.706C59.008 33.706 56.824 33.538 55.102 33.286L55.312 36.394C56.95 36.478 59.722 36.604 61.36 36.604C63.208 36.604 64.552 35.554 64.552 33.748C64.468 27.658 64.258 14.89 64.174 11.194C64.174 10.228 64.174 9.22 64.342 8.338ZM45.4 14.386V17.746C46.408 17.662 47.5 17.62 48.592 17.62C50.104 17.62 68.878 17.62 70.39 17.62C71.188 17.62 72.364 17.662 73.078 17.704V14.386C72.49 14.512 71.146 14.596 70.264 14.596C68.542 14.596 50.314 14.596 48.55 14.596C47.542 14.596 46.408 14.554 45.4 14.386ZM44.308 30.472L46.618 33.034C53.044 29.674 59.932 23.332 62.158 19.216L62.116 16.696L60.394 16.654C57.958 21.064 51.07 27.238 44.308 30.472ZM99.286 9.85L96.178 10.9C97.06 12.748 98.992 18.082 99.454 20.014L102.562 18.88C102.058 17.074 100 11.53 99.286 9.85ZM114.49 12.202L110.878 11.026C110.206 16.402 108.064 21.778 105.082 25.432C101.638 29.716 96.262 32.908 91.432 34.336L94.204 37.15C98.866 35.386 103.99 32.11 107.896 27.196C110.878 23.416 112.726 18.88 113.818 14.26C113.986 13.714 114.196 13.042 114.49 12.202ZM89.5 11.95L86.392 13.126C87.232 14.596 89.5 20.434 90.172 22.618L93.322 21.442C92.566 19.216 90.34 13.714 89.5 11.95ZM127.972 4.81L128.812 7.96C132.55 7.876 138.346 7.75 143.05 7.12C146.41 6.658 150.316 5.902 152.752 5.314C153.382 5.146 154.18 4.936 155.104 4.684L152.878 1.744C150.82 2.668 145.906 3.676 142.084 4.18C137.506 4.81 131.122 4.978 127.972 4.81ZM130.324 33.454L133.6 35.722C141.454 31.228 144.394 25.054 144.394 16.108C144.394 16.108 144.394 9.472 144.394 6.196L141.034 6.658C141.034 12.412 141.034 16.192 141.034 16.192C141.034 24.844 137.464 30.094 130.324 33.454ZM124.696 14.806V18.292C125.704 18.208 127.09 18.166 128.434 18.166C131.038 18.166 153.55 18.166 156.07 18.166C157.12 18.166 158.422 18.208 159.346 18.292V14.848C158.464 14.932 156.91 15.016 156.028 15.016C153.424 15.016 131.08 15.016 128.392 15.016C127.09 15.016 125.62 14.89 124.696 14.806Z" fill="#265BEE"/>
</svg>
