<svg width="17" height="17" viewBox="0 0 17 17" fill="none" xmlns="http://www.w3.org/2000/svg">
<path d="M0.377469 2.432L1.86147 0.947999L14.3775 13.492V3.972H16.3655V15.62L15.0495 16.936H3.42947V14.92H12.8935L0.377469 2.432Z" fill="black"/>
<path d="M0.377469 2.432L0.222004 2.27653L0.0663648 2.43217L0.222178 2.58764L0.377469 2.432ZM1.86147 0.947999L2.01711 0.792708L1.86164 0.636896L1.706 0.792534L1.86147 0.947999ZM14.3775 13.492L14.2218 13.6473L14.5973 14.0236V13.492H14.3775ZM14.3775 3.972V3.75214H14.1576V3.972H14.3775ZM16.3655 3.972H16.5853V3.75214H16.3655V3.972ZM16.3655 15.62L16.5209 15.7755L16.5853 15.7111V15.62H16.3655ZM15.0495 16.936V17.1559H15.1405L15.2049 17.0915L15.0495 16.936ZM3.42947 16.936H3.20961V17.1559H3.42947V16.936ZM3.42947 14.92V14.7001H3.20961V14.92H3.42947ZM12.8935 14.92V15.1399H13.4251L13.0488 14.7644L12.8935 14.92ZM0.532934 2.58746L2.01693 1.10346L1.706 0.792534L0.222004 2.27653L0.532934 2.58746ZM1.70583 1.10329L14.2218 13.6473L14.5331 13.3367L2.01711 0.792708L1.70583 1.10329ZM14.5973 13.492V3.972H14.1576V13.492H14.5973ZM14.3775 4.19186H16.3655V3.75214H14.3775V4.19186ZM16.1456 3.972V15.62H16.5853V3.972H16.1456ZM16.21 15.4645L14.894 16.7805L15.2049 17.0915L16.5209 15.7755L16.21 15.4645ZM15.0495 16.7161H3.42947V17.1559H15.0495V16.7161ZM3.64933 16.936V14.92H3.20961V16.936H3.64933ZM3.42947 15.1399H12.8935V14.7001H3.42947V15.1399ZM13.0488 14.7644L0.53276 2.27636L0.222178 2.58764L12.7382 15.0756L13.0488 14.7644Z" fill="black"/>
</svg>
