<svg width="120" height="38" viewBox="0 0 120 38" fill="none" xmlns="http://www.w3.org/2000/svg">
<path d="M14.564 2.988L10.574 2.652C10.658 3.534 10.574 4.962 10.406 6.138C10.112 8.322 9.02 13.614 8.012 17.478C6.416 23.4 3.476 31.926 0.956 36.294L4.61 37.512C6.836 32.934 9.65 24.24 11.162 18.276C12.338 14.076 13.22 9.33 13.85 6.306C14.018 5.508 14.312 3.912 14.564 2.988ZM5.282 10.002C3.728 10.002 2.216 9.918 0.242 9.666L0.326 12.942C1.88 13.068 3.35 13.11 5.198 13.11C9.734 13.11 16.076 12.396 21.284 11.22V7.944C16.076 9.246 9.902 10.002 5.282 10.002ZM18.554 15.756V18.906C21.116 18.612 23.72 18.444 26.324 18.444C28.802 18.444 31.238 18.696 33.422 18.948L33.506 15.756C31.238 15.504 28.676 15.42 26.24 15.42C23.552 15.42 20.738 15.546 18.554 15.756ZM19.394 25.962L16.286 25.668C15.908 27.432 15.656 29.028 15.656 30.624C15.656 34.782 19.268 36.798 25.862 36.798C28.928 36.798 31.742 36.546 34.01 36.21L34.136 32.85C31.532 33.354 28.676 33.648 25.904 33.648C19.94 33.648 18.806 31.716 18.806 29.742C18.806 28.65 19.058 27.348 19.394 25.962ZM60.7525 2.694H57.1825C57.3085 3.24 57.3505 4.5 57.3505 5.214C57.3505 8.154 57.3505 12.564 57.3505 16.344C57.3505 20.04 57.7705 28.104 57.7705 31.338C57.7705 34.278 55.7125 34.992 53.2765 34.992C49.1185 34.992 47.4805 33.564 47.4805 31.59C47.4805 29.658 49.6225 28.104 53.6545 28.104C61.1305 28.104 67.3465 32.304 71.1265 35.79L73.0585 32.808C69.8245 30.162 62.8945 25.374 54.0325 25.374C47.9845 25.374 44.3305 27.936 44.3305 31.758C44.3305 35.832 47.6485 37.974 53.6965 37.974C59.1565 37.974 61.0885 34.992 61.0885 32.052C61.0885 29.238 60.4585 21.888 60.4585 16.344C60.4585 12.816 60.4585 7.188 60.5425 5.508C60.5845 4.248 60.6685 3.408 60.7525 2.694ZM44.7085 7.23L44.7505 10.338C47.3965 10.674 52.5625 11.052 55.4605 11.052C61.0885 11.052 67.0945 10.506 71.8405 9.96V6.894C66.3805 7.776 60.7525 8.154 55.4185 8.154C52.6465 8.154 47.3965 7.734 44.7085 7.23ZM44.4985 16.176L44.5405 19.326C47.5225 19.662 52.1425 19.872 55.0405 19.872C61.3405 19.872 66.4645 19.578 72.1765 18.864V15.714C66.7165 16.512 61.1305 16.932 55.0405 16.932C52.2685 16.932 47.4805 16.638 44.4985 16.176ZM87.8005 6.978V10.422C91.1185 10.674 94.7305 10.884 98.9305 10.884C102.795 10.884 107.415 10.59 110.271 10.38V6.936C107.205 7.23 102.963 7.524 98.9305 7.524C94.7305 7.524 90.8245 7.356 87.8005 6.978ZM89.5225 23.904L86.0785 23.61C85.7005 25.29 85.2385 27.264 85.2385 29.448C85.2385 34.698 90.1525 37.512 98.7205 37.512C104.685 37.512 110.019 36.882 113.043 36.042L113.001 32.472C109.809 33.48 104.433 34.11 98.6365 34.11C91.8745 34.11 88.6405 31.926 88.6405 28.692C88.6405 27.138 88.9765 25.584 89.5225 23.904ZM111.447 2.316L109.179 3.282C110.313 4.836 111.741 7.398 112.581 9.12L114.891 8.112C114.009 6.39 112.497 3.828 111.447 2.316ZM116.067 0.635997L113.841 1.602C115.017 3.156 116.403 5.55 117.327 7.398L119.595 6.348C118.797 4.794 117.159 2.19 116.067 0.635997Z" fill="#265BEE"/>
</svg>
