<svg width="195" height="18" viewBox="0 0 195 18" fill="none" xmlns="http://www.w3.org/2000/svg">
<path opacity="0.4" d="M0.0800001 13.5542L2.368 0.554199H3.928L2.914 6.2742H10.324L11.338 0.554199H12.898L10.61 13.5542H9.05L10.038 7.8342H2.628L1.64 13.5542H0.0800001ZM24.1412 8.0942L24.3232 7.1842H20.0852C18.9412 7.1842 18.0658 7.4442 17.4592 7.9642C16.8698 8.4842 16.5752 9.17753 16.5752 10.0442C16.5752 10.7375 16.8092 11.2835 17.2772 11.6822C17.7625 12.0635 18.4818 12.2542 19.4352 12.2542C20.6658 12.2542 21.6885 11.8902 22.5032 11.1622C23.3352 10.4342 23.8812 9.41153 24.1412 8.0942ZM23.4652 13.5542L23.5172 11.7342H23.3872C23.0405 12.1329 22.6592 12.4795 22.2432 12.7742C21.2725 13.4675 20.2498 13.8142 19.1752 13.8142C17.9098 13.8142 16.8958 13.4849 16.1332 12.8262C15.3878 12.1502 15.0152 11.3095 15.0152 10.3042C15.0152 8.91753 15.4572 7.81687 16.3412 7.0022C17.2425 6.1702 18.4905 5.7542 20.0852 5.7542H24.5832L24.6352 5.4942C24.7218 5.1822 24.7652 4.87887 24.7652 4.5842C24.7652 3.71753 24.4878 3.0502 23.9332 2.5822C23.3958 2.09687 22.5898 1.8542 21.5152 1.8542C20.5098 1.8542 19.7038 2.07953 19.0972 2.5302C18.4905 2.96353 18.1005 3.56153 17.9272 4.3242H16.3672C16.6445 3.1802 17.2252 2.22687 18.1092 1.4642C18.9932 0.684198 20.1718 0.294198 21.6452 0.294198C23.1185 0.294198 24.2625 0.666865 25.0772 1.4122C25.9092 2.1402 26.3252 3.11087 26.3252 4.3242C26.3252 4.7922 26.2818 5.1822 26.1952 5.4942L24.7652 13.5542H23.4652ZM28.3312 9.5242H29.8912C29.8739 9.54153 29.8652 9.56753 29.8652 9.6022V9.7842C29.8652 10.5469 30.1599 11.1535 30.7492 11.6042C31.3559 12.0375 32.2312 12.2542 33.3752 12.2542C34.4326 12.2542 35.2386 12.0375 35.7932 11.6042C36.3479 11.1709 36.6252 10.6075 36.6252 9.9142C36.6252 9.2902 36.3652 8.7702 35.8452 8.3542C35.3252 7.92087 34.6059 7.7042 33.6872 7.7042H32.6212L32.8812 6.2742H34.5452C35.4466 6.2742 36.1659 6.05753 36.7032 5.6242C37.2579 5.19087 37.5352 4.67087 37.5352 4.0642C37.5352 3.4402 37.2579 2.9202 36.7032 2.5042C36.1659 2.07087 35.4032 1.8542 34.4152 1.8542C33.4619 1.8542 32.6992 2.0882 32.1272 2.5562C31.5552 3.00687 31.1912 3.63953 31.0352 4.4542H29.4752C29.6139 3.22353 30.1599 2.22687 31.1132 1.4642C32.0666 0.684198 33.2106 0.294198 34.5452 0.294198C36.0012 0.294198 37.1192 0.623531 37.8992 1.2822C38.6966 1.94087 39.0952 2.78153 39.0952 3.8042C39.0952 4.93087 38.6359 5.81487 37.7172 6.4562C37.3706 6.7162 36.9199 6.91553 36.3652 7.0542V7.1842C36.5559 7.25353 36.7726 7.37487 37.0152 7.5482C37.2579 7.7042 37.5092 7.9902 37.7692 8.4062C38.0466 8.8222 38.1852 9.28153 38.1852 9.7842C38.1852 10.9282 37.7346 11.8902 36.8332 12.6702C35.9492 13.4329 34.7532 13.8142 33.2452 13.8142C31.6852 13.8142 30.4719 13.4589 29.6052 12.7482C28.7386 12.0375 28.3052 11.1362 28.3052 10.0442V9.6802C28.3052 9.59353 28.3139 9.54153 28.3312 9.5242ZM50.0142 8.0942L50.1962 7.1842H45.9582C44.8142 7.1842 43.9389 7.4442 43.3322 7.9642C42.7429 8.4842 42.4482 9.17753 42.4482 10.0442C42.4482 10.7375 42.6822 11.2835 43.1502 11.6822C43.6356 12.0635 44.3549 12.2542 45.3082 12.2542C46.5389 12.2542 47.5616 11.8902 48.3762 11.1622C49.2082 10.4342 49.7542 9.41153 50.0142 8.0942ZM49.3382 13.5542L49.3902 11.7342H49.2602C48.9136 12.1329 48.5322 12.4795 48.1162 12.7742C47.1456 13.4675 46.1229 13.8142 45.0482 13.8142C43.7829 13.8142 42.7689 13.4849 42.0062 12.8262C41.2609 12.1502 40.8882 11.3095 40.8882 10.3042C40.8882 8.91753 41.3302 7.81687 42.2142 7.0022C43.1156 6.1702 44.3636 5.7542 45.9582 5.7542H50.4562L50.5082 5.4942C50.5949 5.1822 50.6382 4.87887 50.6382 4.5842C50.6382 3.71753 50.3609 3.0502 49.8062 2.5822C49.2689 2.09687 48.4629 1.8542 47.3882 1.8542C46.3829 1.8542 45.5769 2.07953 44.9702 2.5302C44.3636 2.96353 43.9736 3.56153 43.8002 4.3242H42.2402C42.5176 3.1802 43.0982 2.22687 43.9822 1.4642C44.8662 0.684198 46.0449 0.294198 47.5182 0.294198C48.9916 0.294198 50.1356 0.666865 50.9502 1.4122C51.7822 2.1402 52.1982 3.11087 52.1982 4.3242C52.1982 4.7922 52.1549 5.1822 52.0682 5.4942L50.6382 13.5542H49.3382ZM51.9423 16.6742L52.7483 11.9942H52.8783C53.5369 11.9942 54.0396 11.8555 54.3863 11.5782C54.7503 11.3009 55.0189 10.8329 55.1923 10.1742L57.6883 0.554199H66.0863L64.0583 11.9942H66.0083L65.1763 16.6742H63.6163L64.1883 13.5542H54.0483L53.4763 16.6742H51.9423ZM55.6083 11.9942H62.4983L64.2403 2.1142H58.7803L56.7003 10.1742C56.5443 10.7809 56.3189 11.2662 56.0243 11.6302C55.9203 11.7689 55.7816 11.8902 55.6083 11.9942ZM65.3134 17.5842L65.5734 16.1542H75.6874L75.4274 17.5842H65.3134ZM77.4452 13.5542L79.7332 0.554199H86.5452C87.4119 0.554199 88.1052 0.848866 88.6252 1.4382C89.1452 2.02753 89.4052 2.72953 89.4052 3.5442C89.4052 5.17353 88.6599 6.3002 87.1692 6.9242V7.0542C87.4292 7.2102 87.6546 7.40953 87.8452 7.6522C88.3132 8.2242 88.5472 8.8482 88.5472 9.5242C88.5472 10.7202 88.1572 11.6909 87.3772 12.4362C86.5972 13.1815 85.6699 13.5542 84.5952 13.5542H77.4452ZM79.2392 12.1242H84.5172C85.2106 12.1242 85.7912 11.8902 86.2592 11.4222C86.7446 10.9542 86.9872 10.3649 86.9872 9.6542C86.9872 9.11687 86.8139 8.65753 86.4672 8.2762C86.1379 7.89487 85.7046 7.7042 85.1672 7.7042H80.0192L79.2392 12.1242ZM80.2792 6.2742H85.5052C86.1119 6.2742 86.6492 6.0402 87.1172 5.5722C87.6026 5.08687 87.8452 4.49753 87.8452 3.8042C87.8452 3.31887 87.6806 2.8942 87.3512 2.5302C87.0392 2.1662 86.6319 1.9842 86.1292 1.9842H81.0332L80.2792 6.2742ZM88.0634 17.5842L88.3234 16.1542H98.4374L98.1774 17.5842H88.0634ZM100.195 13.5542L102.483 0.554199H113.013L110.725 13.5542H109.165L111.167 2.1142H103.757L101.755 13.5542H100.195ZM114.896 13.5542L117.184 0.554199H118.744L116.742 11.8642H117.262L124.828 0.554199H127.714L125.426 13.5542H123.866L125.842 2.2442H125.322L117.782 13.5542H114.896ZM129.598 13.5542L131.886 0.554199H133.446L132.38 6.5342L139.764 0.554199H142.026L133.992 7.0282L139.79 13.5542H137.736L132.25 7.3142L131.158 13.5542H129.598ZM151.492 9.2642H153.13C152.558 10.6509 151.726 11.7602 150.634 12.5922C149.559 13.4069 148.354 13.8142 147.02 13.8142C145.39 13.8142 144.073 13.3029 143.068 12.2802C142.062 11.2402 141.56 9.84487 141.56 8.0942C141.56 5.92753 142.253 4.0902 143.64 2.5822C145.044 1.05686 146.647 0.294198 148.45 0.294198C149.94 0.294198 151.119 0.692865 151.986 1.4902C152.852 2.2702 153.416 3.34487 153.676 4.7142H152.038C151.812 3.8302 151.388 3.13687 150.764 2.6342C150.14 2.1142 149.325 1.8542 148.32 1.8542C146.985 1.8542 145.78 2.43487 144.706 3.5962C143.648 4.75753 143.12 6.1702 143.12 7.8342C143.12 9.16887 143.492 10.2435 144.238 11.0582C144.983 11.8555 145.954 12.2542 147.15 12.2542C148.051 12.2542 148.883 11.9855 149.646 11.4482C150.426 10.9109 151.041 10.1829 151.492 9.2642ZM165.169 9.9142H166.885C166.763 10.1742 166.607 10.4515 166.417 10.7462C166.243 11.0235 165.975 11.3529 165.611 11.7342C165.264 12.1155 164.883 12.4535 164.467 12.7482C164.068 13.0429 163.565 13.2942 162.959 13.5022C162.352 13.7102 161.719 13.8142 161.061 13.8142C159.431 13.8142 158.114 13.3029 157.109 12.2802C156.103 11.2402 155.601 9.84487 155.601 8.0942C155.601 5.92753 156.294 4.0902 157.681 2.5822C159.085 1.05686 160.688 0.294198 162.491 0.294198C164.12 0.294198 165.411 0.805531 166.365 1.8282C167.335 2.83353 167.821 4.18553 167.821 5.8842C167.821 6.4042 167.786 6.7942 167.717 7.0542L167.561 7.8342H157.161C157.161 9.16887 157.533 10.2435 158.279 11.0582C159.041 11.8555 160.021 12.2542 161.217 12.2542C161.875 12.2542 162.508 12.0982 163.115 11.7862C163.721 11.4569 164.163 11.1449 164.441 10.8502C164.735 10.5382 164.978 10.2262 165.169 9.9142ZM157.343 6.2742H166.261C166.261 4.90487 165.914 3.8302 165.221 3.0502C164.545 2.25287 163.591 1.8542 162.361 1.8542C161.165 1.8542 160.107 2.28753 159.189 3.1542C158.287 4.00353 157.672 5.04353 157.343 6.2742ZM167.559 13.6842L167.793 12.1242H168.729C169.717 12.1242 170.384 11.4742 170.731 10.1742L173.227 0.554199H181.677L179.389 13.5542H177.829L179.831 2.1142H174.371L172.239 10.3562C171.667 12.5749 170.453 13.6842 168.599 13.6842H167.559ZM183.553 13.5542L185.841 0.554199H187.401L186.595 5.1042H190.833C191.873 5.1042 192.739 5.45953 193.433 6.1702C194.126 6.88087 194.473 7.7822 194.473 8.8742C194.473 10.2262 194.022 11.3442 193.121 12.2282C192.219 13.1122 191.067 13.5542 189.663 13.5542H183.553ZM185.373 11.9942H189.923C190.755 11.9942 191.457 11.7082 192.029 11.1362C192.618 10.5469 192.913 9.8362 192.913 9.0042C192.913 8.2762 192.713 7.7042 192.315 7.2882C191.916 6.8722 191.379 6.6642 190.703 6.6642H186.309L185.373 11.9942Z" fill="black"/>
</svg>
